<?xml version="1.0" standalone="no"?>
<!DOCTYPE svg PUBLIC "-//W3C//DTD SVG 20010904//EN"
 "http://www.w3.org/TR/2001/REC-SVG-20010904/DTD/svg10.dtd">
<svg version="1.0" xmlns="http://www.w3.org/2000/svg"
 width="300.000000pt" height="300.000000pt" viewBox="0 0 300.000000 300.000000"
 preserveAspectRatio="xMidYMid meet">
<metadata>
Created by potrace 1.10, written by Peter Selinger 2001-2011
</metadata>
<g transform="translate(0.000000,300.000000) scale(0.100000,-0.100000)"
fill="#000000" stroke="none">
<path d="M1945 2497 c-65 -17 -112 -42 -152 -80 -35 -33 -41 -58 -20 -75 10
-9 26 -2 65 27 112 85 286 79 371 -13 26 -28 50 -33 69 -14 21 21 13 45 -25
78 -82 72 -206 103 -308 77z"/>
<path d="M794 2389 c-14 -16 -15 -24 -6 -44 13 -28 11 -27 101 -29 l64 -1 27
-80 c25 -74 29 -81 71 -102 61 -32 123 -102 139 -157 29 -104 -21 -221 -116
-274 -14 -8 -13 -13 2 -46 14 -29 20 -33 27 -21 4 8 25 24 45 34 34 17 65 18
355 19 215 0 322 4 331 11 8 6 41 92 76 191 l62 180 -26 31 c-24 29 -31 50
-27 92 2 16 -24 17 -423 17 l-424 0 -27 79 c-14 43 -31 85 -38 93 -8 11 -38
17 -104 21 -81 5 -93 4 -109 -14z m1101 -276 c-4 -16 -9 -30 -12 -33 -2 -3
-162 -6 -354 -8 l-349 -3 -10 26 c-6 15 -10 31 -10 36 0 5 148 9 371 9 l371 0
-7 -27z m-39 -129 c-3 -9 -6 -22 -6 -30 0 -12 -49 -14 -308 -14 l-308 0 -11
30 -11 30 325 0 c292 0 325 -2 319 -16z m-169 -124 l132 0 -10 -30 -11 -30
-262 0 -263 0 -11 25 c-7 14 -12 28 -12 30 0 6 225 12 270 8 19 -1 94 -3 167
-3z"/>
<path d="M1920 2351 c-48 -26 -72 -55 -68 -83 4 -33 42 -35 79 -4 43 36 121
37 174 0 41 -28 72 -28 89 -2 13 21 -20 60 -76 89 -50 25 -150 25 -198 0z"/>
<path d="M1234 2329 c-10 -17 13 -36 27 -22 12 12 4 33 -11 33 -5 0 -12 -5
-16 -11z"/>
<path d="M1290 2320 c0 -13 5 -20 13 -17 6 2 12 10 12 17 0 7 -6 15 -12 18 -8
2 -13 -5 -13 -18z"/>
<path d="M1420 2321 c0 -11 4 -22 9 -25 12 -8 34 21 26 34 -11 17 -35 11 -35
-9z"/>
<path d="M1500 2320 c0 -11 7 -20 15 -20 8 0 15 9 15 20 0 11 -7 20 -15 20 -8
0 -15 -9 -15 -20z"/>
<path d="M1566 2333 c-11 -11 -6 -23 9 -23 8 0 15 4 15 9 0 13 -16 22 -24 14z"/>
<path d="M1172 2319 c2 -6 8 -10 13 -10 5 0 11 4 13 10 2 6 -4 11 -13 11 -9 0
-15 -5 -13 -11z"/>
<path d="M1612 2319 c2 -6 8 -10 13 -10 5 0 11 4 13 10 2 6 -4 11 -13 11 -9 0
-15 -5 -13 -11z"/>
<path d="M1982 2224 c-15 -10 -22 -25 -22 -49 0 -77 94 -99 120 -29 14 36 13
42 -15 69 -28 29 -51 31 -83 9z"/>
<path d="M890 2090 c-13 -10 -13 -11 0 -9 8 1 29 1 45 0 l30 -2 -28 -12 c-27
-12 -27 -12 20 -13 69 -1 111 -26 135 -81 37 -84 10 -160 -69 -195 -31 -14
-43 -24 -39 -35 3 -8 6 -17 6 -19 0 -13 42 0 81 25 57 36 84 87 84 161 0 67
-25 121 -73 158 -29 22 -47 27 -106 30 -40 1 -78 -2 -86 -8z"/>
<path d="M832 2048 c-41 -44 -62 -96 -62 -159 0 -41 3 -50 15 -45 13 4 12 1
-1 -20 -12 -17 -22 -23 -33 -18 -38 16 -57 13 -90 -16 -34 -29 -34 -30 -16
-50 17 -19 17 -21 -19 -60 -40 -45 -43 -52 -21 -70 13 -11 14 -15 2 -29 -13
-14 -4 -26 74 -99 l88 -83 17 26 c12 18 20 22 28 15 19 -15 213 174 198 193
-6 7 -9 22 -6 33 4 14 -2 24 -20 34 -14 7 -26 21 -26 30 0 9 -9 26 -21 39 -21
22 -20 51 1 51 6 0 8 -5 5 -10 -12 -19 24 -22 60 -4 91 43 85 176 -9 203 -48
13 -82 3 -111 -31 -39 -46 -32 -66 10 -29 20 17 47 31 61 31 32 0 74 -42 74
-75 0 -29 -40 -75 -66 -75 -15 0 -15 3 4 23 24 26 29 66 10 85 -25 25 -66 13
-115 -33 -25 -25 -49 -43 -51 -40 -9 9 18 118 33 135 18 20 20 40 3 40 -6 0
-3 9 7 20 30 33 12 23 -23 -12z m118 -151 c0 -6 -34 -46 -76 -88 -70 -71 -85
-99 -50 -99 7 0 22 14 35 31 22 29 23 30 42 13 19 -17 19 -18 -6 -44 -28 -30
-32 -45 -10 -53 8 -4 23 5 35 21 17 21 23 23 30 12 6 -9 1 -23 -16 -43 -13
-16 -24 -33 -24 -38 0 -18 39 -9 45 11 4 11 11 18 16 15 18 -12 8 -25 -51 -65
-33 -22 -67 -52 -77 -66 -9 -15 -22 -23 -31 -19 -8 3 -20 0 -28 -6 -10 -8 -28
2 -78 44 -64 55 -64 56 -44 73 20 19 20 19 -1 35 -19 16 -19 17 -2 33 10 9 24
16 32 16 8 0 65 54 127 120 104 109 132 130 132 97z m-224 -129 c9 -15 -27
-41 -40 -28 -6 6 -5 15 4 25 15 18 26 19 36 3z"/>
<path d="M2182 1958 c-19 -19 -14 -56 8 -63 23 -7 50 10 50 31 0 13 -27 44
-39 44 -4 0 -12 -5 -19 -12z"/>
<path d="M2306 1957 c-36 -26 4 -84 42 -61 23 15 26 38 7 58 -20 19 -26 20
-49 3z m34 -27 c0 -5 -4 -10 -10 -10 -5 0 -10 5 -10 10 0 6 5 10 10 10 6 0 10
-4 10 -10z"/>
<path d="M1980 1941 c-19 -36 -12 -41 60 -41 54 0 72 4 76 15 11 28 -16 45
-72 45 -42 0 -55 -4 -64 -19z"/>
<path d="M617 1934 c-4 -4 -7 -14 -7 -21 0 -11 12 -13 48 -11 34 2 47 7 47 18
0 10 -12 16 -40 18 -23 2 -44 0 -48 -4z"/>
<path d="M2160 1835 c-20 -25 -8 -50 25 -50 21 0 31 5 33 18 4 21 -14 47 -33
47 -7 0 -18 -7 -25 -15z"/>
<path d="M1940 1819 c-7 -11 -9 -24 -5 -27 3 -4 36 -8 73 -10 72 -4 99 9 86
42 -5 13 -21 16 -75 16 -59 0 -70 -3 -79 -21z"/>
<path d="M1927 1713 c-33 -4 -38 -7 -35 -26 3 -21 9 -22 112 -25 117 -3 144 5
125 39 -8 16 -20 19 -87 17 -42 -1 -94 -3 -115 -5z"/>
<path d="M2190 1685 c0 -21 5 -25 29 -25 20 0 30 6 34 19 6 25 0 31 -35 31
-23 0 -28 -4 -28 -25z"/>
<path d="M1168 1622 c-82 -50 -70 -181 19 -219 51 -21 95 -10 132 33 26 29 31
43 31 85 0 45 -4 55 -34 85 -28 28 -41 34 -77 34 -24 0 -56 -8 -71 -18z m94
-69 c35 -31 17 -83 -28 -83 -21 0 -54 33 -54 52 0 12 39 48 52 48 6 0 20 -7
30 -17z"/>
<path d="M1672 1624 c-81 -57 -62 -190 33 -223 35 -12 45 -11 77 2 68 28 97
111 63 177 -22 42 -53 60 -105 60 -25 0 -56 -7 -68 -16z m103 -74 c20 -22 14
-67 -10 -77 -25 -9 -63 6 -70 28 -8 25 19 69 44 69 10 0 26 -9 36 -20z"/>
<path d="M1402 1533 l3 -28 80 0 c79 0 80 0 80 25 0 24 -2 25 -83 28 l-83 3 3
-28z"/>
<path d="M1910 1535 l0 -25 109 0 c90 0 110 3 115 16 3 9 4 20 0 25 -3 5 -54
9 -115 9 l-109 0 0 -25z"/>
<path d="M869 1251 c-26 -26 -29 -36 -29 -90 0 -49 4 -65 24 -87 31 -37 84
-38 121 -4 23 21 24 26 11 39 -14 13 -18 13 -34 -2 -26 -24 -49 -21 -68 8 -11
17 -15 37 -11 61 11 65 42 81 83 43 l22 -21 11 20 c9 17 7 24 -15 41 -38 30
-80 27 -115 -8z"/>
<path d="M1071 1266 c-33 -18 -50 -53 -51 -104 0 -80 51 -132 114 -116 44 11
66 49 66 115 0 72 -5 86 -41 104 -34 18 -57 18 -88 1z m73 -48 c32 -45 13
-128 -28 -128 -34 0 -49 24 -49 77 0 67 45 97 77 51z"/>
<path d="M1918 1273 l-38 -4 0 -108 c0 -59 3 -110 6 -113 3 -3 14 -4 25 -1 15
4 19 14 19 44 0 50 19 51 45 1 15 -27 28 -38 48 -40 33 -4 34 9 5 48 -20 28
-20 31 -5 48 10 11 17 35 17 58 0 33 -5 43 -29 57 -16 9 -35 16 -43 15 -7 -1
-30 -3 -50 -5z m56 -43 c34 -13 35 -47 1 -56 -14 -3 -32 -4 -40 0 -18 7 -20
52 -2 59 6 3 13 6 14 6 1 1 13 -3 27 -9z"/>
<path d="M2104 1246 c-30 -30 -34 -40 -34 -86 0 -46 4 -56 34 -86 41 -41 73
-43 116 -8 28 24 30 28 16 42 -14 14 -17 14 -35 -2 -45 -41 -101 10 -83 75 4
18 17 38 28 46 18 12 24 11 45 -5 28 -22 49 -18 49 9 0 21 -46 49 -81 49 -11
0 -36 -15 -55 -34z"/>
<path d="M2266 1270 c-2 -5 -1 -136 3 -202 1 -28 2 -28 66 -28 63 0 65 1 65
25 0 23 -4 25 -45 25 -41 0 -45 2 -45 25 0 23 4 25 40 25 33 0 40 3 40 20 0
17 -7 20 -40 20 -36 0 -40 3 -40 25 0 23 4 25 45 25 40 0 45 3 45 23 0 21 -4
22 -66 22 -36 0 -67 -2 -68 -5z"/>
<path d="M550 1155 l0 -115 70 0 c68 0 70 1 70 25 0 23 -3 25 -50 25 -47 0
-50 2 -50 25 0 23 4 25 40 25 33 0 40 3 40 20 0 17 -7 20 -40 20 -36 0 -40 3
-40 25 0 23 3 25 50 25 43 0 50 3 50 20 0 18 -7 20 -70 20 l-70 0 0 -115z"/>
<path d="M1230 1157 c0 -109 1 -115 20 -110 16 4 20 15 22 71 l3 66 25 -64
c14 -37 31 -65 39 -65 8 0 24 26 37 60 l22 60 4 -60 c3 -53 5 -60 26 -63 22
-3 22 -2 22 107 l0 111 -25 0 c-22 0 -30 -10 -58 -72 l-33 -72 -25 70 c-22 60
-29 69 -52 72 l-27 3 0 -114z"/>
<path d="M1480 1155 c0 -63 2 -115 4 -115 28 0 36 16 36 74 l1 61 23 -55 c31
-76 49 -76 77 -1 12 34 23 61 25 61 1 0 2 -10 2 -22 -1 -13 -1 -44 0 -70 2
-41 5 -48 22 -48 19 0 20 7 20 116 l0 115 -27 -3 c-23 -3 -31 -12 -51 -65 -21
-55 -42 -82 -42 -53 0 5 -9 34 -21 65 -17 46 -24 55 -45 55 l-24 0 0 -115z"/>
<path d="M1722 1158 l3 -113 67 -1 c56 0 67 3 71 17 7 25 0 29 -55 29 -45 0
-48 2 -48 25 0 23 4 25 45 25 38 0 45 3 45 20 0 17 -7 20 -39 20 -33 0 -39 3
-43 25 -5 24 -3 25 43 25 42 0 49 3 49 20 0 18 -7 20 -70 20 l-71 0 3 -112z"/>
<path d="M710 1145 c0 -23 3 -25 50 -25 47 0 50 2 50 25 0 23 -3 25 -50 25
-47 0 -50 -2 -50 -25z"/>
</g>
</svg>
