<?xml version="1.0" standalone="no"?>
<!DOCTYPE svg PUBLIC "-//W3C//DTD SVG 20010904//EN"
 "http://www.w3.org/TR/2001/REC-SVG-20010904/DTD/svg10.dtd">
<svg version="1.0" xmlns="http://www.w3.org/2000/svg"
 width="300.000000pt" height="300.000000pt" viewBox="0 0 300.000000 300.000000"
 preserveAspectRatio="xMidYMid meet">
<metadata>
Created by potrace 1.10, written by Peter Selinger 2001-2011
</metadata>
<g transform="translate(0.000000,300.000000) scale(0.100000,-0.100000)"
fill="#000000" stroke="none">
<path d="M1438 2521 c-75 -25 -154 -99 -182 -172 -13 -35 -16 -71 -14 -169 3
-122 4 -125 26 -128 45 -7 52 12 52 130 0 125 14 165 76 216 73 61 175 60 249
0 58 -48 75 -95 75 -211 0 -104 9 -137 39 -137 37 0 43 23 39 157 -4 142 -13
169 -77 236 -53 57 -104 80 -186 83 -38 2 -82 -1 -97 -5z"/>
<path d="M870 2340 c0 -12 -9 -24 -22 -30 l-23 -9 23 -7 c12 -3 22 -13 22 -20
0 -8 5 -14 10 -14 6 0 10 5 10 11 0 7 8 18 18 25 16 13 16 13 0 14 -11 0 -18
8 -18 19 0 11 -4 23 -10 26 -5 3 -10 -3 -10 -15z"/>
<path d="M2271 2338 c-1 -19 -7 -28 -23 -31 l-23 -4 23 -8 c13 -4 22 -16 23
-29 0 -21 0 -21 9 2 5 12 16 22 25 22 21 0 19 17 -4 23 -11 2 -21 15 -24 28
-4 23 -4 22 -6 -3z"/>
<path d="M2140 2322 c0 -10 -10 -24 -22 -30 l-23 -11 23 0 c15 -1 22 -7 22
-21 0 -11 5 -20 10 -20 6 0 10 9 10 20 0 11 7 20 15 20 8 0 15 5 15 10 0 6 -7
10 -15 10 -8 0 -15 6 -15 14 0 8 -4 18 -10 21 -5 3 -10 -2 -10 -13z"/>
<path d="M1108 2185 c2 -19 8 -38 13 -41 12 -7 11 -44 -1 -44 -17 0 -12 -149
5 -166 8 -9 15 -24 15 -35 0 -11 -7 -22 -15 -25 -11 -4 -15 -21 -15 -59 0 -34
5 -57 15 -65 8 -7 15 -18 15 -25 0 -7 -7 -18 -15 -25 -14 -12 -21 -50 -9 -50
3 0 14 10 24 23 10 12 22 19 26 14 4 -4 -7 -22 -24 -40 l-32 -33 3 -214 2
-215 151 -3 c149 -2 152 -2 157 20 10 36 -9 47 -91 50 -67 3 -79 0 -94 -17
-13 -16 -20 -18 -35 -9 -10 6 -18 22 -18 35 l0 24 106 -4 c75 -2 112 1 127 10
17 10 23 10 36 0 20 -17 21 -50 1 -57 -8 -4 -15 -17 -15 -30 l0 -23 184 -3
185 -3 3 68 c2 37 0 67 -4 67 -4 0 -12 9 -18 21 -9 16 -8 26 4 44 20 31 23
205 4 235 -17 26 1 55 33 55 19 0 25 -6 27 -28 2 -16 -2 -29 -10 -32 -10 -4
-12 -30 -10 -108 2 -56 8 -106 13 -112 12 -12 12 -52 -1 -60 -5 -3 -10 -40
-10 -82 0 -64 2 -74 16 -69 9 3 27 6 40 6 l24 0 0 289 c0 232 -3 294 -14 317
-14 26 -7 64 12 64 9 0 -1 260 -11 281 -5 10 0 22 13 34 20 18 21 18 41 -2 21
-20 21 -21 3 -39 -17 -17 -19 -35 -19 -144 0 -107 2 -127 18 -138 21 -16 22
-45 2 -62 -13 -11 -15 -56 -15 -298 l0 -286 31 30 c36 34 69 94 69 124 0 21 3
22 153 19 147 -3 152 -2 155 18 4 24 -23 38 -39 20 -8 -8 -49 -11 -140 -9
-125 3 -129 4 -129 25 0 21 5 22 91 24 67 1 95 -2 106 -12 28 -28 68 19 43 50
-16 19 -34 19 -50 0 -9 -11 -35 -15 -101 -15 -88 0 -89 0 -89 25 0 25 1 25 88
25 48 0 94 4 101 9 25 16 -33 24 -115 17 -74 -7 -74 -7 -74 18 0 24 1 25 98
28 53 2 101 0 107 -4 27 -22 57 14 32 39 -12 12 -17 12 -28 1 -10 -9 -44 -13
-112 -13 -92 0 -97 1 -97 21 0 20 7 22 131 28 116 7 132 6 143 -9 20 -27 51
-15 51 20 0 33 -30 48 -49 24 -8 -11 -44 -14 -144 -14 -129 0 -132 1 -132 22
0 20 6 21 98 25 54 2 103 0 110 -6 9 -6 18 -4 29 7 13 13 14 19 3 31 -14 17
-40 22 -40 7 0 -5 -45 -11 -100 -13 -96 -3 -100 -2 -100 18 0 20 7 21 137 27
75 4 165 7 200 7 38 0 63 4 63 11 0 7 -64 9 -200 7 l-200 -3 0 24 c0 23 1 23
88 20 93 -4 121 3 102 26 -7 8 -24 12 -43 10 -18 -2 -58 -6 -89 -9 -56 -4 -58
-4 -58 20 l0 24 138 1 c75 0 160 4 187 8 93 14 7 24 -166 19 -156 -4 -160 -3
-157 17 3 18 11 20 86 23 109 4 106 22 -3 22 -78 0 -85 2 -85 20 0 18 7 20 85
20 71 0 85 3 85 16 0 14 -12 16 -84 13 l-84 -4 -12 32 c-18 52 -71 86 -140 91
l-59 4 0 -82 c0 -94 -14 -125 -60 -135 -66 -14 -100 31 -103 138 l-2 77 -156
0 -156 0 -1 -75 c-2 -80 -22 -130 -56 -141 -17 -5 -88 -76 -95 -95 -2 -4 8 -2
22 4 14 7 26 15 26 20 0 12 28 8 34 -5 3 -7 3 -1 0 13 -5 23 -1 27 23 34 15 3
28 5 28 4 0 -2 15 6 32 16 25 15 36 16 44 8 15 -15 -6 -44 -25 -37 -7 3 -26
-13 -44 -35 -17 -22 -42 -43 -54 -47 -13 -4 -29 -14 -35 -23 -12 -14 -15 -14
-32 7 -21 24 -47 29 -54 10 -4 -12 -7 17 -8 65 0 13 -5 16 -20 12 -17 -6 -19
-3 -13 22 4 15 13 34 20 41 14 14 8 46 -7 36 -15 -9 -10 21 7 42 15 18 15 18
10 -4 -6 -29 2 -52 18 -52 7 0 11 29 11 90 l0 90 -45 0 -46 0 4 -35z m782 6
c-11 -21 -30 -37 -30 -25 0 8 30 44 37 44 2 0 -1 -9 -7 -19z m-335 -21 c-21
-22 -32 -27 -41 -19 -9 7 -19 7 -35 -1 -18 -10 -24 -9 -33 6 -9 17 -11 16 -16
-10 -7 -41 -30 -46 -30 -6 0 17 4 29 9 25 6 -3 14 2 19 11 8 14 19 16 53 11
25 -3 51 -2 59 3 34 22 43 9 15 -20z m74 -20 c3 0 5 -63 4 -141 l-3 -140 43 6
c36 6 46 3 62 -15 15 -16 17 -25 9 -38 -9 -14 -32 -17 -145 -20 l-134 -3 -24
-34 c-25 -38 -42 -43 -60 -21 -10 12 -5 17 28 27 23 7 41 16 41 21 0 4 -34 8
-76 8 -75 0 -77 -1 -111 -36 -40 -43 -54 -38 -27 11 17 32 26 39 45 37 4 -1 5
7 2 17 -8 32 21 42 120 43 l94 0 -5 92 c-2 50 -8 95 -13 101 -16 17 -9 54 12
65 16 9 25 8 40 -6 23 -20 25 -52 4 -60 -12 -5 -15 -26 -15 -100 l0 -94 40 0
c40 0 40 0 40 40 0 45 -10 51 -33 18 -13 -19 -16 -20 -16 -6 -1 9 5 21 12 25
24 16 37 53 37 107 0 30 -5 58 -10 61 -7 4 -6 14 2 28 7 12 14 27 14 32 4 27
7 28 11 3 2 -16 8 -28 12 -28z m-177 -79 c13 -24 14 -33 4 -47 -12 -16 -14
-16 -42 2 -16 10 -30 19 -32 20 -2 1 0 13 4 28 9 36 44 35 66 -3z m561 12 c9
-9 -13 -34 -24 -27 -14 8 -11 34 4 34 8 0 17 -3 20 -7z m-125 -50 c-5 -25 -28
-28 -28 -4 0 12 6 21 16 21 9 0 14 -7 12 -17z m-208 -7 c0 -2 -7 -9 -15 -16
-12 -10 -15 -10 -15 4 0 9 7 16 15 16 8 0 15 -2 15 -4z m350 -2 c0 -12 -42
-64 -51 -64 -8 0 -3 43 8 63 5 8 43 10 43 1z m-190 -36 c0 -7 -5 -20 -10 -28
-7 -12 -12 -12 -22 -2 -9 9 -8 15 8 27 24 18 24 18 24 3z m47 -42 c-4 -9 -11
-16 -17 -16 -17 0 -24 31 -9 41 18 11 34 -5 26 -25z m-157 4 c0 -23 -10 -26
-28 -8 -9 9 -13 7 -18 -5 -8 -21 -24 -22 -24 -2 0 15 31 33 58 34 6 1 12 -8
12 -19z m-266 -7 c9 -24 -16 -41 -53 -35 -37 5 -51 32 -16 32 13 0 27 5 30 10
10 16 32 12 39 -7z m341 -14 c8 -13 -14 -69 -27 -69 -5 0 -6 4 -3 10 3 5 2 18
-3 27 -5 10 -7 24 -5 31 6 15 29 16 38 1z m85 -27 c0 -3 -8 -22 -17 -43 -12
-24 -29 -40 -50 -48 -34 -13 -58 -61 -35 -69 19 -6 14 -30 -8 -42 -15 -8 -20
-8 -20 2 0 6 -9 22 -21 34 l-20 22 29 21 c16 11 32 33 35 48 8 39 62 92 87 86
11 -3 20 -8 20 -11z m130 -2 c0 -21 -24 -28 -35 -10 -8 14 3 30 21 30 8 0 14
-9 14 -20z m-800 -65 c9 -11 9 -19 2 -28 -15 -18 -15 -203 0 -227 10 -16 10
-24 0 -40 -6 -11 -12 -51 -12 -89 l0 -70 180 -3 c99 -2 180 0 180 4 0 13 38
28 55 22 29 -11 38 -43 20 -70 -18 -28 -41 -31 -68 -6 -16 15 -45 17 -209 20
l-189 3 2 89 c1 56 -3 95 -10 104 -11 13 -6 46 8 46 3 0 6 47 6 105 0 58 -3
105 -7 105 -10 0 -10 34 -1 43 11 11 30 8 43 -8z m629 -59 c15 -17 -12 -48
-34 -40 -18 7 -20 40 -2 47 20 9 24 8 36 -7z m-276 -17 c-14 -15 -27 -19 -40
-15 -16 7 -14 9 12 21 44 20 52 18 28 -6z m307 -56 c0 -25 -1 -26 -16 -11 -9
9 -13 21 -10 27 13 20 26 11 26 -16z m-141 -7 c9 -11 10 -20 1 -35 -10 -19
-20 -21 -123 -22 -62 -1 -155 -1 -207 0 l-94 1 -38 -37 -38 -37 0 37 c0 35 2
37 30 37 28 0 30 2 20 21 -9 15 -8 24 1 35 9 11 51 14 224 14 173 0 215 -3
224 -14z m279 -3 c-2 -10 -10 -18 -18 -18 -8 0 -16 8 -18 18 -2 12 3 17 18 17
15 0 20 -5 18 -17z m-1 -116 c-9 -28 -11 -29 -24 -12 -16 23 -17 47 -1 63 20
20 38 -16 25 -51z m-534 21 c-13 -12 -26 -18 -30 -14 -4 4 1 14 11 22 31 22
43 17 19 -8z m281 -4 c4 -9 4 -19 1 -22 -6 -6 -35 18 -35 29 0 16 28 10 34 -7z
m-33 -44 c23 -13 24 -28 2 -52 -15 -16 -35 -18 -213 -18 l-196 0 -34 -35 c-25
-26 -37 -32 -46 -24 -15 13 -7 39 12 39 8 0 14 5 14 10 0 6 9 10 20 10 19 0
20 1 5 24 -14 22 -14 25 0 40 14 14 46 16 216 16 119 0 208 -4 220 -10z m159
-36 c0 -16 -16 -19 -25 -4 -8 13 4 32 16 25 5 -4 9 -13 9 -21z m122 -36 c-16
-16 -37 4 -28 28 6 16 8 16 23 1 13 -13 15 -19 5 -29z m-858 -2 c-3 -9 -10
-16 -15 -16 -6 0 -5 9 1 21 13 24 24 20 14 -5z m619 -21 c8 -18 -11 -31 -25
-17 -11 11 -3 32 12 32 4 0 10 -7 13 -15z m122 -15 c0 -7 -6 -15 -12 -17 -8
-3 -13 4 -13 17 0 13 5 20 13 18 6 -3 12 -11 12 -18z m-469 -5 c3 -8 3 -19 -1
-25 -10 -16 -35 7 -28 26 7 18 22 18 29 -1z m244 0 c-7 -8 -16 -12 -21 -9 -13
8 -1 24 18 24 13 0 13 -3 3 -15z m-145 -13 c0 -18 -20 -15 -23 4 -3 10 1 15
10 12 7 -3 13 -10 13 -16z m-183 -7 c0 -5 -5 -11 -11 -13 -6 -2 -11 4 -11 13
0 9 5 15 11 13 6 -2 11 -8 11 -13z m368 -10 c0 -8 -7 -15 -15 -15 -8 0 -15 7
-15 15 0 8 7 15 15 15 8 0 15 -7 15 -15z m40 -37 c0 -18 3 -43 6 -55 8 -29
-12 -30 -43 -4 -29 24 -29 39 -1 68 29 31 38 29 38 -9z m268 15 c-2 -10 -10
-18 -18 -18 -8 0 -16 8 -18 18 -2 12 3 17 18 17 15 0 20 -5 18 -17z m-504
-126 c-8 -60 -20 -53 -18 10 3 61 2 59 14 47 6 -6 7 -30 4 -57z m192 28 c4 -8
0 -22 -7 -31 -11 -13 -14 -13 -27 0 -17 17 -9 46 13 46 9 0 18 -7 21 -15z
m-122 -14 c7 -10 -3 -41 -13 -41 -17 1 -33 20 -28 34 7 17 32 22 41 7z m69
-43 c-2 -5 -13 -8 -24 -8 -13 0 -19 7 -19 23 0 13 3 26 6 30 8 8 44 -35 37
-45z m107 11 c0 -24 -23 -21 -28 4 -2 10 3 17 12 17 10 0 16 -9 16 -21z m135
12 c7 -12 -12 -24 -25 -16 -11 7 -4 25 10 25 5 0 11 -4 15 -9z"/>
<path d="M1038 2187 c-13 -12 -33 -37 -43 -55 -19 -32 -19 -32 -102 -32 -67 0
-83 -3 -83 -15 0 -12 16 -15 85 -15 78 0 85 -2 85 -20 0 -18 -7 -20 -85 -20
-109 0 -112 -18 -2 -22 75 -3 82 -5 85 -24 3 -22 3 -22 -164 -16 -140 4 -166
3 -162 -9 4 -11 38 -15 166 -17 154 -2 162 -4 162 -22 0 -16 -7 -20 -37 -21
-21 -1 -54 -2 -73 -3 -19 -1 -41 2 -47 7 -18 13 -45 0 -41 -20 3 -16 14 -18
101 -15 93 4 97 3 97 -17 0 -21 -4 -21 -200 -21 -110 0 -200 -4 -200 -9 0 -5
90 -12 200 -16 186 -7 200 -8 200 -26 0 -16 -10 -19 -92 -21 -120 -4 -122 -22
-3 -26 l90 -2 17 37 c21 49 30 91 22 105 -10 16 -12 90 -3 115 5 13 5 22 1 20
-4 -1 -8 3 -8 8 -1 6 1 9 5 8 10 -3 8 41 -2 48 -5 4 -3 16 4 27 12 19 14 19
26 4 15 -20 17 -78 3 -87 -5 -3 -10 -11 -10 -16 0 -6 4 -8 9 -5 16 10 20 -21
5 -49 -18 -36 -18 -48 5 -89 l20 -34 -45 -52 c-24 -28 -44 -58 -44 -65 0 -19
-261 -26 -273 -7 -19 30 -64 -7 -51 -42 8 -20 40 -21 51 -1 7 12 30 14 141 8
119 -5 132 -8 132 -25 0 -16 -9 -18 -90 -18 -73 0 -90 -3 -90 -15 0 -12 17
-15 91 -15 88 0 90 -1 87 -22 -3 -22 -7 -22 -90 -19 -75 2 -88 0 -88 -13 0
-13 14 -16 89 -16 86 0 89 1 107 28 10 15 17 35 16 45 -2 11 3 17 17 17 30 0
26 -25 -12 -67 -19 -21 -36 -46 -40 -55 -5 -13 -22 -17 -92 -20 -76 -3 -88 -1
-97 15 -6 11 -18 17 -31 15 -32 -4 -32 -62 1 -66 12 -2 24 3 27 10 4 10 28 12
100 10 91 -3 95 -4 95 -26 0 -23 -3 -23 -127 -28 -98 -4 -132 -3 -143 8 -19
16 -43 3 -38 -22 3 -16 15 -18 156 -15 135 2 152 1 152 -14 0 -35 57 -127 90
-145 13 -7 15 21 13 238 -2 149 -7 250 -13 256 -14 14 -13 46 3 51 17 7 13 98
-7 126 -14 20 -14 26 -1 45 11 18 14 53 13 153 0 72 -4 131 -8 131 -4 0 -18
-10 -32 -23z m1 -491 c-2 -17 1 -38 6 -46 7 -13 6 -13 -7 -2 -8 7 -23 10 -32
6 -21 -8 -21 16 1 54 21 37 35 31 32 -12z m7 -231 c-5 -14 -9 -15 -21 -5 -12
10 -13 16 -4 27 15 18 34 1 25 -22z m4 -84 c0 -11 -5 -23 -11 -27 -15 -9 -33
12 -26 30 9 23 37 20 37 -3z"/>
<path d="M580 2165 c-20 -24 5 -48 33 -33 13 7 86 11 191 12 103 1 171 5 173
11 2 6 -57 9 -168 6 -116 -2 -175 1 -182 8 -15 15 -32 14 -47 -4z"/>
<path d="M2417 2174 c-3 -3 -85 -7 -181 -8 -110 0 -176 -5 -176 -11 0 -6 66
-11 176 -12 122 -1 180 -5 190 -14 12 -10 18 -9 31 4 9 8 13 23 10 31 -6 16
-38 22 -50 10z"/>
<path d="M520 2075 c0 -9 5 -15 11 -13 6 2 11 8 11 13 0 5 -5 11 -11 13 -6 2
-11 -4 -11 -13z"/>
<path d="M2497 2083 c-12 -11 -8 -23 8 -23 8 0 15 7 15 15 0 16 -12 20 -23 8z"/>
<path d="M734 2066 c-9 -25 0 -51 20 -54 26 -5 40 12 32 42 -7 29 -43 36 -52
12z"/>
<path d="M2233 2064 c-8 -22 10 -49 32 -49 10 0 22 7 28 16 15 24 1 49 -28 49
-15 0 -28 -7 -32 -16z"/>
<path d="M642 2058 c-16 -16 -15 -33 3 -48 13 -11 18 -10 30 6 19 25 18 31 -3
43 -13 7 -23 6 -30 -1z"/>
<path d="M2352 2058 c-16 -16 -15 -33 4 -48 22 -19 54 12 38 37 -14 22 -27 26
-42 11z"/>
<path d="M1196 2015 c-7 -19 24 -36 53 -28 21 5 21 6 -9 24 -37 23 -36 23 -44
4z"/>
<path d="M552 1988 c-16 -16 -15 -23 4 -43 12 -12 19 -13 30 -4 19 15 18 45
-2 53 -20 8 -18 8 -32 -6z"/>
<path d="M2453 1993 c-18 -7 -16 -38 3 -53 12 -11 18 -10 32 4 25 25 -2 63
-35 49z"/>
<path d="M672 1893 c5 -25 28 -28 28 -4 0 12 -6 21 -16 21 -9 0 -14 -7 -12
-17z"/>
<path d="M2334 1899 c-10 -17 13 -36 27 -22 12 12 4 33 -11 33 -5 0 -12 -5
-16 -11z"/>
<path d="M727 1894 c-8 -8 1 -24 14 -24 5 0 9 7 9 15 0 15 -12 20 -23 9z"/>
<path d="M2287 1894 c-8 -8 1 -24 14 -24 5 0 9 7 9 15 0 15 -12 20 -23 9z"/>
<path d="M514 1835 c-9 -23 3 -45 25 -45 10 0 21 7 25 15 8 23 -4 45 -25 45
-11 0 -22 -7 -25 -15z"/>
<path d="M2470 1835 c-15 -18 -7 -43 16 -52 24 -9 46 24 33 48 -12 23 -32 24
-49 4z"/>
<path d="M735 1770 c-8 -12 3 -50 14 -50 15 0 33 30 27 45 -6 17 -32 20 -41 5z"/>
<path d="M646 1763 c-9 -9 -7 -33 3 -33 12 0 22 28 12 34 -5 3 -11 3 -15 -1z"/>
<path d="M2365 1760 c-4 -6 -3 -16 3 -22 6 -6 12 -6 17 2 4 6 3 16 -3 22 -6 6
-12 6 -17 -2z"/>
<path d="M564 1679 c-8 -14 11 -33 25 -25 6 4 11 14 11 22 0 16 -26 19 -36 3z"/>
<path d="M2440 1670 c0 -23 25 -27 33 -6 7 16 -1 26 -20 26 -7 0 -13 -9 -13
-20z"/>
<path d="M743 1633 c-18 -6 -16 -42 2 -49 8 -4 22 -1 30 6 24 20 -1 54 -32 43z"/>
<path d="M465 1611 c-7 -12 12 -24 25 -16 11 7 4 25 -10 25 -5 0 -11 -4 -15
-9z"/>
<path d="M2530 1605 c0 -8 7 -15 15 -15 8 0 15 7 15 15 0 8 -7 15 -15 15 -8 0
-15 -7 -15 -15z"/>
<path d="M585 1600 c-8 -14 3 -30 21 -30 8 0 14 9 14 20 0 21 -24 28 -35 10z"/>
<path d="M2410 1585 c0 -8 9 -15 20 -15 11 0 20 7 20 15 0 8 -9 15 -20 15 -11
0 -20 -7 -20 -15z"/>
<path d="M2320 1556 c-15 -19 -5 -36 21 -36 22 0 25 22 5 39 -10 9 -16 8 -26
-3z"/>
<path d="M670 1539 c0 -25 33 -22 38 4 2 12 -3 17 -17 17 -15 0 -21 -6 -21
-21z"/>
<path d="M613 1474 c-3 -8 1 -22 9 -30 13 -13 16 -13 27 0 7 9 11 23 7 31 -7
20 -35 19 -43 -1z"/>
<path d="M2371 1477 c-8 -10 -7 -19 4 -33 15 -18 15 -18 29 -1 26 34 -6 66
-33 34z"/>
<path d="M496 1444 c-19 -14 -19 -14 -1 -28 15 -11 21 -11 37 3 13 11 15 17 6
20 -7 2 -15 7 -18 12 -3 4 -14 1 -24 -7z"/>
<path d="M2470 1435 c-19 -23 3 -43 24 -22 13 12 13 17 2 26 -10 8 -17 7 -26
-4z"/>
<path d="M571 1332 c-18 -34 19 -68 46 -41 7 7 70 10 182 9 148 -1 171 1 171
15 0 13 -20 14 -168 9 -148 -6 -169 -5 -181 10 -18 21 -38 20 -50 -2z"/>
<path d="M2412 1334 c-9 -16 -25 -17 -175 -11 -137 5 -168 3 -178 -9 -10 -12
13 -14 165 -14 122 0 182 -4 196 -12 27 -17 61 13 44 40 -15 24 -40 27 -52 6z"/>
<path d="M737 1263 c-13 -12 -7 -23 13 -23 13 0 18 5 14 15 -7 16 -17 19 -27
8z"/>
<path d="M881 1256 c-9 -10 -8 -16 3 -25 10 -9 16 -8 25 3 9 10 8 16 -3 25
-10 9 -16 8 -25 -3z"/>
<path d="M2122 1248 c-7 -7 -7 -14 1 -23 9 -9 14 -9 24 1 16 16 16 21 -1 27
-7 3 -18 1 -24 -5z"/>
<path d="M2262 1248 c5 -15 28 -18 29 -3 0 6 -7 12 -17 13 -10 3 -15 -1 -12
-10z"/>
<path d="M1183 1019 c-39 -11 -73 -53 -73 -89 0 -45 35 -79 102 -97 63 -18 79
-33 58 -58 -17 -20 -57 -18 -100 4 -34 18 -34 18 -52 -4 -10 -13 -18 -25 -18
-28 0 -12 93 -47 125 -47 74 0 133 59 120 120 -8 38 -20 46 -101 73 -75 24
-86 42 -43 66 24 13 30 13 66 -5 l40 -20 16 28 c16 27 15 28 -11 42 -39 20
-92 26 -129 15z"/>
<path d="M1855 1021 c-75 -19 -117 -74 -119 -155 -1 -100 71 -170 170 -163 91
6 148 68 148 162 1 109 -94 183 -199 156z m103 -83 c65 -71 11 -193 -77 -173
-75 16 -105 122 -48 171 37 32 95 33 125 2z"/>
<path d="M2110 863 l0 -163 36 0 37 0 -5 50 -5 50 49 0 c86 0 138 42 138 113
0 80 -30 100 -158 107 l-92 5 0 -162z m174 76 c28 -41 -5 -79 -68 -79 l-41 0
0 50 0 50 47 0 c36 0 50 -5 62 -21z"/>
<path d="M694 989 c3 -17 6 -89 6 -160 l0 -129 119 0 119 0 0 36 0 36 -89 -4
-89 -3 0 35 0 35 74 -3 73 -3 -1 30 -1 31 -72 0 -73 0 0 35 0 35 85 0 85 0 0
30 0 30 -121 0 -121 0 6 -31z"/>
<path d="M1400 860 l0 -160 35 0 35 0 0 65 0 65 73 0 72 0 -3 -65 -4 -65 36 0
36 0 0 160 0 160 -36 0 -35 0 2 -62 3 -63 -75 -3 -74 -3 3 66 4 65 -36 0 -36
0 0 -160z"/>
<path d="M960 845 l0 -35 60 1 60 1 0 34 0 34 -60 0 -60 0 0 -35z"/>
<path d="M1289 430 c-6 -4 5 -10 24 -14 49 -9 383 -9 437 1 l45 7 -35 7 c-47
9 -456 7 -471 -1z"/>
</g>
</svg>
