<?xml version="1.0" standalone="no"?>
<!DOCTYPE svg PUBLIC "-//W3C//DTD SVG 20010904//EN"
 "http://www.w3.org/TR/2001/REC-SVG-20010904/DTD/svg10.dtd">
<svg version="1.0" xmlns="http://www.w3.org/2000/svg"
 width="450.000000pt" height="450.000000pt" viewBox="0 0 450.000000 450.000000"
 preserveAspectRatio="xMidYMid meet">
<metadata>
Created by potrace 1.10, written by Peter Selinger 2001-2011
</metadata>
<g transform="translate(0.000000,450.000000) scale(0.050000,-0.050000)"
fill="#000000" stroke="none">
<path d="M1070 8864 c-110 -74 -286 -193 -390 -265 -105 -72 -222 -150 -262
-174 l-71 -44 -167 110 c-91 60 -170 105 -176 99 -13 -12 -27 0 162 -129 l155
-107 -162 -108 c-90 -60 -158 -114 -152 -120 6 -6 83 40 171 101 l159 112 277
-183 c152 -101 281 -188 286 -192 13 -10 -9 -26 -384 -273 -231 -152 -320
-201 -334 -183 -24 28 -182 119 -182 104 0 -5 41 -38 91 -73 l91 -62 -91 -71
c-143 -112 -121 -114 42 -3 73 50 86 53 108 25 14 -17 92 -76 172 -131 175
-121 187 -94 -144 -320 -148 -101 -269 -192 -269 -203 0 -10 17 -7 38 9 22 15
156 107 299 204 l260 177 207 -139 c113 -77 220 -146 236 -154 61 -29 -75 75
-246 189 l-175 118 125 85 c70 47 232 156 362 242 l236 156 90 -63 c50 -34 96
-57 101 -51 6 6 -25 36 -70 67 -103 71 -106 62 48 156 73 44 147 97 165 118
41 47 32 42 -174 -91 -81 -53 -158 -90 -170 -83 -46 27 -323 212 -339 227 -10
8 76 76 190 150 986 640 1388 909 1357 909 -16 0 -101 -48 -189 -108 -89 -59
-332 -219 -540 -355 -209 -136 -487 -319 -619 -407 l-240 -160 -281 187 c-155
102 -283 192 -284 200 -2 7 207 153 464 323 258 171 469 312 469 315 1 25 -82
-19 -250 -131z m220 -1183 c0 -10 -156 -121 -346 -247 l-347 -230 -169 121
c-93 66 -173 127 -178 136 -8 13 418 308 626 434 l67 40 173 -118 c96 -65 174
-127 174 -136z"/>
<path d="M3088 8885 c-89 -63 -205 -146 -257 -185 -53 -38 -151 -101 -218
-140 -160 -91 -694 -446 -685 -455 10 -9 169 86 444 266 128 83 247 157 265
164 18 7 83 49 143 95 61 46 200 144 310 219 233 158 225 151 188 151 -15 0
-101 -52 -190 -115z"/>
<path d="M3480 8984 c34 -16 112 -64 230 -144 106 -71 130 -84 130 -73 0 23
-322 233 -354 232 -29 -2 -30 -4 -6 -15z"/>
<path d="M4166 8863 c-111 -75 -325 -216 -474 -313 -239 -154 -307 -210 -258
-210 21 0 934 590 995 643 85 75 -102 -11 -263 -120z"/>
<path d="M5550 8569 c-363 -235 -707 -453 -765 -484 -99 -52 -132 -85 -84 -85
45 0 364 197 1056 655 521 343 524 345 482 344 -16 0 -326 -194 -689 -430z"/>
<path d="M6602 8790 c-314 -211 -389 -270 -348 -270 13 0 98 51 190 113 91 63
250 171 352 240 102 70 170 126 150 126 -20 -1 -175 -95 -344 -209z"/>
<path d="M7546 8972 c13 -33 13 -33 -777 -536 -765 -487 -725 -464 -803 -459
-60 4 -66 -1 -66 -51 0 -47 -25 -72 -155 -161 -296 -200 -388 -269 -376 -280
6 -7 129 68 273 166 144 99 283 193 308 209 25 17 66 46 93 67 26 20 164 109
307 197 281 174 844 535 1097 705 l157 105 125 -82 c68 -45 144 -94 169 -108
24 -14 38 -35 31 -46 -21 -34 -173 -138 -188 -129 -8 5 -14 -4 -14 -20 0 -42
10 -37 142 62 l118 89 52 -46 c28 -26 157 -117 288 -203 130 -86 229 -162 220
-170 -10 -8 -192 -125 -407 -261 -214 -135 -419 -273 -455 -307 -60 -57 -66
-58 -101 -26 -49 44 -64 42 -64 -8 0 -107 -91 -205 -279 -299 -215 -107 -281
-159 -281 -218 0 -28 -23 -178 -50 -332 -69 -392 -69 -397 30 -285 85 97 305
260 790 586 165 112 399 269 521 351 121 81 233 159 250 173 16 14 85 61 154
105 69 44 125 88 125 100 0 36 -33 21 -163 -76 -71 -53 -145 -103 -164 -110
-31 -12 -568 -381 -693 -476 -151 -115 -222 -159 -240 -148 -11 7 -15 0 -9
-14 5 -14 -8 -35 -30 -46 -21 -11 -116 -72 -211 -136 -231 -155 -263 -169
-302 -130 -37 37 -20 51 422 356 528 364 572 400 480 400 -34 0 -84 30 -144
86 l-91 87 203 128 c111 71 328 211 482 311 270 176 280 181 313 144 19 -20
96 -78 171 -127 76 -50 133 -97 128 -106 -5 -8 8 -14 29 -14 76 0 35 42 -146
153 -229 141 -229 125 -4 273 104 69 189 134 189 145 0 23 -105 -39 -293 -172
l-124 -88 -96 75 c-54 42 -180 129 -282 195 -225 146 -226 121 16 281 111 73
197 137 192 143 -12 12 -207 -113 -327 -210 l-85 -68 -75 46 c-265 162 -289
180 -265 209 19 23 17 29 -9 29 -17 0 -32 -11 -32 -24 0 -19 -5 -19 -24 0 -33
33 -63 30 -50 -4z m216 -1504 c33 -40 20 -51 -362 -316 -364 -253 -433 -294
-403 -237 13 23 26 72 30 108 9 82 62 126 393 326 263 159 299 171 342 119z"/>
<path d="M8169 8973 c21 -15 31 -36 24 -48 -8 -13 2 -17 27 -11 67 18 28 86
-48 86 -38 0 -38 -1 -3 -27z"/>
<path d="M4900 8840 c-24 -24 -40 -61 -36 -86 7 -47 -344 -298 -455 -326 -33
-8 -49 -24 -45 -45 8 -40 96 -58 96 -19 1 59 403 286 508 286 130 0 200 77
151 166 -41 73 -157 86 -219 24z m137 -18 c41 -26 20 -111 -29 -118 -60 -9
-97 42 -69 95 24 44 54 51 98 23z"/>
<path d="M6063 8597 c-26 -9 -51 -33 -56 -52 -5 -19 -88 -83 -183 -141 -96
-59 -250 -155 -344 -214 -93 -59 -245 -155 -336 -212 -175 -111 -221 -152
-142 -128 49 15 558 330 848 523 139 93 161 102 173 72 9 -22 1 -45 -20 -62
-78 -62 -624 -412 -743 -476 -162 -87 -184 -107 -115 -107 28 0 64 11 79 25
14 14 85 60 156 104 72 43 259 162 416 265 165 107 307 186 336 186 100 0 116
185 18 220 -22 8 -61 7 -87 -3z m88 -79 c24 -39 -44 -89 -80 -59 -41 34 -39
56 4 67 58 15 62 15 76 -8z"/>
<path d="M4149 8561 c16 -25 162 -121 184 -121 17 0 -103 92 -160 123 -28 15
-34 15 -24 -2z"/>
<path d="M7425 8527 c-14 -6 -25 -32 -25 -57 0 -39 -40 -71 -217 -178 -199
-120 -361 -245 -223 -172 28 14 136 82 241 150 157 101 203 122 254 115 55 -8
65 -2 76 43 20 80 -32 129 -106 99z"/>
<path d="M6977 8355 c-139 -91 -325 -210 -413 -265 -89 -55 -158 -103 -154
-106 20 -20 829 466 861 517 31 51 -65 3 -294 -146z"/>
<path d="M2644 8474 c41 -40 123 -94 143 -94 11 0 -18 27 -64 60 -86 62 -126
79 -79 34z"/>
<path d="M4980 8369 c0 -19 14 -29 33 -25 51 9 57 56 9 56 -25 0 -42 -13 -42
-31z"/>
<path d="M4200 8298 c-60 -41 -74 -56 -40 -47 44 13 160 87 160 103 0 18 -39
0 -120 -56z"/>
<path d="M2930 8274 c-8 -20 -12 -39 -7 -42 4 -3 57 -38 117 -76 61 -38 147
-107 193 -153 108 -108 135 -108 117 2 -8 47 -26 109 -40 139 -18 37 -19 56
-4 61 11 4 15 23 8 41 -16 43 -199 47 -277 6 -48 -25 -55 -24 -73 15 -18 40
-21 40 -34 7z"/>
<path d="M3370 8280 c-10 -17 55 -340 68 -340 13 0 50 60 147 235 32 58 55
106 52 107 -32 7 -262 6 -267 -2z"/>
<path d="M3655 8205 c-18 -41 -62 -122 -96 -180 -78 -132 -57 -133 79 -3 123
117 215 178 271 178 63 0 10 32 -93 57 -127 31 -122 33 -161 -52z"/>
<path d="M1681 8156 c-47 -50 -49 -63 -20 -118 60 -113 218 -67 219 63 0 103
-123 137 -199 55z"/>
<path d="M2605 8147 c-80 -28 -145 -59 -145 -70 0 -11 11 -13 25 -5 14 8 3 -9
-23 -38 l-48 -53 67 19 c106 31 359 164 347 183 -16 26 -65 18 -223 -36z"/>
<path d="M4115 8177 c25 -13 45 -31 45 -40 0 -9 14 -17 31 -17 17 0 53 -22 81
-50 27 -27 67 -50 87 -50 50 0 101 -20 101 -41 0 -9 -27 -8 -60 1 -136 39 -37
-59 120 -118 148 -56 149 -56 88 53 -68 119 -83 131 -256 202 -148 61 -327
106 -237 60z"/>
<path d="M6060 8160 c0 -45 39 -53 76 -16 37 37 29 56 -26 56 -37 0 -50 -11
-50 -40z"/>
<path d="M3806 8091 c-147 -107 -210 -187 -79 -101 63 41 268 110 331 111 l52
0 -47 40 c-71 58 -122 48 -257 -50z"/>
<path d="M2801 8108 c-116 -62 -125 -108 -20 -108 43 0 122 -18 177 -39 98
-39 302 -76 302 -55 0 6 -56 46 -125 90 -69 43 -142 98 -163 121 -46 52 -57
51 -171 -9z"/>
<path d="M2300 8023 c-198 -120 -223 -139 -197 -148 51 -18 337 142 337 188 0
30 -48 16 -140 -40z"/>
<path d="M4020 8046 c-27 -5 -59 -18 -69 -28 -10 -10 -34 -18 -53 -18 -58 0
-247 -65 -278 -96 -27 -26 -24 -28 20 -16 28 8 109 23 180 34 270 41 420 84
397 112 -21 25 -96 30 -197 12z"/>
<path d="M6887 7999 c-387 -76 -577 -255 -628 -592 -42 -275 12 -315 79 -59
81 305 158 389 482 524 269 112 257 105 219 129 -33 21 -38 21 -152 -2z"/>
<path d="M2619 7959 c-16 -10 -60 -14 -99 -9 -54 7 -59 6 -20 -6 63 -20 14
-44 -88 -44 -36 0 -112 -14 -169 -31 -57 -17 -112 -26 -122 -20 -10 7 -25 -9
-32 -34 -8 -25 -29 -56 -47 -69 -21 -16 -23 -25 -7 -25 14 -1 25 -10 25 -22 0
-11 -15 -18 -33 -15 -22 4 -39 -14 -49 -53 -22 -78 -17 -79 61 -22 36 27 91
54 122 61 47 11 80 44 87 90 1 6 21 36 45 65 52 67 104 76 58 11 -44 -64 -41
-103 7 -77 44 24 513 120 595 123 l57 1 -70 27 c-38 15 -104 28 -146 28 -42 1
-92 10 -111 21 -21 11 -47 11 -64 0z"/>
<path d="M4130 7951 c-59 -27 -58 -28 59 -29 108 -2 115 1 80 27 -48 36 -63
37 -139 2z"/>
<path d="M4640 7966 c1 -48 90 -138 207 -206 156 -91 179 -63 45 53 -96 83
-252 178 -252 153z"/>
<path d="M6857 7844 c-292 -131 -338 -168 -416 -334 -69 -145 -119 -354 -88
-364 12 -4 38 -21 59 -37 23 -17 -4 -12 -66 13 l-104 43 -86 -50 c-47 -27
-200 -120 -339 -207 -326 -204 -609 -376 -1474 -893 -561 -335 -700 -426 -670
-439 30 -14 27 -15 -11 -8 -40 8 -438 -197 -482 -248 -5 -7 -88 -46 -183 -88
-253 -112 -356 -233 -358 -422 l0 -60 -40 47 -39 47 0 -54 c0 -52 101 -292
325 -770 59 -126 125 -261 146 -299 22 -38 116 -218 209 -400 l170 -331 120
-64 120 -65 -130 -3 c-342 -6 -350 -7 -344 -36 8 -37 -127 -16 -175 27 -19 17
-57 31 -84 31 -28 0 -94 13 -148 29 -53 16 -101 25 -106 20 -5 -5 0 -9 11 -9
11 0 54 -26 94 -59 126 -100 312 -151 390 -107 57 32 67 33 88 5 27 -33 375
-25 434 10 26 16 26 14 3 -14 -40 -51 -141 -75 -273 -66 -90 6 -129 0 -155
-24 -33 -29 -42 -29 -106 2 -94 44 -136 42 -159 -11 -11 -25 -83 -80 -160
-123 -77 -42 -293 -174 -480 -293 -354 -224 -1157 -722 -1354 -841 -109 -65
-141 -99 -96 -99 18 0 178 95 610 361 66 40 381 238 700 439 826 521 795 504
881 468 39 -16 78 -25 88 -19 9 6 27 -2 39 -17 18 -21 -24 -56 -213 -173 -129
-81 -361 -228 -515 -329 -154 -100 -365 -235 -469 -301 -105 -65 -348 -223
-540 -350 -193 -126 -400 -262 -461 -302 l-110 -71 -114 81 -115 80 60 36 c32
20 59 42 59 48 0 7 -32 -8 -71 -32 l-71 -44 -44 40 c-24 23 -107 82 -184 133
-77 50 -202 137 -278 192 -77 55 -143 95 -149 90 -12 -12 -24 -2 152 -129 80
-57 145 -114 145 -126 0 -12 6 -16 12 -9 14 14 308 -179 307 -202 -1 -14 -247
-182 -490 -333 -70 -44 -124 -83 -119 -87 8 -9 168 87 468 282 l180 116 110
-73 110 -73 -60 -51 c-117 -98 -37 -67 175 68 119 75 239 156 267 180 29 24
92 66 141 92 49 27 247 150 439 274 193 125 427 275 520 335 94 60 265 170
380 246 439 287 586 363 639 331 61 -38 -52 -117 -1540 -1071 -278 -179 -335
-208 -357 -185 -71 76 -229 -28 -180 -118 37 -71 198 -63 198 9 0 14 119 101
265 194 412 261 1044 671 1270 823 113 76 205 132 205 125 0 -7 14 -1 31 13
17 14 30 17 28 7 -25 -132 87 -132 120 0 49 198 202 431 321 492 108 55 124
50 35 -11 -65 -43 -111 -94 -55 -59 26 16 25 -3 -2 -54 -19 -36 -18 -40 10
-30 17 7 32 3 32 -8 0 -11 34 12 75 51 85 82 405 305 685 478 105 64 262 165
350 223 184 122 353 229 725 463 400 251 379 239 345 203 -32 -34 -880 -584
-1350 -877 -735 -457 -884 -608 -960 -975 -33 -158 -18 -331 40 -472 42 -98
21 -91 -35 13 -75 141 -66 476 17 669 57 130 59 143 25 140 -20 -1 -37 -9 -37
-16 0 -8 -22 -35 -50 -61 -27 -26 -49 -62 -50 -81 0 -18 -8 -39 -18 -45 -23
-14 -4 70 24 104 11 14 15 31 9 37 -20 19 -96 -167 -115 -280 -45 -279 48
-491 270 -616 77 -44 144 -90 148 -103 18 -52 218 -215 302 -245 150 -54 215
-87 172 -88 -33 0 -32 -6 14 -52 31 -30 62 -45 76 -37 15 9 19 7 11 -6 -20
-32 159 -145 228 -145 65 0 71 9 34 51 -59 66 -75 89 -75 108 0 23 -21 27
-100 22 -40 -2 -44 1 -20 18 25 18 23 23 -15 33 -24 7 -40 21 -34 30 6 10 -3
18 -21 18 -18 0 -27 9 -19 21 8 13 38 2 79 -30 37 -28 72 -51 78 -51 14 0 480
-328 582 -410 44 -35 155 -112 248 -171 l168 -106 -58 -49 c-68 -56 -485 -332
-528 -349 -24 -10 -25 -12 -2 -13 39 -3 213 98 388 222 176 126 246 175 913
633 291 201 538 361 550 356 12 -4 155 -97 319 -206 163 -108 343 -227 400
-264 301 -199 495 -348 475 -368 -12 -12 -52 -40 -90 -63 -180 -110 -452 -300
-443 -309 5 -5 138 76 294 180 l284 190 231 -163 c243 -173 319 -219 333 -204
8 7 -132 108 -435 310 l-99 67 76 54 c132 95 505 343 515 343 6 0 72 -45 147
-100 76 -55 143 -100 151 -100 30 0 10 35 -32 55 -25 12 -89 53 -143 91 l-97
71 142 104 c79 57 143 113 143 124 0 13 -9 13 -25 1 -14 -11 -81 -62 -149
-113 l-125 -94 -145 94 c-293 189 -552 351 -696 434 -49 29 -117 74 -149 100
l-60 48 -56 -60 c-46 -50 -66 -58 -120 -48 -57 10 -60 8 -27 -13 22 -13 72
-53 113 -89 41 -36 85 -65 98 -65 13 0 19 -8 13 -17 -6 -10 21 -55 60 -100 70
-82 135 -106 155 -58 8 20 10 20 11 0 3 -38 29 -30 59 18 23 37 23 41 -4 31
-21 -8 -28 -3 -20 17 7 18 -1 29 -21 29 -21 0 -32 17 -32 49 0 26 -11 60 -25
75 -83 88 -70 93 45 19 72 -46 272 -171 445 -277 173 -107 315 -200 314 -205
0 -6 -64 -50 -141 -99 -78 -48 -207 -134 -287 -192 l-146 -105 -60 47 c-128
100 -1291 878 -1685 1127 -584 369 -934 621 -899 647 5 3 99 63 209 134 110
70 209 136 220 147 45 43 -68 -15 -232 -118 l-173 -109 -77 32 -78 32 45 -48
c61 -66 65 -59 -108 -174 l-152 -102 -78 44 c-42 24 -78 48 -80 55 -1 6 -5 61
-9 121 -4 61 -11 144 -16 186 -9 76 1 91 75 101 16 3 55 34 86 69 31 35 71 64
89 64 32 0 56 31 50 65 -2 17 145 95 181 95 13 0 54 41 89 90 81 113 85 112
143 -15 69 -149 131 -214 298 -314 81 -48 154 -99 163 -114 9 -15 45 -42 80
-59 35 -18 199 -122 364 -230 165 -109 426 -276 580 -373 l280 -175 5 -90 c4
-81 2 -86 -20 -45 -14 24 -151 122 -305 218 -224 138 -863 546 -1130 722 -45
30 -44 26 10 -32 74 -81 333 -253 1055 -703 279 -174 271 -148 80 -265 -178
-110 -264 -174 -234 -175 12 0 113 62 225 138 l205 139 57 -49 c90 -75 169
-83 231 -21 84 84 34 198 -84 190 -38 -2 -141 51 -335 173 -282 177 -790 509
-790 516 0 2 70 6 155 10 227 8 221 6 234 78 9 44 24 66 47 66 27 1 28 4 7 18
-29 18 3 112 33 96 8 -5 134 -73 280 -153 146 -81 271 -140 278 -133 17 16 27
9 -224 148 -227 126 -382 231 -330 222 42 -6 140 37 140 62 0 11 -10 20 -22
20 -34 0 15 52 96 102 l69 43 64 -47 c115 -86 359 -246 643 -424 154 -96 306
-195 339 -221 l59 -47 -127 -81 c-122 -77 -129 -79 -165 -46 -21 20 -87 69
-147 111 l-109 75 -42 -52 c-30 -39 -59 -53 -111 -53 l-70 0 66 -54 c37 -30
105 -88 152 -130 l84 -76 -74 -49 c-101 -66 -179 -130 -159 -131 9 0 67 35
130 78 63 43 222 149 354 237 l240 159 80 -58 c165 -122 658 -434 668 -424 6
5 2 16 -9 24 -11 8 -168 112 -350 231 -181 120 -337 225 -346 234 -10 8 146
124 345 258 199 133 362 250 362 260 0 19 -332 -193 -594 -379 l-144 -102
-196 129 c-108 70 -281 181 -386 246 -236 146 -494 320 -508 345 -7 10 44 53
113 97 876 556 1713 1122 1714 1159 1 13 -69 -26 -154 -87 -143 -103 -478
-325 -1379 -915 l-344 -225 -62 49 -62 49 41 44 c23 24 35 51 26 60 -8 9 8 6
35 -7 32 -16 14 9 -50 70 l-100 94 -13 -178 c-7 -98 -19 -198 -27 -223 -20
-60 9 -57 64 8 38 44 54 50 90 34 40 -19 37 -23 -50 -65 -51 -25 -100 -41
-109 -35 -9 6 -28 -16 -42 -48 -44 -98 -199 -253 -307 -307 -473 -236 -817
349 -502 853 25 41 41 75 35 75 -10 0 -439 -273 -1074 -683 -74 -48 -198 -123
-275 -167 -161 -92 -158 -87 -75 -140 146 -92 217 -393 145 -612 -206 -628
-865 -659 -991 -47 -77 370 172 771 661 1065 134 81 288 179 1111 706 634 406
582 360 592 534 10 168 9 169 -152 67 -66 -43 -202 -127 -301 -188 -347 -212
-764 -473 -1238 -772 -783 -496 -727 -518 -1206 457 -625 1270 -646 1134 254
1665 572 337 631 373 1110 669 187 116 439 269 560 340 121 71 288 173 370
225 235 151 718 431 849 494 l118 57 32 131 c32 132 79 216 164 291 99 88 433
280 557 321 141 46 144 42 -60 86 -123 27 -101 33 -383 -95z m-4093 -3084 c20
0 36 -13 36 -30 0 -33 -31 -41 -49 -12 -6 10 -29 14 -51 8 -43 -12 -47 -6 -27
44 9 23 19 26 34 11 11 -11 37 -21 57 -21z m1214 -2257 c-11 -32 -50 -90 -86
-130 -37 -39 -62 -76 -57 -82 6 -5 0 -35 -12 -65 -12 -31 -24 -90 -27 -132 -6
-101 -31 -113 -47 -25 -16 83 -1 178 41 258 17 32 30 75 30 95 0 25 14 38 40
38 22 0 40 13 40 29 0 27 51 69 84 70 8 1 5 -25 -6 -56z m1883 -665 c126 -84
384 -249 574 -368 190 -118 345 -221 345 -229 0 -9 -74 -62 -165 -119 -91 -57
-241 -158 -335 -224 -93 -66 -251 -175 -350 -243 -99 -67 -214 -147 -255 -177
l-75 -54 -185 121 c-102 67 -252 171 -335 232 -160 117 -226 165 -454 326
-147 104 -169 185 -41 146 44 -13 45 -13 5 20 -22 19 -29 29 -16 22 13 -6 29
-2 36 10 10 14 22 14 42 -2 22 -19 28 -17 28 9 0 17 -10 32 -23 32 -12 0 3 20
35 45 31 25 64 43 73 40 8 -3 15 5 15 16 0 12 9 16 20 9 12 -7 21 15 22 54 0
36 6 55 11 41 6 -14 20 -25 31 -25 11 0 15 14 9 30 -7 18 0 30 16 30 28 0 31
33 6 73 -35 55 73 86 147 43 59 -36 55 -28 -35 61 l-103 102 91 60 92 61 71
-43 c40 -24 137 -78 217 -122 80 -43 145 -91 145 -107 0 -16 23 -38 52 -49 28
-11 57 -37 62 -59 6 -22 21 -40 34 -40 12 0 34 -18 47 -40 14 -22 43 -40 65
-40 22 0 40 -9 40 -20 0 -11 10 -20 21 -20 12 0 16 8 10 19 -7 11 12 12 49 1
49 -14 60 -11 60 15 0 17 -5 26 -12 20 -7 -7 -48 21 -92 61 -101 94 -196 155
-196 126 0 -12 -10 -22 -22 -22 -16 0 -15 9 2 30 39 47 8 130 -48 130 -26 0
-53 -13 -59 -30 -12 -30 -31 -21 -317 155 l-94 58 143 97 144 96 112 -103 c61
-57 214 -172 340 -255z m-873 112 c-93 -56 -92 -57 -64 35 l22 73 59 -31 60
-31 -77 -46z m628 -193 c-9 -64 -56 -71 -56 -9 0 34 11 52 31 52 21 0 30 -15
25 -43z m-4176 -596 c0 -55 -34 -69 -59 -23 -29 54 -27 62 19 62 26 0 40 -13
40 -39z"/>
<path d="M5120 1652 c0 -16 223 -156 233 -146 6 6 -40 43 -102 82 -108 70
-131 81 -131 64z"/>
<path d="M5780 7913 c-187 -99 -511 -329 -491 -349 9 -8 480 295 560 360 31
26 -14 19 -69 -11z"/>
<path d="M1990 7835 c-153 -110 -291 -244 -303 -292 -7 -29 -24 -66 -37 -83
-32 -38 -95 -162 -86 -169 16 -15 336 275 336 306 0 18 31 81 68 138 113 171
112 165 22 100z"/>
<path d="M3765 7864 c-113 -7 -147 -44 -40 -44 157 -1 275 -25 275 -58 0 -44
299 -171 370 -157 28 5 47 5 42 0 -11 -11 120 -105 146 -105 10 0 29 -15 44
-33 30 -36 -50 -23 -91 15 -10 10 -36 18 -57 18 -57 0 -13 -45 85 -89 81 -37
181 -29 120 10 -23 14 -20 18 16 19 36 0 45 11 45 58 0 56 -185 142 -306 142
-16 0 -39 12 -51 27 -13 14 -73 38 -135 52 -82 18 -106 31 -90 47 16 16 51 16
127 0 122 -25 126 -24 91 33 -36 59 -264 84 -591 65z"/>
<path d="M3365 7838 c-129 -38 -64 -151 76 -132 143 19 186 94 76 132 -71 25
-65 25 -152 0z"/>
<path d="M4380 7842 c0 -56 89 -141 188 -181 111 -45 174 -41 109 7 -32 23
-32 26 0 46 22 15 26 29 13 42 -24 24 -310 104 -310 86z"/>
<path d="M2980 7829 c-16 -3 -102 -16 -190 -29 -447 -66 -508 -91 -509 -203
-1 -76 32 -78 163 -13 103 50 472 167 654 206 49 10 60 19 40 32 -27 17 -95
20 -158 7z"/>
<path d="M8280 7810 c-29 -35 -13 -90 27 -90 49 0 82 55 53 90 -31 38 -49 38
-80 0z"/>
<path d="M7226 7732 c-55 -37 -156 -97 -226 -132 -268 -135 -304 -186 -349
-488 -17 -120 -46 -282 -62 -360 -17 -78 -39 -196 -49 -262 -10 -66 -37 -228
-59 -360 -22 -132 -68 -433 -102 -669 -34 -237 -65 -435 -70 -442 -25 -41 -76
-596 -77 -849 l-2 -300 -250 -155 c-244 -151 -368 -231 -880 -563 -137 -89
-347 -221 -465 -292 -548 -330 -744 -583 -744 -960 -1 -410 294 -615 598 -413
473 314 327 1149 -157 894 -62 -32 -112 -52 -112 -43 0 32 95 102 220 160 147
68 237 124 900 551 259 167 559 357 668 422 108 65 239 156 290 202 l92 82 12
268 c6 147 31 375 54 507 39 224 68 414 166 1090 22 149 53 351 69 450 16 99
43 270 60 380 33 207 69 401 107 588 12 59 22 136 22 171 0 76 94 145 340 250
217 93 309 214 229 302 -51 56 -111 48 -223 -29z m-2666 -5490 c152 -110 97
-488 -89 -609 -221 -146 -429 -26 -431 248 -1 288 316 509 520 361z"/>
<path d="M4277 2179 c-247 -130 -233 -539 19 -539 171 0 333 254 283 444 -36
134 -157 172 -302 95z m99 -143 c52 -52 6 -176 -66 -176 -42 0 -90 58 -90 107
0 56 36 93 90 93 23 0 53 -11 66 -24z"/>
<path d="M2980 7709 c-82 -27 -160 -49 -173 -49 -12 0 -28 -14 -35 -32 -9 -22
-27 -29 -60 -20 -33 8 -71 -5 -125 -42 -42 -30 -117 -59 -165 -65 -133 -17
-158 -100 -65 -219 l37 -47 128 100 c146 114 322 225 538 343 169 92 141 103
-80 31z"/>
<path d="M3660 7750 c0 -5 61 -40 135 -78 74 -37 185 -112 246 -165 60 -53
150 -128 200 -167 49 -38 110 -95 136 -125 26 -30 57 -49 70 -42 13 7 16 6 8
-3 -45 -49 50 -90 109 -47 104 74 110 177 13 208 -43 14 -257 144 -277 168
-56 69 -640 298 -640 251z"/>
<path d="M4769 7676 c23 -79 289 -285 323 -250 32 31 -63 179 -140 217 -45 23
-106 59 -135 80 -73 51 -76 48 -48 -47z"/>
<path d="M5066 7661 c28 -33 56 -96 64 -140 13 -80 106 -192 232 -283 l56 -39
-31 89 c-22 66 -56 110 -129 165 -99 76 -133 127 -56 86 83 -44 238 -211 238
-256 0 -51 69 -263 113 -348 16 -32 26 -68 21 -81 -4 -13 -24 8 -45 46 l-37
70 -15 -99 c-18 -121 -14 -126 57 -76 31 21 73 45 93 52 110 40 -72 385 -346
657 -202 200 -330 294 -215 157z"/>
<path d="M3069 7605 c-89 -52 -188 -116 -220 -141 -32 -25 -108 -78 -169 -117
-236 -154 -256 -194 -147 -285 87 -71 97 -67 205 78 87 117 480 520 506 520 9
0 16 9 16 20 0 33 -22 24 -191 -75z"/>
<path d="M6035 7595 c-147 -89 -366 -224 -473 -293 -15 -10 -20 -28 -12 -42 8
-13 21 -16 28 -7 15 22 387 257 547 347 63 35 120 72 126 82 26 42 -53 11
-216 -87z"/>
<path d="M3736 7503 c174 -193 254 -311 375 -548 55 -108 90 -155 116 -155 50
0 274 175 262 206 -29 74 -407 383 -643 524 -90 54 -159 104 -155 112 8 12
-56 37 -97 38 -9 0 55 -80 142 -177z"/>
<path d="M8007 7630 c-16 -41 6 -90 40 -90 41 0 76 50 61 87 -15 41 -85 43
-101 3z"/>
<path d="M2063 7580 c-157 -86 -163 -94 -163 -201 0 -129 14 -132 146 -28 62
49 121 89 131 89 26 0 43 52 43 132 0 84 -18 85 -157 8z"/>
<path d="M3111 7460 c-98 -99 -172 -180 -165 -180 14 0 8 -9 -126 -162 -44
-51 -80 -106 -80 -121 0 -16 -27 -55 -60 -87 -33 -32 -60 -66 -60 -76 0 -10
-17 -39 -38 -66 -40 -50 -36 -128 6 -128 13 0 88 61 167 135 79 74 176 166
217 204 40 38 87 101 104 140 16 39 33 60 38 47 5 -13 -6 -51 -23 -84 -18 -34
-31 -67 -30 -73 0 -6 -44 -49 -100 -94 -56 -45 -101 -94 -101 -109 0 -14 -10
-26 -22 -26 -13 0 -68 -33 -124 -74 l-101 -75 168 -42 c217 -56 262 -33 162
81 -35 39 -63 81 -63 92 0 36 42 -4 98 -93 l55 -85 25 150 c21 126 21 154 -1
168 -22 14 -21 17 4 18 21 0 45 48 76 153 25 84 77 235 116 335 40 100 76 193
81 207 28 69 -63 6 -223 -155z"/>
<path d="M3352 7475 c-31 -91 -69 -196 -86 -235 -16 -38 -64 -202 -106 -364
-97 -373 -100 -367 210 -351 251 13 278 28 259 143 -49 308 -185 932 -208 957
-7 8 -38 -59 -69 -150z m63 -420 c-7 -40 -10 -41 -24 -10 -8 19 -8 60 0 90 19
66 38 2 24 -80z m18 -117 c68 -42 90 -71 38 -51 -15 6 -39 -2 -52 -18 -34 -41
-99 -1 -99 62 0 60 25 62 113 7z m-113 -147 c0 -15 -29 -49 -64 -74 l-65 -46
60 74 c67 84 69 86 69 46z"/>
<path d="M3520 7535 c51 -156 119 -465 157 -718 42 -282 45 -284 270 -211 201
66 225 107 140 244 -27 44 -95 157 -150 250 -55 94 -120 189 -144 211 -23 23
-92 106 -152 185 -132 175 -170 187 -121 39z m397 -736 c47 -46 60 -70 45 -85
-16 -16 -34 -9 -63 22 -22 24 -51 44 -65 45 -13 0 -38 31 -56 69 l-32 68 52
-28 c29 -15 82 -56 119 -91z"/>
<path d="M4780 7473 c0 -48 14 -78 45 -101 l45 -33 -45 21 c-76 36 -55 -31 30
-93 41 -31 105 -81 141 -112 85 -71 104 -58 104 74 l0 107 -135 87 c-74 47
-146 94 -160 103 -18 12 -25 -2 -25 -53z"/>
<path d="M1526 7415 c-117 -122 -226 -273 -226 -312 0 -19 -40 -124 -90 -234
-49 -109 -90 -230 -91 -269 -3 -105 -32 -166 -51 -103 -10 35 -18 40 -30 20
-24 -37 -22 18 2 73 17 40 17 40 21 0 1 -22 16 19 31 90 16 72 45 153 65 180
52 70 80 169 32 110 -201 -246 -548 -1290 -429 -1290 11 0 21 38 21 85 1 54 7
72 16 50 12 -32 27 23 90 335 6 27 10 21 13 -20 l5 -60 17 60 c13 47 15 39 7
-38 -5 -54 -17 -108 -27 -120 -41 -49 -65 -274 -41 -376 32 -132 46 -107 89
154 20 121 53 268 73 326 19 58 31 131 25 161 -16 77 43 216 78 186 39 -32 88
64 113 222 12 73 31 153 42 179 17 39 18 36 9 -24 -6 -38 -16 -106 -23 -150
l-11 -80 72 104 c39 56 80 109 92 116 33 20 23 70 -15 70 -30 1 -30 5 8 35 32
27 45 67 55 172 l14 137 -66 -45 -66 -45 73 78 c40 43 88 110 107 148 19 39
49 86 66 105 65 75 7 50 -70 -30z m-544 -1068 c-23 -64 -41 -103 -41 -87 -1
36 64 222 74 212 4 -4 -11 -60 -33 -125z"/>
<path d="M1740 7375 c-38 -36 -95 -78 -125 -93 -74 -39 -145 -362 -79 -362 76
0 288 281 298 397 13 141 3 147 -94 58z"/>
<path d="M2165 7358 c-19 -23 -72 -59 -118 -79 -111 -48 -124 -97 -57 -211 78
-133 100 -133 222 1 l105 116 -38 98 c-22 54 -39 103 -39 108 0 24 -44 5 -75
-33z m20 -239 c-36 -32 -80 -59 -98 -59 -20 0 -2 23 45 59 102 76 136 77 53 0z"/>
<path d="M6130 7366 c-33 -17 -143 -85 -245 -151 -162 -104 -190 -116 -218
-92 -31 25 -31 23 -5 -18 38 -61 33 -63 274 94 296 193 385 269 194 167z"/>
<path d="M5178 7189 c-4 -193 -5 -188 99 -294 137 -139 144 -134 152 98 2 60
0 63 -63 52 -52 -8 -66 -3 -66 22 0 20 16 33 40 33 60 0 50 22 -60 130 l-100
98 -2 -139z"/>
<path d="M8186 7295 c-11 -14 -25 -39 -31 -57 -6 -18 -64 -62 -128 -98 -64
-36 -261 -162 -437 -280 -176 -118 -402 -265 -502 -327 -246 -151 -263 -168
-277 -273 -9 -66 -7 -81 8 -57 12 18 86 76 166 129 80 52 343 225 585 384 242
159 479 315 526 346 47 32 96 58 110 58 48 0 114 62 114 107 0 80 -90 126
-134 68z"/>
<path d="M8961 7285 c4 -82 36 -117 38 -40 0 41 -8 75 -19 75 -11 0 -19 -16
-19 -35z"/>
<path d="M4682 7126 c-67 -122 -73 -146 -41 -146 12 0 15 -10 7 -23 -9 -15 -5
-18 9 -9 15 10 35 -11 54 -57 17 -40 39 -67 49 -61 11 7 15 0 9 -15 -6 -15 8
-44 30 -64 22 -20 35 -44 29 -54 -21 -35 31 -16 88 33 33 27 74 86 92 130 19
50 45 80 67 81 27 1 25 6 -10 20 -29 11 -45 35 -45 67 0 38 -28 66 -130 130
-158 100 -135 104 -208 -32z m253 -211 c-30 -10 -55 -27 -55 -37 0 -11 -28 -4
-63 14 -79 41 -49 61 77 50 89 -7 92 -9 41 -27z"/>
<path d="M1794 7081 c-18 -30 -67 -87 -108 -125 -120 -111 -152 -183 -105
-237 21 -24 43 -63 50 -86 36 -132 84 -165 135 -93 15 22 34 34 41 27 7 -8 13
6 13 30 0 24 8 43 18 43 23 0 182 207 182 239 0 31 -142 237 -172 249 -12 4
-36 -17 -54 -47z m78 -301 c-16 -71 -30 -105 -30 -75 -2 38 -13 55 -37 56 -32
0 -32 2 -3 19 19 11 45 74 60 145 25 110 29 117 33 55 3 -38 -7 -128 -23 -200z"/>
<path d="M2263 7031 c-126 -133 -127 -128 4 -225 119 -89 233 -101 233 -24 0
21 7 38 16 38 30 0 93 127 67 136 -14 4 -62 47 -107 96 -102 109 -90 110 -213
-21z"/>
<path d="M8664 7065 c4 -19 20 -35 36 -35 16 0 32 16 36 35 5 25 -6 35 -36 35
-30 0 -41 -10 -36 -35z"/>
<path d="M5684 6975 c13 -41 30 -75 39 -75 29 0 18 48 -23 100 l-39 50 23 -75z"/>
<path d="M6380 6931 c-94 -48 -314 -174 -490 -281 -176 -108 -414 -251 -530
-319 -221 -131 -695 -420 -830 -508 -44 -28 -354 -215 -690 -416 -953 -568
-940 -559 -940 -699 0 -111 769 -1687 849 -1739 122 -80 134 -74 1211 611 215
137 326 205 890 549 263 161 288 183 309 278 22 95 43 102 -329 -108 -119 -67
-482 -286 -590 -355 -60 -39 -222 -138 -360 -220 -137 -81 -335 -204 -440
-273 -627 -412 -583 -425 -900 269 -58 127 -176 380 -262 563 -87 184 -160
351 -163 372 -5 42 147 185 198 185 53 0 252 113 1037 594 198 121 477 290
620 377 143 86 400 242 570 346 171 104 449 273 619 377 382 232 376 225 392
359 18 140 26 138 -171 38z"/>
<path d="M4512 6922 c-21 -23 -81 -70 -135 -104 -118 -76 -121 -103 -34 -306
89 -208 110 -216 256 -94 66 54 138 105 160 112 81 25 27 153 -159 374 l-51
59 -37 -41z m-9 -252 c6 6 24 -5 39 -25 26 -32 25 -33 -11 -5 -36 28 -37 27
-23 -10 8 -22 19 -56 23 -75 4 -19 11 -42 16 -51 6 -9 -8 -17 -29 -19 -41 -3
-81 64 -64 108 5 13 -1 29 -13 36 -24 15 -28 97 -6 119 8 8 24 -8 36 -37 12
-29 26 -47 32 -41z"/>
<path d="M8385 6895 c-44 -36 -105 -84 -137 -108 -98 -72 -42 -70 73 2 169
106 201 132 188 152 -19 31 -41 23 -124 -46z"/>
<path d="M8780 6897 c-60 -33 -263 -160 -450 -282 -557 -364 -614 -400 -750
-476 -71 -40 -279 -166 -462 -281 -182 -114 -349 -218 -370 -230 -42 -25 -65
-148 -27 -148 12 0 27 18 33 40 6 21 66 75 133 118 68 44 173 114 233 156 106
75 257 168 740 457 434 259 1060 667 1060 691 0 27 -20 21 -140 -45z"/>
<path d="M5071 6819 c-29 -55 -50 -113 -47 -128 3 -15 -19 -50 -49 -78 -49
-45 -52 -57 -32 -102 28 -62 28 -62 127 -2 44 27 121 72 170 99 50 28 101 58
115 67 26 18 -168 245 -210 245 -11 0 -45 -45 -74 -101z"/>
<path d="M7860 6778 c-82 -56 -164 -114 -182 -129 -17 -16 -41 -29 -53 -29
-13 0 -165 -93 -339 -206 -174 -114 -358 -230 -408 -259 -71 -41 -96 -69 -105
-117 -28 -136 -85 -166 848 454 380 253 473 329 450 367 -22 36 -55 23 -211
-81z"/>
<path d="M2029 6768 c-36 -40 -77 -99 -90 -130 -13 -32 -32 -58 -41 -58 -26 0
-78 -112 -78 -169 0 -40 30 -73 135 -151 249 -185 296 -164 260 113 l-23 184
-131 -66 c-156 -79 -221 -100 -221 -75 0 11 25 24 55 30 154 32 287 133 273
209 -10 50 -7 67 9 57 13 -8 23 -31 23 -52 0 -53 20 -59 96 -27 l67 28 -107
73 c-58 40 -109 80 -113 89 -13 33 -49 16 -114 -55z"/>
<path d="M8950 6760 c-20 -22 -49 -40 -65 -40 -16 0 -187 -102 -382 -227 -194
-124 -465 -294 -603 -377 -365 -221 -650 -397 -814 -502 -208 -134 -368 -215
-391 -201 -12 7 -15 4 -8 -9 8 -11 5 -27 -7 -34 -11 -7 -19 -41 -18 -76 2 -35
6 -50 11 -34 5 17 78 70 163 120 85 49 213 129 284 177 72 48 252 162 400 253
149 90 356 219 460 286 105 67 289 184 410 260 457 287 610 392 610 418 0 35
-7 33 -50 -14z"/>
<path d="M644 6763 c-14 -9 -22 -29 -18 -45 4 -15 4 -21 -1 -13 -14 26 -45 -5
-45 -46 0 -21 23 -53 50 -71 106 -70 210 88 106 161 -51 35 -57 36 -92 14z"/>
<path d="M1437 6725 c-184 -219 -297 -507 -230 -582 18 -20 33 -43 33 -52 0
-9 32 -69 71 -133 82 -135 149 -141 144 -13 -2 36 5 91 14 123 12 41 10 54 -5
44 -12 -7 -31 5 -43 26 -23 44 3 75 42 50 17 -10 20 13 11 84 -6 56 1 160 18
241 37 184 10 290 -55 212z m-67 -485 c-32 -33 -67 -60 -78 -60 -11 0 11 31
48 70 37 38 72 65 77 59 6 -5 -16 -36 -47 -69z"/>
<path d="M8065 6737 c-58 -58 5 -166 72 -124 49 31 44 135 -7 143 -22 3 -52
-6 -65 -19z"/>
<path d="M6419 6600 c-28 -21 -114 -71 -190 -111 -173 -91 -189 -105 -175
-143 42 -108 -73 -534 -128 -478 -11 11 49 378 71 436 l21 55 -69 -34 -70 -33
6 -326 c3 -179 10 -326 15 -326 18 0 168 104 222 154 37 34 77 49 135 50 94 1
123 57 123 236 0 50 9 122 21 160 23 78 81 385 74 392 -3 3 -28 -12 -56 -32z"/>
<path d="M2275 6598 c-37 -21 -49 -193 -22 -295 12 -45 143 217 146 292 1 30
-75 32 -124 3z"/>
<path d="M4141 6476 c-49 -152 -238 -526 -257 -507 -6 6 44 126 112 266 149
311 170 365 142 365 -60 0 -384 -113 -393 -137 -7 -16 4 -129 23 -251 46 -293
85 -321 330 -243 33 11 43 8 33 -7 -8 -13 51 16 131 63 178 104 178 106 77
222 -45 51 -73 93 -62 93 11 0 24 -11 29 -25 7 -18 13 -15 23 8 15 35 -94 297
-124 297 -9 0 -38 -65 -64 -144z m99 -196 c47 -47 50 -60 11 -60 -32 0 -60
-69 -41 -99 6 -11 -15 -5 -49 14 -76 44 -79 73 -6 57 l55 -13 -45 39 c-41 35
-43 42 -14 70 40 40 41 40 89 -8z"/>
<path d="M1533 6584 c-8 -12 -19 -147 -25 -298 -12 -309 19 -335 49 -43 17
164 18 165 20 47 l3 -120 43 70 c23 39 51 75 61 82 11 7 5 18 -12 25 -19 7
-32 35 -32 67 -1 63 -38 141 -41 86 -1 -16 -13 1 -27 39 -15 42 -30 60 -39 45z"/>
<path d="M2493 6574 c-64 -46 -210 -425 -176 -459 18 -18 323 183 323 213 0 5
-22 55 -48 113 -27 57 -44 116 -38 132 13 34 -16 35 -61 1z"/>
<path d="M2580 6572 c0 -39 89 -192 112 -192 16 0 22 -12 14 -32 -6 -18 12
-79 41 -135 29 -57 66 -137 82 -178 16 -41 39 -75 50 -75 12 0 -6 54 -39 120
-33 66 -53 120 -43 120 9 0 33 -36 53 -80 52 -115 90 -142 90 -64 0 34 -9 67
-20 74 -11 7 -20 23 -20 36 0 15 8 13 19 -5 23 -36 27 -26 59 145 26 145 4
173 -179 219 -71 19 -149 39 -174 47 -25 7 -45 7 -45 0z"/>
<path d="M7804 6536 c-33 -33 -30 -96 4 -96 59 0 92 26 92 72 0 53 -54 66 -96
24z"/>
<path d="M4801 6477 c-27 -22 -109 -75 -183 -118 -119 -70 -186 -157 -149
-195 5 -4 220 118 407 230 34 21 42 39 33 70 -10 31 -7 37 14 25 15 -8 20 -8
11 2 -29 32 -84 26 -133 -14z"/>
<path d="M379 6434 c-106 -61 -379 -267 -379 -286 0 -15 77 30 91 54 7 12 102
79 211 150 109 71 198 134 198 139 0 13 -1 13 -121 -57z"/>
<path d="M3089 6447 c-32 -23 -117 -458 -96 -492 20 -32 61 -11 164 84 68 62
101 107 92 123 -9 15 -7 19 7 11 24 -15 137 81 129 110 -3 10 10 24 30 31 19
7 63 34 97 60 122 91 93 44 -57 -95 -84 -77 -158 -158 -165 -180 -7 -21 -21
-39 -31 -39 -23 0 -207 -138 -216 -162 -7 -21 333 -24 514 -5 67 7 118 19 113
28 -5 8 8 19 30 25 60 15 1 421 -72 494 -38 38 -488 44 -539 7z m261 -107 c24
-39 -20 -87 -48 -52 -26 30 -15 72 18 72 10 0 23 -9 30 -20z m-162 -104 c17
-24 28 -47 23 -51 -16 -17 -91 38 -91 66 0 43 33 35 68 -15z m419 -140 c-5 -9
-18 -11 -28 -5 -17 10 -28 -32 -22 -75 5 -29 -69 -48 -144 -37 l-78 11 42 38
c37 32 47 34 76 10 31 -26 31 -24 9 19 -30 55 -24 63 62 82 64 13 105 -8 83
-43z"/>
<path d="M7659 6419 c-27 -21 -60 -38 -72 -39 -13 0 -49 -21 -81 -48 -31 -26
-85 -64 -120 -85 -34 -20 -160 -99 -279 -175 -120 -76 -250 -158 -290 -183
-53 -34 -75 -64 -82 -113 -13 -85 -5 -92 50 -43 44 39 408 301 629 452 61 41
120 75 133 76 34 1 200 172 180 185 -10 6 -40 -6 -68 -27z"/>
<path d="M8691 6382 c-17 -27 11 -85 36 -76 36 11 41 94 6 94 -17 0 -36 -8
-42 -18z"/>
<path d="M1700 6279 c0 -20 -44 -122 -154 -352 -53 -112 -48 -143 34 -217 39
-36 45 -36 62 -6 10 18 81 71 158 119 171 105 170 163 -2 89 -42 -18 -65 37
-38 88 11 21 21 90 21 154 1 99 5 109 22 66 11 -27 16 -92 10 -144 -12 -104 5
-129 65 -97 30 16 47 13 71 -10 28 -29 38 -27 111 13 104 59 103 61 -55 164
-74 48 -147 102 -162 121 -31 36 -143 46 -143 12z"/>
<path d="M2528 6203 c-67 -51 -139 -103 -160 -116 -54 -32 -33 -45 142 -90
296 -75 329 -78 310 -26 -23 59 -159 330 -165 327 -3 -1 -60 -44 -127 -95z"/>
<path d="M5815 6220 c-8 -16 -17 -182 -20 -367 l-5 -337 -207 -119 c-114 -66
-213 -114 -220 -107 -7 8 -15 152 -17 322 -5 422 -34 398 -46 -39 l-10 -357
-210 -117 -210 -118 -13 115 c-7 63 -14 211 -15 330 -1 139 -9 212 -22 204
-12 -7 -20 -149 -20 -357 l0 -345 -153 -89 c-301 -175 -275 -164 -290 -124 -8
19 -15 163 -16 320 -2 414 -39 366 -46 -59 l-5 -344 -80 -56 c-120 -83 -352
-201 -367 -186 -7 7 -18 154 -23 327 -13 396 -38 354 -45 -76 -5 -323 -6 -330
-52 -353 -25 -13 -57 -34 -70 -48 -13 -13 7 -9 44 9 121 62 123 57 125 -403 2
-388 15 -543 41 -496 6 11 4 216 -4 456 -19 555 -31 516 212 657 110 64 205
116 212 116 31 2 45 -296 39 -839 l-2 -150 -145 -78 c-187 -100 -335 -214
-329 -252 8 -54 107 -46 199 15 47 32 128 82 181 113 139 79 140 89 137 692
-4 610 -23 547 204 678 232 134 225 136 241 -73 19 -248 11 -885 -10 -885 -10
0 -18 26 -18 57 0 84 -13 85 -127 18 -263 -157 -247 -141 -245 -253 2 -122
-12 -121 149 -16 73 47 171 111 218 140 l85 55 0 128 c0 71 9 134 21 142 14 8
14 22 -3 41 -46 56 -36 800 12 836 68 51 362 212 387 212 17 0 23 -137 23
-515 1 -505 14 -690 40 -555 7 33 9 285 5 560 -5 382 0 512 20 549 28 54 299
231 387 253 l55 14 -13 -553 c-8 -353 -6 -553 7 -553 22 0 20 -21 37 650 l12
500 154 100 c216 141 235 155 159 119 -37 -18 -115 -63 -174 -101 -154 -98
-147 -109 -154 277 -3 190 -12 332 -20 315z"/>
<path d="M8930 6219 c-33 -8 -52 -15 -42 -17 10 -1 1 -21 -20 -44 -37 -41 -35
-41 42 3 119 69 124 82 20 58z"/>
<path d="M8381 6191 c-30 -36 -12 -98 24 -86 32 11 45 73 20 98 -12 12 -28 7
-44 -12z"/>
<path d="M5636 6126 l-113 -66 -1 -223 c0 -225 -10 -256 -79 -257 -20 0 -22 7
-7 25 21 26 72 414 56 430 -5 4 -27 -2 -50 -14 -40 -21 -42 -38 -42 -351 l0
-328 145 99 c80 54 155 99 168 99 25 0 55 376 44 551 l-7 102 -114 -67z"/>
<path d="M1073 6085 c-14 -113 -33 -211 -90 -464 -49 -217 -36 -248 71 -167
70 53 77 72 94 236 6 55 19 136 29 180 l18 80 4 -70 c2 -38 8 -88 13 -110 5
-22 -2 -74 -15 -115 -29 -94 -17 -107 62 -65 108 55 117 20 11 -38 -186 -101
-270 -155 -270 -173 0 -27 9 -24 90 23 39 24 77 38 83 32 6 -6 -26 -30 -71
-53 -109 -55 -104 -83 39 -256 158 -191 168 -188 172 40 2 109 20 249 43 340
33 127 35 155 12 155 -19 0 -28 23 -28 70 0 50 -22 98 -80 175 -44 58 -96 143
-115 190 -45 109 -57 107 -72 -10z"/>
<path d="M8672 6123 c-18 -28 9 -86 35 -77 30 10 30 78 0 88 -13 5 -29 -1 -35
-11z"/>
<path d="M8194 6091 c-42 -31 -44 -78 -5 -110 22 -19 37 -15 69 17 65 65 9
146 -64 93z"/>
<path d="M535 6002 c-279 -179 -535 -355 -535 -367 0 -17 146 70 210 124 22
19 81 58 130 86 117 67 296 195 270 194 -11 -1 -45 -18 -75 -37z"/>
<path d="M8580 6005 c-27 -18 -140 -93 -250 -166 -110 -72 -245 -158 -300
-189 -55 -31 -136 -85 -180 -120 l-80 -63 -118 74 c-91 59 -109 77 -80 85 23
6 13 10 -26 12 -53 2 -62 -4 -52 -31 9 -23 -6 -49 -46 -80 -32 -26 -48 -47
-36 -47 13 0 46 18 75 41 59 47 91 36 275 -90 50 -35 120 -75 155 -90 50 -20
63 -38 63 -82 0 -54 24 -84 73 -91 12 -2 41 -10 64 -17 48 -15 143 64 143 119
0 112 -152 184 -230 110 l-48 -45 -91 54 c-110 64 -110 64 84 185 213 132 584
376 645 425 60 48 30 52 -40 6z"/>
<path d="M2075 5952 c-42 -25 -81 -51 -87 -57 -13 -14 72 -255 90 -255 19 0
100 328 85 344 -7 7 -47 -7 -88 -32z"/>
<path d="M2211 5958 c13 -21 -46 -318 -69 -347 -80 -103 -19 -186 77 -105 33
28 114 83 180 124 145 87 142 71 29 203 -117 137 -82 141 41 4 l92 -103 109
55 c59 30 120 51 134 46 14 -5 -26 -35 -89 -66 -63 -32 -115 -65 -115 -75 0
-47 87 -135 127 -130 24 3 41 -4 39 -17 -3 -14 11 -19 35 -12 50 12 99 103 99
180 0 31 11 70 25 85 21 24 20 24 -8 3 -28 -20 -39 -16 -72 25 -28 36 -71 55
-164 72 -69 12 -149 32 -178 44 -65 26 -306 37 -292 14z"/>
<path d="M7975 5938 c-41 -24 -47 -98 -8 -98 32 0 93 63 93 97 0 28 -38 29
-85 1z"/>
<path d="M4000 5903 c-49 -18 -104 -50 -122 -71 -40 -49 -107 -60 -137 -23
-24 29 -677 28 -723 0 -10 -6 -27 -6 -38 1 -12 8 -21 -29 -22 -94 -2 -58 -6
-185 -10 -282 l-7 -176 165 88 c248 134 994 573 994 586 0 4 -2 7 -5 6 -3 -2
-45 -17 -95 -35z m-560 -179 c0 -38 -186 -86 -217 -55 -26 25 -26 31 -2 39 16
5 43 13 59 19 49 16 160 14 160 -3z"/>
<path d="M1838 5806 c-61 -42 -128 -86 -148 -97 -67 -39 -53 -61 74 -118 135
-60 187 -52 184 27 -1 28 8 40 25 34 41 -16 43 11 9 124 l-32 106 -112 -76z"/>
<path d="M5051 5782 l-159 -94 6 -199 c6 -221 9 -231 56 -184 25 25 31 66 28
182 -3 88 4 154 17 162 14 9 21 -33 21 -126 0 -77 5 -154 12 -171 7 -20 2 -32
-15 -33 -69 -1 -119 -75 -113 -166 l6 -89 170 102 170 103 6 306 c8 355 22
341 -205 207z"/>
<path d="M7750 5812 c-50 -36 -31 -102 30 -102 39 0 51 12 56 52 7 62 -36 87
-86 50z"/>
<path d="M1445 5686 c-14 -30 -25 -84 -25 -121 0 -37 -8 -128 -19 -201 -58
-420 -50 -443 110 -294 53 50 104 90 113 90 26 0 19 29 -43 163 -32 70 -74
163 -94 207 -19 44 -39 88 -44 98 -4 10 3 11 17 2 14 -9 70 -111 125 -228 120
-255 105 -238 160 -188 25 23 83 61 130 84 47 24 85 50 85 59 0 22 -68 83 -92
83 -11 0 -91 45 -178 100 -87 55 -175 100 -195 100 -28 0 -33 10 -23 50 16 65
4 63 -27 -4z"/>
<path d="M6260 5703 c-137 -69 -364 -210 -372 -232 -5 -12 -6 -186 -3 -386 l5
-363 153 98 c163 105 166 110 187 310 7 66 29 197 49 290 36 164 62 321 55
319 -2 0 -35 -16 -74 -36z m-281 -457 c-17 -130 -36 -208 -53 -215 -32 -12
-36 140 -7 249 60 228 68 249 77 211 5 -22 -3 -132 -17 -245z"/>
<path d="M2369 5560 c-98 -66 -187 -123 -198 -127 -48 -19 48 -71 187 -102
124 -28 227 -25 147 3 -14 5 -25 18 -25 29 0 11 8 14 19 8 10 -6 23 -4 29 6
25 40 192 -39 181 -85 -15 -60 83 -99 153 -60 26 15 41 27 32 27 -9 1 -34 -8
-55 -20 -34 -18 -39 -14 -39 38 0 61 -42 113 -70 88 -9 -8 -11 -5 -4 7 8 15
-4 19 -37 13 -59 -11 -65 10 -10 31 37 14 35 22 -39 139 -95 150 -59 149 -271
5z"/>
<path d="M728 5588 c-13 -69 -16 -72 -41 -38 -14 20 -32 32 -38 26 -6 -7 6
-29 27 -49 29 -28 41 -76 50 -197 32 -433 57 -632 96 -754 l42 -134 73 4 c71
4 73 2 115 -116 131 -367 151 -393 244 -304 31 30 63 48 70 41 19 -19 18 -48
-1 -42 -9 3 -40 -14 -70 -37 -59 -47 -48 -70 62 -127 25 -13 82 -56 125 -95
84 -76 101 -59 40 42 -20 34 -49 109 -63 166 -20 81 -36 106 -73 115 -32 8
-51 31 -59 69 -13 69 -315 378 -336 344 -32 -52 -64 -15 -90 103 -15 69 -43
161 -62 206 -60 143 -68 240 -9 114 27 -58 52 -105 55 -105 14 0 -11 192 -27
209 -10 10 -18 37 -18 60 1 34 4 36 20 11 15 -24 20 -20 20 20 0 28 8 62 18
77 26 42 41 -44 42 -247 1 -196 36 -293 77 -216 11 21 42 49 69 64 27 14 47
41 44 59 -2 18 0 21 5 7 11 -35 73 -22 80 16 3 17 -53 98 -125 180 -71 83
-130 156 -130 164 0 7 -20 16 -45 20 -37 5 -47 23 -58 96 -40 274 -102 392
-129 248z"/>
<path d="M2040 5569 c0 -23 -12 -28 -42 -18 -33 10 -40 5 -35 -24 14 -69 97
-59 97 12 0 33 -4 61 -10 61 -5 0 -10 -14 -10 -31z"/>
<path d="M4554 5468 l-174 -111 0 -114 c0 -185 25 -507 38 -489 7 10 62 52
122 95 61 42 113 84 116 93 4 9 19 11 33 6 15 -6 34 0 42 13 14 23 19 596 5
610 -4 4 -86 -42 -182 -103z m-34 -305 c0 -129 -3 -138 -55 -161 -53 -25 -53
-24 -20 13 23 24 35 71 35 130 0 86 14 155 32 155 4 0 8 -62 8 -137z"/>
<path d="M7259 5518 c-16 -31 -17 -48 -1 -64 29 -29 28 -54 -3 -54 -14 0 -129
-68 -255 -152 -127 -84 -257 -166 -290 -182 l-60 -31 70 74 c39 41 97 88 130
104 100 50 370 235 370 254 0 9 -47 -11 -105 -46 -58 -34 -187 -103 -287 -152
l-183 -89 -12 -95 c-33 -245 -34 -255 -16 -215 10 23 93 95 184 160 91 66 211
153 267 194 280 202 323 245 300 305 -18 45 -83 38 -109 -11z"/>
<path d="M2740 5466 c0 -32 92 -146 119 -146 19 0 10 19 -25 56 -30 31 -54 67
-54 80 0 13 -9 24 -20 24 -11 0 -20 -6 -20 -14z"/>
<path d="M7670 5416 c-22 -12 -179 -112 -350 -222 -402 -259 -595 -381 -672
-424 -62 -35 -128 -296 -128 -508 l0 -63 72 66 c106 96 385 288 719 494 283
174 537 370 489 377 -37 6 -95 -26 -397 -218 -62 -40 -189 -121 -283 -179 -93
-59 -174 -113 -180 -119 -17 -19 -291 -180 -308 -180 -13 0 -5 41 24 118 7 20
3 23 -16 12 -17 -10 -21 -8 -13 6 8 12 115 86 239 164 534 337 854 555 854
581 0 20 -233 -116 -322 -189 -29 -23 -79 -57 -110 -75 -32 -18 -161 -97 -288
-177 -126 -79 -266 -162 -310 -185 l-80 -40 37 41 c37 42 146 116 547 373 307
196 408 264 476 320 64 53 64 63 0 27z"/>
<path d="M5604 5320 c-69 -44 -133 -80 -142 -80 -54 0 -63 -68 -57 -420 l5
-365 115 94 c63 51 122 89 130 84 9 -5 30 1 47 14 34 25 76 753 43 753 -8 0
-72 -36 -141 -80z m-94 -352 c-12 -182 -19 -211 -55 -231 -35 -18 -39 -17 -28
12 7 19 19 112 26 208 13 176 43 296 62 246 5 -15 3 -120 -5 -235z"/>
<path d="M1864 5257 c-120 -70 -180 -143 -149 -182 11 -14 76 -136 145 -271
68 -136 126 -244 128 -240 2 3 0 62 -4 131 -7 123 -8 125 -66 125 -32 0 -58 9
-58 20 0 20 32 26 110 23 22 -1 29 3 15 9 -14 6 -25 23 -25 37 0 15 -43 60
-95 102 -52 42 -104 84 -115 94 -34 30 94 -8 163 -50 l65 -38 11 67 c42 235
24 260 -125 173z"/>
<path d="M2062 5133 c-4 -143 0 -173 22 -160 198 125 194 118 115 202 -34 36
-52 65 -41 65 10 0 42 -29 70 -65 50 -64 51 -64 108 -30 82 48 164 77 164 58
0 -9 -25 -28 -55 -41 -30 -14 -100 -54 -155 -91 -55 -36 -126 -81 -158 -100
-72 -44 -41 -70 83 -71 65 0 85 8 85 32 0 23 12 29 42 22 34 -9 40 -4 32 27
-6 22 -4 39 3 39 7 0 33 6 58 13 45 12 45 11 15 -74 -28 -78 -28 -89 3 -123
33 -36 37 -32 98 100 37 81 90 157 129 188 l65 51 -97 31 c-54 17 -143 36
-198 43 -55 7 -140 26 -190 41 -179 56 -192 46 -198 -157z"/>
<path d="M4060 5172 l-170 -105 -6 -314 -5 -314 85 54 c48 29 131 84 186 122
l100 69 0 298 c0 164 -4 297 -10 296 -5 0 -86 -48 -180 -106z m-22 -294 c-3
-127 -8 -143 -59 -179 -72 -51 -95 -50 -48 2 20 23 38 75 40 121 2 44 10 85
17 92 6 7 12 39 12 71 0 34 8 52 21 45 11 -8 19 -74 17 -152z"/>
<path d="M8280 5213 c0 -40 -61 -87 -139 -107 l-70 -18 115 -86 c63 -48 114
-92 114 -99 1 -39 242 -166 270 -143 24 20 32 18 41 -6 13 -34 69 -24 69 12 0
11 14 36 31 55 49 54 0 129 -150 228 -72 48 -153 111 -179 139 -53 56 -102 68
-102 25z"/>
<path d="M1515 5026 c-115 -71 -136 -109 -103 -194 17 -44 333 -226 343 -196
6 17 24 15 68 -8 34 -17 55 -36 49 -43 -6 -6 7 -24 29 -40 68 -48 67 -14 -6
114 -37 67 -74 115 -81 108 -17 -17 -134 33 -134 58 0 10 11 15 25 10 125 -47
125 -49 42 107 -92 174 -87 173 -232 84z"/>
<path d="M5127 5034 c-57 -35 -131 -79 -165 -98 l-62 -34 0 -221 c0 -172 6
-221 27 -221 19 0 28 34 30 115 4 157 24 283 46 297 11 7 16 -73 13 -195 -6
-203 -7 -207 -61 -233 -57 -27 -73 -136 -38 -261 l13 -46 49 52 c32 34 62 48
90 41 22 -5 29 -4 15 2 -17 8 -19 20 -6 36 11 13 24 49 30 80 12 64 32 95 32
48 0 -51 50 -82 78 -48 28 34 57 752 30 751 -10 0 -64 -29 -121 -65z"/>
<path d="M7968 5013 c-34 -24 -183 -118 -330 -210 -147 -92 -362 -226 -478
-298 -115 -72 -304 -189 -420 -260 -115 -71 -221 -143 -235 -161 -31 -39 -34
-152 -4 -133 12 7 17 18 11 24 -16 15 189 171 325 248 215 121 1131 736 1201
806 44 44 3 35 -70 -16z"/>
<path d="M502 4995 c-22 -57 -11 -75 45 -75 64 0 96 37 71 83 -27 52 -96 47
-116 -8z"/>
<path d="M3597 4894 c-51 -35 -165 -100 -254 -144 -187 -93 -184 -57 -22 -398
l118 -250 91 51 c49 28 90 55 90 60 0 6 -40 -12 -90 -40 -107 -60 -123 -25
-20 45 39 26 70 58 70 71 0 30 82 76 121 67 23 -5 29 47 34 299 7 345 9 340
-138 239z m-97 -329 c0 -143 -1 -146 -65 -185 -77 -47 -125 -52 -60 -7 25 18
45 53 45 78 0 26 9 52 20 59 11 7 20 21 20 32 0 11 -10 14 -22 7 -16 -10 -16
-3 0 27 12 23 22 76 22 118 1 56 6 68 20 46 11 -16 20 -95 20 -175z"/>
<path d="M2151 4793 c54 -60 107 -110 117 -111 35 -4 160 85 131 95 -16 5
-101 35 -188 67 l-159 58 99 -109z"/>
<path d="M2037 4704 c9 -211 1 -202 112 -123 112 81 113 69 -14 194 l-105 104
7 -175z"/>
<path d="M1082 4768 c-58 -48 -83 -108 -45 -108 9 0 15 -16 15 -35 -1 -19 73
-107 165 -195 97 -93 163 -143 157 -120 -7 22 -18 74 -25 115 -7 41 -20 75
-28 75 -14 0 -81 130 -81 156 1 8 18 -8 40 -36 l39 -50 1 87 c0 152 -122 209
-238 111z m138 -11 c0 -28 -61 -76 -98 -76 -20 -1 -14 15 18 49 50 54 80 64
80 27z"/>
<path d="M6139 4793 c-243 -129 -279 -172 -279 -337 l0 -59 115 64 c160 90
181 114 205 237 24 127 23 128 -41 95z"/>
<path d="M4581 4709 c-82 -48 -157 -91 -167 -94 -11 -4 -13 -163 -4 -401 l15
-394 97 53 c53 29 96 58 95 65 -5 41 11 63 73 99 l70 42 0 360 c0 199 -7 361
-15 360 -8 -1 -82 -41 -164 -90z m-85 -548 c-25 -21 -50 -33 -56 -28 -5 6 8
23 29 39 32 23 40 55 43 173 6 237 16 258 23 49 6 -184 4 -199 -39 -233z m180
-98 c4 -13 -7 -23 -24 -23 -18 0 -32 9 -32 20 0 11 -14 20 -31 20 -17 0 -26 9
-20 19 15 24 96 -4 107 -36z"/>
<path d="M2446 4754 c-9 -14 -95 -77 -192 -141 -213 -139 -220 -170 -44 -210
101 -22 225 -38 345 -42 14 -1 25 -14 25 -31 0 -18 18 -30 46 -30 25 0 57 -11
70 -24 39 -39 28 -8 -53 158 -43 86 -93 199 -113 251 -36 98 -56 114 -84 69z
m29 -169 c24 -16 40 -37 35 -45 -6 -9 1 -22 15 -28 14 -6 7 -10 -15 -9 -73 3
-90 -3 -90 -32 0 -16 -11 -35 -25 -43 -14 -8 -19 -8 -11 1 7 8 6 36 -4 61 -10
27 -9 53 3 65 13 13 8 32 -16 55 -43 43 29 26 108 -25z"/>
<path d="M1372 4671 c8 -44 24 -151 37 -239 29 -202 52 -219 176 -132 l92 66
-63 89 c-35 50 -107 136 -160 193 l-96 102 14 -79z"/>
<path d="M195 4665 c5 -14 -1 -25 -13 -25 -12 0 -22 -10 -22 -22 0 -16 9 -15
30 2 16 13 41 20 55 15 15 -6 26 4 26 22 0 20 -16 33 -43 33 -26 0 -39 -10
-33 -25z"/>
<path d="M1545 4594 c47 -57 99 -127 117 -154 30 -46 37 -47 109 -25 97 30
112 18 31 -24 -80 -41 -86 -26 88 -225 83 -94 146 -176 141 -182 -16 -16 -71
38 -188 186 -139 176 -135 174 -213 123 -36 -24 -82 -54 -103 -67 -46 -30 26
-106 101 -106 24 0 120 -44 213 -98 201 -117 229 -110 194 48 -12 55 -22 141
-23 190 -2 72 -10 92 -42 101 -22 6 -43 28 -46 50 -4 26 -44 55 -117 87 -61
27 -164 83 -229 125 l-117 76 84 -105z"/>
<path d="M8140 4660 c0 -30 10 -41 35 -36 19 4 35 20 35 36 0 16 -16 32 -35
36 -25 5 -35 -6 -35 -36z"/>
<path d="M7564 4515 c-91 -58 -327 -209 -523 -337 -197 -127 -408 -262 -468
-300 -79 -49 -119 -89 -139 -141 l-29 -73 118 -1 c65 -1 138 -13 162 -26 40
-21 42 -20 18 9 -14 18 -20 42 -13 54 8 13 -12 32 -48 45 -99 38 -91 70 33
149 63 40 256 165 429 278 172 114 366 235 430 271 64 36 121 71 126 78 6 7
30 24 55 37 43 22 62 62 30 62 -8 0 -90 -47 -181 -105z"/>
<path d="M5553 4437 l-153 -103 0 -108 c0 -125 -7 -126 210 26 l130 91 0 99
c0 121 1 121 -187 -5z"/>
<path d="M4130 4436 c-55 -36 -127 -78 -160 -95 l-60 -31 -1 -380 c-1 -209 2
-404 6 -434 l8 -55 77 51 c42 28 82 63 87 78 6 16 27 23 51 16 132 -34 174
217 128 769 -13 167 -6 163 -136 81z m-94 -452 c-6 -89 -7 -91 -32 -48 -22 38
-22 73 0 200 l26 154 6 -106 c3 -58 3 -148 0 -200z"/>
<path d="M7758 4438 c-29 -29 -38 -56 -29 -90 7 -27 3 -48 -9 -48 -29 0 -905
-590 -950 -640 -63 -70 -20 -63 77 11 294 224 897 609 928 591 40 -22 121 6
158 54 81 107 -78 219 -175 122z m119 -47 c11 -57 -31 -85 -70 -46 -28 28 -29
38 -7 65 32 38 68 29 77 -19z"/>
<path d="M865 4387 c-50 -20 -29 -109 32 -132 43 -16 70 -52 110 -143 74 -168
126 -234 144 -186 9 23 0 52 -26 80 -22 24 -56 71 -77 104 l-36 60 43 -37 c41
-36 40 -30 -13 109 -31 80 -67 150 -81 154 -18 6 -18 -2 2 -33 21 -34 21 -47
0 -68 -30 -30 -91 35 -74 79 5 14 8 25 5 24 -2 0 -15 -6 -29 -11z"/>
<path d="M2067 4300 c7 -49 19 -150 26 -224 15 -162 46 -184 135 -98 34 33 83
67 108 77 43 15 36 26 -118 176 l-164 159 13 -90z"/>
<path d="M2141 4332 c175 -165 344 -303 409 -334 44 -21 118 -69 165 -106 l85
-67 -85 5 c-133 9 -280 69 -265 108 42 106 -15 120 -154 39 -152 -89 -152
-128 -1 -142 103 -10 440 -97 487 -126 10 -6 18 7 18 30 0 22 -7 40 -15 39
-36 -6 -65 4 -65 22 0 12 18 12 51 0 143 -55 156 19 45 254 -74 155 -80 159
-237 185 -71 11 -201 43 -289 70 -188 59 -187 59 -149 23z m439 -162 c0 -5
-23 -24 -52 -43 -51 -33 -103 -8 -75 37 10 17 127 23 127 6z m175 -36 c-8 -22
-194 -62 -211 -45 -15 15 96 61 157 65 41 3 59 -4 54 -20z m-15 -109 c41 -17
44 -23 17 -34 -40 -17 -162 13 -172 43 -8 26 84 21 155 -9z"/>
<path d="M7951 4302 c-7 -21 -40 -49 -73 -63 -56 -23 -58 -27 -25 -46 20 -11
59 -42 87 -67 59 -55 157 -87 200 -64 19 10 45 2 71 -23 41 -38 41 -38 46 34
4 61 0 69 -24 50 -23 -19 -30 -13 -40 37 -7 33 -22 60 -34 60 -12 0 -50 21
-85 47 -100 73 -110 76 -123 35z"/>
<path d="M0 4260 c0 -10 25 -35 55 -54 30 -19 82 -55 115 -80 88 -68 83 -65
300 -209 204 -135 276 -177 302 -177 8 0 -79 64 -194 143 -114 78 -291 199
-393 270 -102 70 -185 118 -185 107z"/>
<path d="M5090 4150 c-193 -122 -190 -119 -190 -231 0 -121 -13 -122 191 12
l169 112 0 98 c0 120 4 120 -170 9z"/>
<path d="M3709 4193 c-21 -15 -86 -52 -144 -82 -58 -31 -105 -57 -105 -58 0
-18 287 -626 311 -659 31 -43 31 -43 17 14 -7 31 -15 227 -16 435 -1 207 -7
377 -13 377 -5 0 -28 -12 -50 -27z"/>
<path d="M1480 4083 c0 -11 27 -76 60 -146 33 -70 60 -138 60 -151 0 -13 23
-48 50 -78 28 -30 50 -62 50 -72 0 -10 36 11 81 47 l80 65 -135 137 c-148 150
-246 229 -246 198z"/>
<path d="M1750 3897 c66 -69 121 -129 123 -133 2 -4 27 8 55 27 29 18 52 24
52 13 0 -12 -18 -27 -40 -34 -22 -7 -40 -20 -40 -30 0 -17 246 -240 265 -240
36 0 -65 229 -112 254 -33 17 -53 44 -53 72 -1 34 -24 53 -105 86 -58 23 -141
58 -185 77 l-80 34 120 -126z"/>
<path d="M1130 3856 c-23 -58 -2 -105 53 -116 33 -6 138 -99 289 -258 131
-136 273 -270 316 -297 l78 -49 -132 -76 c-72 -42 -199 -121 -282 -176 -122
-81 -152 -93 -152 -65 0 20 -13 47 -30 61 -16 13 -24 33 -17 44 6 11 -12 4
-42 -15 -68 -45 -65 -132 6 -148 46 -11 45 -13 -20 -44 -200 -95 -1196 -732
-1197 -764 0 -9 34 4 76 30 42 26 164 101 272 167 793 488 803 494 1268 797
205 134 274 169 300 155 42 -23 134 -119 122 -129 -4 -3 -48 -29 -98 -56 -49
-28 -256 -152 -460 -277 -203 -125 -422 -258 -486 -297 -130 -78 -175 -136
-131 -167 21 -15 19 -17 -7 -9 -92 30 -63 -118 30 -157 36 -15 100 -59 142
-99 70 -67 80 -70 111 -42 45 41 34 44 171 -59 152 -114 189 -118 47 -6 -148
117 -321 219 -352 207 -19 -7 -18 5 5 49 52 101 13 179 -92 181 -36 1 -15 18
82 68 72 37 341 197 599 357 525 325 449 304 727 199 89 -34 127 -57 110 -68
-18 -11 -13 -16 17 -17 34 0 84 -55 62 -69 -3 -3 -131 -84 -285 -181 -154 -97
-295 -189 -314 -205 -30 -26 -38 -26 -66 2 -46 46 -116 13 -138 -65 -22 -78
-124 -158 -158 -124 -72 72 -215 -28 -161 -115 44 -70 187 -44 187 34 0 45
143 124 197 110 52 -14 103 24 103 75 0 21 7 38 15 38 8 0 110 60 225 133 497
315 429 290 695 255 89 -11 105 -8 105 19 0 25 -19 33 -76 33 -42 0 -94 13
-115 30 -36 27 -34 28 31 17 l70 -12 -83 61 c-46 34 -92 77 -103 96 -12 22
-23 26 -32 11 -22 -36 -87 -27 -117 16 -15 22 -66 48 -114 58 -47 11 -96 30
-107 41 -32 32 13 28 100 -8 40 -17 76 -27 80 -23 15 15 -161 203 -188 200
-14 -1 -21 5 -15 14 5 9 -8 27 -30 39 -24 12 -41 42 -41 71 0 41 -9 49 -62 49
-34 0 -124 28 -201 62 -184 80 -184 76 14 -131 93 -98 169 -185 169 -195 0
-10 18 -8 40 4 52 28 80 10 80 -49 0 -36 25 -62 105 -107 58 -33 123 -75 145
-92 61 -49 -51 -6 -185 71 -79 45 -120 57 -164 47 -50 -11 -57 -7 -48 26 10
39 -267 342 -339 370 -19 7 -28 25 -22 41 12 32 -12 57 -107 114 -36 21 -65
55 -65 75 0 23 -50 69 -135 125 -74 48 -142 97 -150 109 -8 11 -15 5 -15 -15
0 -50 -58 -43 -79 10 -15 39 -19 40 -31 11z m1490 -1066 c0 -37 -11 -50 -40
-50 -29 0 -40 13 -40 50 0 37 11 50 40 50 29 0 40 -13 40 -50z"/>
<path d="M7553 3847 c-7 -8 -13 -30 -13 -50 0 -20 -12 -37 -26 -37 -40 0 -171
-118 -131 -119 17 -1 44 13 58 30 44 54 99 74 129 49 36 -30 110 8 110 57 0
63 -86 111 -127 70z"/>
<path d="M978 3743 c-384 -249 -617 -378 -666 -368 -60 11 -112 -24 -112 -75
0 -59 73 -61 149 -3 38 29 197 132 355 229 157 97 308 193 336 214 82 62 33
64 -62 3z"/>
<path d="M2160 3760 c0 -41 117 -349 135 -355 12 -4 52 20 88 53 l67 60 -120
124 -120 124 130 -96 c72 -53 143 -107 159 -118 22 -17 25 -16 12 6 -12 19
-10 24 6 14 12 -8 65 11 118 42 l95 56 -90 16 c-49 10 -157 32 -240 49 -163
36 -240 44 -240 25z"/>
<path d="M2958 3704 c10 -19 11 -48 2 -65 -9 -16 -3 -87 12 -159 15 -71 27
-146 28 -165 0 -62 74 -115 160 -115 44 0 80 5 80 11 0 19 -125 274 -184 375
-31 53 -56 109 -56 125 0 16 -14 29 -31 29 -23 0 -26 -9 -11 -36z"/>
<path d="M1790 3658 c-112 -71 -112 -69 15 -99 58 -13 167 -55 243 -92 146
-72 203 -71 102 0 -33 24 -107 89 -165 145 l-106 103 -89 -57z"/>
<path d="M7211 3615 c-19 -45 -68 -89 -159 -145 -73 -44 -132 -91 -132 -105 0
-37 7 -34 155 73 74 54 158 102 185 105 69 10 88 137 20 137 -29 0 -51 -21
-69 -65z"/>
<path d="M2680 3610 c-156 -108 -157 -110 -73 -110 42 0 93 -9 114 -21 33 -17
39 -14 39 22 0 69 50 32 51 -38 1 -47 21 -81 77 -133 42 -38 70 -54 62 -34 -7
18 -23 88 -34 154 -34 193 -112 246 -236 160z"/>
<path d="M6889 3594 c-42 -49 -57 -81 -29 -64 20 12 23 7 14 -17 -11 -29 -7
-31 29 -12 28 16 35 29 21 43 -12 12 -16 33 -10 48 13 34 3 35 -25 2z"/>
<path d="M6415 3580 c-311 -94 -505 -593 -347 -896 121 -232 434 -217 653 32
344 390 129 995 -306 864z m225 -173 c254 -150 83 -678 -233 -721 -352 -47
-357 570 -7 722 92 40 171 40 240 -1z"/>
<path d="M6406 3341 c-226 -103 -285 -498 -86 -581 159 -66 380 155 380 380 0
197 -121 280 -294 201z m80 -203 c52 -83 -64 -218 -135 -158 -37 30 -42 172
-6 187 45 19 121 4 141 -29z m174 -97 c0 -39 -40 -121 -60 -121 -28 0 -25 52
5 100 26 42 55 53 55 21z"/>
<path d="M6360 3070 c0 -43 8 -52 45 -46 30 4 45 20 45 46 0 26 -15 42 -45 46
-37 6 -45 -3 -45 -46z"/>
<path d="M2419 3444 c-86 -44 -115 -134 -61 -193 20 -23 62 -79 92 -126 43
-67 67 -85 111 -85 37 0 60 -13 68 -37 9 -28 39 -41 116 -50 58 -7 138 -19
177 -25 65 -11 74 -7 85 35 15 64 -5 137 -39 137 -14 0 -35 16 -46 37 -18 34
-122 61 -352 92 -150 21 -243 62 -197 87 43 23 340 -24 475 -75 56 -22 86 2
45 36 -14 12 -82 39 -150 61 -68 21 -154 61 -191 89 -65 50 -68 50 -133 17z
m217 -274 c40 -27 89 -50 109 -50 40 0 262 -120 248 -134 -5 -5 -53 13 -106
39 -53 26 -113 44 -133 40 -19 -5 -55 10 -80 33 -24 22 -66 59 -94 81 -71 57
-32 50 56 -9z"/>
<path d="M1250 3118 c-165 -101 -315 -196 -333 -212 -30 -26 -38 -25 -75 12
-53 53 -91 53 -142 2 -43 -43 -47 -59 -27 -110 29 -77 187 -76 187 1 0 17 16
36 35 43 19 7 94 51 165 97 72 47 222 140 335 209 113 68 205 128 205 132 0
29 -85 -14 -350 -174z"/>
<path d="M380 3185 c0 -15 172 -144 260 -195 25 -15 26 -13 5 13 -37 46 -265
202 -265 182z"/>
<path d="M1488 3089 c-177 -112 -263 -177 -168 -128 71 36 360 221 360 231 0
15 -15 7 -192 -103z"/>
<path d="M3051 3164 c-18 -18 14 -177 40 -196 34 -26 38 -71 8 -101 -15 -15
-13 -25 10 -34 22 -8 31 0 31 28 0 36 14 39 183 39 l183 0 -68 46 c-37 25 -87
81 -112 125 -40 72 -232 137 -275 93z m256 -113 c11 -30 -55 -92 -96 -90 -12
0 -5 9 14 21 19 11 35 38 35 59 0 46 31 52 47 10z"/>
<path d="M1030 2812 c-22 -15 -184 -112 -360 -217 -315 -187 -561 -343 -640
-405 -73 -57 88 26 230 119 72 47 270 169 440 271 171 103 328 203 349 223 46
43 38 46 -19 9z"/>
<path d="M7464 2394 c-25 -11 -41 -32 -36 -46 5 -14 0 -29 -12 -33 -15 -5 -13
-25 6 -66 57 -118 242 -65 210 60 -17 68 -106 113 -168 85z"/>
<path d="M610 2115 c-337 -213 -611 -400 -602 -410 12 -11 39 5 432 253 271
172 395 264 349 260 -10 0 -91 -47 -179 -103z"/>
<path d="M5720 2079 c39 -33 97 -75 130 -92 33 -18 96 -60 140 -94 57 -44 69
-48 41 -16 -43 50 -340 263 -365 262 -9 0 16 -27 54 -60z"/>
<path d="M3266 2035 c-47 -36 -191 -132 -320 -213 -130 -81 -267 -168 -306
-193 -181 -115 -374 -239 -640 -410 -832 -534 -703 -488 -930 -332 -62 42
-117 72 -123 67 -6 -6 59 -57 143 -114 l154 -104 -47 -33 c-26 -18 -173 -114
-327 -214 -154 -99 -336 -221 -404 -270 -69 -49 -162 -115 -207 -146 -45 -32
-78 -61 -74 -65 5 -4 246 150 536 342 291 193 540 346 553 341 13 -5 117 -80
230 -166 113 -86 267 -200 341 -253 171 -121 174 -109 -64 -235 -38 -21 -58
-37 -44 -37 33 0 139 55 213 112 l60 45 117 -78 c64 -44 127 -79 140 -79 28 1
-53 65 -142 114 -86 46 -92 37 131 184 107 71 235 156 284 189 50 33 182 122
295 197 113 75 205 142 205 148 0 6 -11 3 -25 -5 -14 -9 -70 -43 -125 -77
-143 -87 -774 -509 -813 -544 -40 -35 -44 -33 -377 213 -126 94 -274 199 -328
233 l-98 63 118 75 c65 42 280 179 478 305 198 126 383 245 410 264 28 19 199
127 380 241 182 113 382 241 445 284 l115 77 0 -354 c0 -194 5 -349 11 -342 7
6 13 169 14 363 l3 352 66 45 c62 42 84 75 51 75 -8 0 -53 -30 -99 -65z"/>
<path d="M6704 1675 c7 -50 73 -73 97 -33 22 35 -15 78 -65 78 -29 0 -37 -12
-32 -45z"/>
<path d="M725 1629 c-47 -28 -85 -59 -85 -69 0 -10 41 9 90 42 50 34 90 65 90
69 0 14 -5 12 -95 -42z"/>
<path d="M3104 1179 c-98 -91 -18 -259 124 -259 79 0 152 73 152 154 0 122
-183 192 -276 105z m156 -89 c0 -24 -42 -50 -82 -50 -25 0 -23 47 4 74 28 28
78 12 78 -24z"/>
<path d="M2125 1127 c7 -11 52 -47 99 -79 47 -32 91 -63 96 -68 61 -65 417
-289 433 -273 13 12 -175 133 -206 133 -15 0 -27 7 -27 16 0 8 -27 31 -61 51
-33 20 -80 56 -105 81 -51 51 -248 171 -229 139z"/>
<path d="M3391 963 c-20 -63 -141 -111 -215 -84 -35 11 -67 17 -73 11 -5 -5
-1 -10 11 -10 11 0 81 -53 154 -119 207 -182 359 -254 378 -179 6 23 20 37 30
30 11 -6 24 6 30 28 10 38 14 38 95 10 47 -17 88 -27 92 -23 13 13 -75 113
-99 113 -27 0 -232 132 -327 210 -61 50 -64 51 -76 13z"/>
<path d="M2800 635 c0 -14 397 -321 500 -387 50 -31 120 -79 156 -105 l65 -49
-63 -38 c-34 -21 -58 -43 -51 -49 6 -6 37 8 70 31 73 52 85 52 151 0 30 -24
59 -38 64 -32 6 5 -17 26 -51 46 -57 34 -80 67 -46 68 8 1 38 19 65 42 l50 40
-64 -31 c-35 -17 -69 -39 -75 -50 -12 -19 -200 105 -482 320 -172 130 -289
209 -289 194z"/>
<path d="M3900 478 c28 -22 86 -63 130 -92 44 -28 121 -85 170 -126 108 -88
325 -236 375 -254 31 -12 -72 68 -539 416 -116 87 -237 137 -136 56z"/>
</g>
</svg>
