<svg version="1.1" id="Layer_1" xmlns="http://www.w3.org/2000/svg" xmlns:xlink="http://www.w3.org/1999/xlink" x="0px" y="0px"
	 width="100%" viewBox="0 0 1024 1024" enable-background="new 0 0 1024 1024" xml:space="preserve">
<path fill="#000000" opacity="1.000000" stroke="none" 
	d="
M272.512695,206.572357 
	C281.242279,199.226913 286.341858,198.739151 295.820496,204.438248 
	C297.986664,205.740631 300.176178,205.901306 302.512207,205.890244 
	C312.843536,205.841278 323.183197,206.028137 333.503448,205.664474 
	C340.923553,205.403015 345.650024,208.760300 348.179993,215.312103 
	C352.016418,225.247177 355.606750,235.279831 359.153381,245.323380 
	C361.535126,252.068054 363.815430,258.857483 365.839996,265.715820 
	C366.971008,269.547211 369.000763,270.947906 373.045288,270.793243 
	C407.519073,269.475189 442.012756,269.962799 476.498016,270.044067 
	C501.965820,270.104065 527.430176,270.323944 552.901306,270.185425 
	C585.040894,270.010620 617.184692,270.566803 649.326355,270.843140 
	C656.302368,270.903107 655.987488,270.952301 655.544983,277.853516 
	C654.559326,293.226807 659.599060,305.995972 672.999207,314.510956 
	C675.943726,316.381989 675.595520,318.332123 674.713440,320.828888 
	C663.847900,351.586823 653.004089,382.352417 642.104431,413.098206 
	C639.048401,421.718719 636.585144,430.549072 632.549927,438.824921 
	C629.282776,445.525360 624.548279,448.710175 616.745544,448.420105 
	C598.591980,447.745331 580.484009,448.811188 562.386475,450.649597 
	C555.519348,451.347168 548.443787,450.149963 541.476013,449.640930 
	C537.305603,449.336273 533.156738,448.810883 529.146362,450.452820 
	C518.800354,454.688538 507.976624,454.408417 497.135193,453.829010 
	C487.115021,453.293488 477.360138,451.386932 467.757721,448.404938 
	C462.802521,446.866089 457.586853,446.738037 452.432404,447.990265 
	C446.858795,449.344391 441.249298,449.094391 435.551727,448.762512 
	C421.177094,447.925262 406.952301,448.219055 393.659241,455.171631 
	C387.011444,458.648590 381.140045,462.729889 377.254456,469.301239 
	C376.516052,470.549988 375.850922,471.989319 374.243713,472.438995 
	C372.739319,472.363159 372.391022,471.112671 371.924835,470.102051 
	C369.694122,465.266266 367.430756,460.441986 365.353790,455.539581 
	C361.391296,446.186493 361.482910,446.238892 370.413208,441.086426 
	C392.807861,428.165497 404.962402,408.117981 408.541901,383.137878 
	C412.847321,353.092010 402.047089,328.807159 378.342621,309.823456 
	C369.189362,302.493073 359.291748,297.025574 348.207306,293.622192 
	C345.446136,292.774384 344.267029,291.563477 343.533173,288.718536 
	C338.910950,270.800232 332.076538,253.599792 326.101227,236.118790 
	C325.401947,234.072968 324.136414,233.761017 322.273254,233.929932 
	C311.683044,234.890106 300.965881,233.371872 290.421753,235.971588 
	C286.626984,236.907196 282.455353,236.795639 278.574951,235.371292 
	C267.045532,231.139282 263.962036,217.209030 272.512695,206.572357 
M561.500305,315.899780 
	C587.145569,315.854401 612.790894,315.820984 638.436035,315.739380 
	C640.360840,315.733246 642.946350,316.451172 643.906128,314.305023 
	C646.375977,308.782410 648.419067,303.068939 650.680298,297.310577 
	C647.778931,295.954498 645.427917,296.359283 643.152527,296.358246 
	C586.195679,296.332245 529.238770,296.329926 472.281891,296.317627 
	C448.966125,296.312561 425.650360,296.273987 402.334625,296.296509 
	C396.935333,296.301697 396.513855,296.958038 398.082550,302.165924 
	C398.754242,304.395782 399.855865,306.564453 400.119537,308.835571 
	C400.803711,314.728638 404.020874,316.049866 409.618530,316.026062 
	C459.911804,315.812195 510.206329,315.886963 561.500305,315.899780 
M420.246918,354.355835 
	C424.295380,364.292542 423.094360,362.712158 432.816772,362.726379 
	C485.298859,362.803101 537.781128,362.794312 590.263306,362.799744 
	C601.926208,362.800934 613.589111,362.755127 625.251892,362.693451 
	C627.030090,362.684052 629.274719,363.164368 630.061523,360.984497 
	C632.128052,355.258881 634.057556,349.472534 635.189880,343.233521 
	C629.105774,341.299316 623.489380,343.031342 617.927429,343.022095 
	C554.281860,342.916107 490.635956,342.981537 426.990479,342.841400 
	C414.128052,342.813080 414.784180,342.659698 420.246918,354.355835 
M481.499939,409.677704 
	C523.955139,409.675446 566.410522,409.622864 608.865295,409.752869 
	C612.878784,409.765137 615.068787,408.713348 615.836060,404.597687 
	C616.441650,401.349152 617.622803,398.200470 618.645813,395.038940 
	C620.172302,390.321503 619.661133,389.397156 614.612244,389.394745 
	C554.509094,389.366180 494.405975,389.385986 434.302826,389.418396 
	C432.195221,389.419525 429.911469,389.207306 428.442993,391.649536 
	C430.435699,396.121826 432.675110,400.571991 434.400024,405.213379 
	C435.631836,408.527954 437.453552,409.796997 441.042633,409.746002 
	C454.192719,409.558899 467.347137,409.675110 481.499939,409.677704 
z"/>
<path fill="#000000" opacity="1.000000" stroke="none" 
	d="
M253.336624,538.643188 
	C239.928406,523.951660 225.439972,510.939423 210.310425,498.617279 
	C209.922897,498.301636 209.555649,497.961090 209.167282,497.646545 
	C199.922348,490.158875 199.921600,489.878448 208.973236,482.157074 
	C209.466400,481.736389 209.841782,481.177582 210.473755,480.451202 
	C207.984741,475.741730 202.944855,473.687775 199.440369,470.029358 
	C203.156860,462.798553 208.153107,456.900391 214.083038,451.720276 
	C216.588928,449.531189 219.040710,447.265656 221.365479,444.886719 
	C227.175323,438.941650 227.270905,438.050568 221.721313,431.677979 
	C219.131714,428.704376 216.030884,426.175934 213.545532,423.810852 
	C213.630005,421.560699 214.725861,421.097137 215.830292,420.691223 
	C224.786713,417.399597 231.361618,411.208405 236.654907,403.500854 
	C237.473312,402.309174 238.273743,401.307343 239.805496,401.542755 
	C245.221649,402.375092 250.730423,402.876282 254.929596,407.162018 
	C256.289948,408.550385 257.769806,411.856293 259.913208,409.889984 
	C262.428741,407.582306 266.813660,405.884705 265.362091,400.786041 
	C263.725098,395.036041 262.156433,389.277130 261.617798,383.242035 
	C260.049438,365.669403 265.853973,350.235260 274.463776,335.368561 
	C281.429077,323.341400 291.069061,314.809082 303.958069,309.608032 
	C315.987122,304.753998 328.409607,305.366730 340.876740,306.159637 
	C382.012482,308.775757 408.050049,358.588928 393.033173,397.461853 
	C385.144073,417.883789 370.732086,430.455811 350.806213,437.701019 
	C346.381134,439.310028 341.795624,439.797791 336.726318,438.538666 
	C338.344879,434.525818 337.690277,431.048431 335.036652,427.850494 
	C332.658325,424.984222 333.306152,423.313416 337.122375,422.383057 
	C343.583862,420.807800 349.997803,418.973816 355.882050,415.698547 
	C368.542114,408.651672 376.034332,397.831024 378.133331,383.660797 
	C380.805481,365.621765 376.273712,349.562683 362.885284,336.674133 
	C342.702545,317.244934 292.067719,319.100677 282.471954,363.042450 
	C280.660858,371.335968 279.476135,379.735077 280.868744,388.714722 
	C284.990326,383.633545 289.652191,379.123993 293.815430,374.149994 
	C294.148560,373.752014 293.990845,372.892426 293.964142,372.251373 
	C293.088379,351.203033 310.219879,335.357971 331.380707,336.321075 
	C352.806061,337.296173 365.614685,352.283569 367.225128,369.263519 
	C369.212524,390.218109 357.036072,407.507904 337.329620,412.487152 
	C334.932495,413.092834 332.406006,413.285706 329.925140,413.441742 
	C323.172363,413.866394 321.495575,412.128052 322.095154,405.559326 
	C321.803741,405.611145 321.421570,405.563049 321.234467,405.731567 
	C314.015472,412.233002 314.131500,412.122284 320.851868,418.864227 
	C324.242706,422.265961 327.177032,426.130005 330.240631,429.848541 
	C332.906494,433.084229 328.574921,435.205292 328.808624,438.698669 
	C335.499023,440.196075 339.361450,446.603790 345.727905,449.210205 
	C348.665558,450.412872 348.842621,452.369659 347.165588,454.757538 
	C346.496826,455.709747 345.721191,456.586395 345.007782,457.507935 
	C341.044586,462.627686 341.197205,463.425659 346.801147,466.967712 
	C352.101532,470.317902 351.604645,470.917480 347.708099,475.887482 
	C337.483337,488.929230 322.910706,497.069489 311.623993,508.763428 
	C302.125732,518.604309 291.514893,527.663574 285.169464,540.644775 
	C281.491425,537.607361 279.641693,532.802979 274.325928,531.314514 
	C271.883057,538.029541 267.453613,543.403259 263.327789,549.813782 
	C259.878784,545.963196 256.721741,542.438660 253.336624,538.643188 
M222.348679,485.296021 
	C221.217178,487.878937 223.604568,488.435455 224.899536,489.390930 
	C237.402832,498.616486 248.764130,509.095764 259.238861,520.543335 
	C263.509430,525.210449 263.467010,525.325500 267.931244,520.577393 
	C270.048096,518.325928 272.608978,515.398865 275.499512,517.137939 
	C280.591064,520.201233 282.984406,516.995178 285.467865,513.956421 
	C297.026550,499.813324 311.768799,489.822052 327.472839,480.951691 
	C330.464325,479.261902 332.618530,476.226379 334.190979,473.045898 
	C335.233032,470.938232 334.597504,468.958130 332.631165,467.868713 
	C330.297882,466.575928 329.431824,468.705383 328.522491,470.243103 
	C327.932831,471.240234 327.557983,472.362915 327.066284,473.419739 
	C323.623810,480.819092 322.032928,481.340759 314.247253,478.748322 
	C310.609253,477.536926 309.939850,475.869720 311.580322,472.488831 
	C314.147400,467.198334 318.846130,463.870148 322.689880,459.763458 
	C328.512390,453.542694 328.543915,452.278839 322.212891,445.873627 
	C317.616516,449.946777 313.606964,454.585876 309.532532,459.168335 
	C308.458527,460.376282 307.326355,462.399750 305.604218,461.815796 
	C301.786560,460.521301 298.132812,458.366730 296.311462,454.701141 
	C294.785522,451.630127 297.687958,449.517395 299.591400,447.516998 
	C303.492126,443.417419 307.527313,439.446045 311.480530,435.395905 
	C312.521149,434.329742 313.851196,433.147858 312.580109,431.539703 
	C309.839264,428.071930 306.959778,424.713745 304.023560,421.173950 
	C302.849670,422.135254 301.965881,422.648254 301.360077,423.388702 
	C296.938629,428.793121 292.684662,434.338470 288.155151,439.649414 
	C284.381714,444.073822 280.416840,444.878845 277.445129,442.257416 
	C271.722290,437.209259 271.484039,435.107086 276.801575,429.696350 
	C283.564972,422.814362 290.468445,416.061981 297.495087,409.448730 
	C306.847717,400.646362 315.571106,391.274872 323.871643,381.486084 
	C326.125122,378.828552 326.213623,376.755310 323.504364,374.256714 
	C320.388763,371.383270 318.043854,371.464844 315.124542,374.607269 
	C304.034180,386.545227 292.743835,398.297119 281.576935,410.164429 
	C269.606354,422.885742 256.794250,434.836945 246.156631,448.781067 
	C244.797852,450.562225 243.067017,452.451569 240.852417,452.053406 
	C231.699753,450.407867 228.441605,459.106720 221.476471,461.837708 
	C224.057114,465.395386 227.941025,465.844330 230.237488,468.555939 
	C233.890121,472.869019 234.035217,474.751434 229.948639,478.637726 
	C227.661957,480.812378 225.167114,482.768158 222.348679,485.296021 
M327.521606,400.483582 
	C334.601471,400.126587 340.164886,396.613861 344.915375,391.747864 
	C353.788574,382.658844 354.359009,368.706879 346.463684,358.460693 
	C339.952606,350.010956 325.893555,347.557678 315.554901,353.261444 
	C308.359283,357.231201 302.818329,362.985901 297.939117,370.501129 
	C302.308594,367.215485 305.886993,364.226318 309.757202,361.680817 
	C316.450165,357.278625 323.734589,355.880341 330.959534,360.009796 
	C337.560211,363.782562 341.420776,369.584076 341.193085,377.602386 
	C341.017273,383.792206 337.176025,387.940399 333.477814,392.255920 
	C331.274384,394.827118 327.901764,396.462494 327.521606,400.483582 
M246.632019,418.880157 
	C244.940964,416.922699 243.358841,417.154022 241.646286,418.950867 
	C239.481995,421.221649 237.130722,423.314484 234.971619,425.589905 
	C233.886505,426.733429 232.157364,427.888428 233.014236,429.760529 
	C233.894302,431.683380 235.757294,432.515869 237.872513,432.661255 
	C241.865631,432.935669 243.911514,429.749878 246.688171,427.797852 
	C250.560776,425.075287 251.065842,422.375580 246.632019,418.880157 
z"/>
<path fill="#000000" opacity="1.000000" stroke="none" 
	d="
M613.333374,196.317657 
	C631.519165,180.532623 652.577637,172.005920 675.856995,168.992538 
	C708.596802,164.754517 738.271790,172.553421 764.518250,192.807571 
	C769.927307,196.981674 775.345215,201.155151 779.682129,206.502609 
	C785.928101,214.203857 785.340576,221.104675 777.978760,227.497971 
	C772.695190,232.086426 762.997131,231.273804 757.835999,225.210190 
	C744.314331,209.324158 726.870483,200.282440 706.622681,197.865768 
	C680.725281,194.774780 655.747986,198.235855 633.726685,213.918671 
	C629.349792,217.035797 625.893982,221.126907 622.070251,224.828049 
	C615.858337,230.840714 608.474121,231.926331 603.877075,227.450867 
	C597.611389,221.351028 597.074768,211.580750 602.968018,205.480225 
	C606.078796,202.260117 609.680603,199.514359 613.333374,196.317657 
z"/>
<path fill="#000000" opacity="1.000000" stroke="none" 
	d="
M409.638855,465.365387 
	C439.282349,457.678192 462.804504,476.725891 463.466400,507.525085 
	C464.038300,534.137695 438.760254,558.198364 407.294403,548.097656 
	C391.166046,542.920349 383.488281,529.987915 380.186707,514.323364 
	C375.578522,492.459076 387.877014,472.183807 409.638855,465.365387 
M410.545532,518.945374 
	C411.029419,519.401550 411.473846,519.910583 412.003204,520.305847 
	C417.848785,524.671387 424.722046,525.009521 430.095978,521.217468 
	C435.996704,517.053711 438.741638,509.471130 436.761993,502.803284 
	C434.618408,495.583191 429.602142,491.340027 422.961823,491.129944 
	C414.605286,490.865540 409.598999,494.168640 406.783295,501.673798 
	C404.427185,507.953827 406.268921,513.370422 410.545532,518.945374 
z"/>
<path fill="#000000" opacity="1.000000" stroke="none" 
	d="
M629.912720,530.758057 
	C618.347168,547.864502 597.935242,554.685303 580.258362,547.600098 
	C562.140625,540.338135 549.907715,519.069336 553.194641,499.889435 
	C556.319214,481.656982 566.551880,469.257812 584.662415,464.352722 
	C608.006897,458.029999 633.298279,474.133057 636.254150,501.640869 
	C637.352783,511.865204 635.440247,521.544861 629.912720,530.758057 
M596.160400,523.557678 
	C597.615906,523.206299 599.108643,522.964600 600.520386,522.484558 
	C606.560364,520.431030 610.682556,514.556213 610.800659,507.956543 
	C610.931152,500.659180 606.781860,493.950928 600.654175,491.552307 
	C594.783813,489.254456 587.541504,491.047058 583.483521,496.141785 
	C579.234314,501.476715 577.892700,507.426605 580.892151,513.877380 
	C583.745605,520.014099 588.675049,523.148987 596.160400,523.557678 
z"/>
<path fill="#000000" opacity="1.000000" stroke="none" 
	d="
M514.940186,589.904419 
	C523.059204,589.867310 522.993225,589.890686 525.611450,597.287659 
	C530.364258,610.715088 535.609375,623.965393 539.848877,638.102051 
	C546.423645,626.691467 549.724060,614.616272 554.664490,603.238281 
	C554.929688,602.627625 555.151306,601.998169 555.414673,601.386719 
	C560.822021,588.832886 561.534180,588.479797 575.335754,589.665283 
	C578.483704,589.935669 579.191589,591.448242 579.033203,594.247559 
	C577.696228,617.869568 577.719177,641.496094 578.938049,665.123535 
	C578.979919,665.934937 579.143738,667.156860 578.704834,667.511169 
	C574.650574,670.783997 569.846741,668.786316 565.381226,669.087341 
	C562.507935,669.281067 562.699951,666.634949 562.709045,664.673157 
	C562.769836,651.518066 561.003723,638.411743 561.951111,624.093994 
	C557.204102,636.805847 552.905884,648.434204 548.504211,660.023132 
	C547.340820,663.086243 546.401672,666.125916 541.818176,666.116394 
	C537.462708,666.107300 536.053345,663.498108 534.660217,660.402466 
	C529.606934,649.173584 524.917236,637.798157 520.366699,626.103455 
	C520.366699,633.580261 520.365112,641.057129 520.367249,648.533997 
	C520.368774,653.697876 520.190125,658.870850 520.444153,664.022400 
	C520.617676,667.540527 519.788452,669.021851 515.845825,669.097656 
	C504.881439,669.308472 504.856628,669.505005 504.843018,658.509277 
	C504.818695,638.853699 504.766785,619.197754 504.855408,599.542603 
	C504.908173,587.834900 504.381195,590.109863 514.940186,589.904419 
z"/>
<path fill="#000000" opacity="1.000000" stroke="none" 
	d="
M479.510437,627.093750 
	C479.546692,625.445862 479.546692,624.188354 479.546692,622.930908 
	C479.303284,622.876221 479.059875,622.821594 478.816467,622.766907 
	C476.609924,628.795593 474.070007,634.727356 472.282715,640.877808 
	C470.135040,648.268250 466.691864,655.123413 464.197083,662.352356 
	C463.215240,665.197449 461.203308,665.970398 458.436340,666.095886 
	C455.584808,666.225159 453.658417,665.296021 452.494995,662.625244 
	C447.717438,651.657776 441.554565,641.282837 438.490234,629.579590 
	C438.010376,627.747070 437.671021,625.735046 435.401581,623.756409 
	C435.401581,630.969482 435.410309,637.524658 435.399170,644.079834 
	C435.387848,650.740234 435.252289,657.402649 435.379486,664.060181 
	C435.441315,667.298340 434.576569,668.951843 430.944183,668.994019 
	C418.206360,669.141541 421.119019,670.538879 420.620728,659.544617 
	C419.640442,637.915527 420.324493,616.270020 419.706787,594.642578 
	C419.589111,590.522339 420.619568,588.575378 424.982117,589.643372 
	C425.140350,589.682068 425.313965,589.657349 425.480347,589.663452 
	C437.932465,590.118103 437.820496,590.161804 442.457733,602.062500 
	C447.091370,613.953918 452.524384,625.523193 456.831573,639.246765 
	C460.158173,631.626648 462.824280,625.482483 465.520782,619.351685 
	C469.272339,610.822205 473.152588,602.347046 476.755127,593.755310 
	C478.060150,590.642883 479.999512,589.380249 483.267883,589.733826 
	C484.749420,589.894043 486.262299,589.757385 487.760864,589.768677 
	C496.478577,589.834290 496.486725,589.836121 495.944122,598.791687 
	C494.613617,620.752075 495.452545,642.725037 495.695770,664.690369 
	C495.732941,668.047729 495.067657,669.149963 491.635162,668.930298 
	C479.784882,668.172058 479.528290,668.256531 479.748413,656.388245 
	C479.927307,646.742554 477.829468,637.129944 479.510437,627.093750 
z"/>
<path fill="#000000" opacity="1.000000" stroke="none" 
	d="
M643.152954,261.363068 
	C636.419250,261.375824 633.703857,256.966736 631.655945,252.073441 
	C629.771790,247.571259 629.462280,243.080963 633.118164,239.024338 
	C644.524170,226.368195 658.431030,218.126404 675.295288,215.261627 
	C698.921692,211.248108 720.640869,215.499191 739.593445,230.821777 
	C742.294067,233.005142 744.666016,235.625198 747.026123,238.193817 
	C753.534241,245.277100 753.375122,252.617950 746.692688,258.773743 
	C741.100891,263.924988 730.677917,263.664215 725.681458,257.394562 
	C712.898743,241.354645 681.416138,238.081436 665.515442,248.269196 
	C662.106750,250.453201 659.161804,253.158691 656.456360,256.054199 
	C652.891846,259.868958 648.761047,261.723846 643.152954,261.363068 
z"/>
<path fill="#000000" opacity="1.000000" stroke="none" 
	d="
M642.621948,598.693481 
	C642.866882,588.960938 640.894653,588.829956 652.178223,588.900879 
	C660.331665,588.952148 668.486084,588.826599 676.640198,588.795105 
	C685.492676,588.760986 691.234863,594.442261 697.019775,599.988525 
	C697.577515,600.523315 698.032715,601.458984 698.049500,602.219299 
	C698.250977,611.309998 699.780151,620.513489 695.865417,629.281433 
	C694.607117,632.099670 692.912048,634.581055 690.108887,635.940613 
	C686.696655,637.595581 686.974243,639.888672 688.787292,642.377930 
	C691.625793,646.275208 694.663879,650.026489 697.561340,653.881714 
	C698.555969,655.205078 699.540527,656.577881 700.259766,658.059143 
	C704.241577,666.259888 702.720032,668.016479 694.017029,668.600708 
	C686.383911,669.113098 681.804504,666.265930 678.690674,659.716309 
	C676.909424,655.969604 674.727356,652.414185 672.746399,648.761353 
	C671.160950,645.837952 669.725830,642.817810 667.274353,640.468872 
	C665.470398,638.740356 663.313599,637.695557 660.931030,638.762634 
	C658.564453,639.822571 659.302979,642.241882 659.531616,644.103088 
	C660.410156,651.254333 660.057556,658.375977 659.519592,665.520874 
	C659.313904,668.252197 658.242004,669.179626 655.449097,669.098083 
	C641.916992,668.702576 642.986694,672.370911 642.761169,656.982361 
	C642.534485,641.517883 642.093689,626.056396 641.891418,610.591675 
	C641.841675,606.784241 642.354126,602.969482 642.621948,598.693481 
M679.300659,607.194824 
	C672.540894,602.195618 665.246765,604.460876 658.226074,604.973999 
	C658.226074,608.114197 658.210632,610.594055 658.228699,613.073669 
	C658.313171,624.655518 658.316467,624.655518 670.100952,624.657227 
	C681.542847,624.658875 685.553711,617.686462 679.300659,607.194824 
z"/>
<path fill="#000000" opacity="1.000000" stroke="none" 
	d="
M362.230896,663.889832 
	C352.816742,655.787842 348.095093,645.982239 348.651703,633.763367 
	C348.954102,627.125000 348.375122,620.481934 349.621796,613.846191 
	C354.058929,590.228394 382.774200,579.496826 401.587250,594.470032 
	C409.851227,601.047241 411.576660,610.274841 412.063629,619.915283 
	C412.483765,628.233276 412.257660,636.568298 411.280884,644.866760 
	C409.833862,657.160278 397.395813,668.273499 383.886993,669.251587 
	C376.222443,669.806580 368.895782,668.924744 362.230896,663.889832 
M365.318268,634.142273 
	C365.319672,637.693848 366.163849,641.061157 367.694305,644.238953 
	C370.626434,650.327087 376.939972,654.181030 382.389343,653.291931 
	C388.874512,652.233948 393.859375,647.102905 394.603943,639.961792 
	C395.449005,631.856689 395.520325,623.657410 394.621155,615.576111 
	C393.466034,605.195007 381.861908,599.656006 373.724426,605.283875 
	C368.354828,608.997498 365.149384,613.959534 365.294189,620.755798 
	C365.382660,624.907288 365.301758,629.062439 365.318268,634.142273 
z"/>
<path fill="#000000" opacity="1.000000" stroke="none" 
	d="
M187.639481,612.034424 
	C187.396088,605.388428 187.193985,599.234558 186.894287,593.085510 
	C186.764465,590.421997 187.634506,588.947327 190.557159,589.127930 
	C204.175186,589.969604 217.797745,589.378418 231.405975,588.942932 
	C236.339935,588.784973 237.625687,590.442871 237.421280,595.214233 
	C236.900192,607.376648 237.817810,605.053345 227.001938,605.231201 
	C220.841919,605.332458 214.675919,605.375854 208.518692,605.214050 
	C205.310684,605.129761 204.006363,606.272339 204.081360,609.539185 
	C204.450317,625.607971 202.087265,622.224121 216.229111,622.693359 
	C218.392700,622.765137 220.557953,622.787109 222.721695,622.855103 
	C232.165878,623.152039 233.804245,625.423096 231.871582,634.874512 
	C231.339188,637.478088 229.779190,637.400146 227.868195,637.391663 
	C221.540207,637.363464 215.209030,637.510986 208.885056,637.352417 
	C205.592072,637.269897 204.111725,638.125305 204.120285,641.817322 
	C204.144791,652.384155 203.986328,652.453735 214.419434,653.088989 
	C220.395447,653.452820 226.386765,653.668152 232.373169,653.719360 
	C235.894913,653.749512 237.353287,654.947693 237.348862,658.718201 
	C237.336700,669.080261 237.492233,669.123840 227.328278,669.185608 
	C215.671738,669.256409 204.012253,669.112976 192.359238,669.335205 
	C188.619003,669.406433 187.515656,668.234375 187.556198,664.485168 
	C187.743500,647.167969 187.640274,629.847656 187.639481,612.034424 
z"/>
<path fill="#000000" opacity="1.000000" stroke="none" 
	d="
M777.790894,589.364502 
	C790.870483,589.271057 803.525269,589.231934 816.168335,588.828125 
	C820.807800,588.679932 822.920349,589.921265 821.489563,594.786560 
	C821.397644,595.099243 821.425903,595.448059 821.403564,595.780457 
	C820.762207,605.321472 820.762268,605.315979 810.952148,605.312866 
	C805.620422,605.311157 800.288330,605.374084 794.957092,605.327026 
	C791.691711,605.298218 790.219421,606.625671 790.044189,610.069458 
	C789.466797,621.421326 789.366089,621.380066 800.727966,621.856201 
	C805.698853,622.064453 810.662109,622.454651 815.705444,622.766968 
	C816.862915,626.648804 816.147827,630.304504 816.208618,633.909302 
	C816.248047,636.256165 814.532776,636.361511 812.744019,636.425964 
	C806.588623,636.647705 800.437317,637.085754 794.281372,637.151123 
	C790.712219,637.189087 789.313843,638.449341 789.259583,642.162109 
	C789.097900,653.223572 788.962952,653.190247 800.124939,653.095459 
	C807.254089,653.034973 814.384155,653.084106 821.649414,653.084106 
	C822.757812,658.375488 821.176270,662.753845 821.282837,667.165405 
	C821.333130,669.246155 819.448914,669.152222 817.928589,669.162415 
	C804.433716,669.252808 790.937622,669.265808 777.444763,669.480713 
	C773.706543,669.540344 774.013489,667.031799 773.961914,664.778809 
	C773.771545,656.463501 773.433777,648.138794 773.641479,639.829895 
	C774.020813,624.659058 772.924011,609.525818 772.879578,594.370850 
	C772.871094,591.482544 772.793945,588.263123 777.790894,589.364502 
z"/>
<path fill="#000000" opacity="1.000000" stroke="none" 
	d="
M613.998901,589.627075 
	C620.330688,589.621277 626.168884,589.779846 631.991882,589.550598 
	C635.113403,589.427673 636.021973,590.646790 636.180664,593.568298 
	C636.798157,604.937378 636.869934,604.908142 625.675842,604.951782 
	C620.011108,604.973877 614.345886,605.202087 608.682617,605.151306 
	C605.605774,605.123779 604.097656,606.072815 604.193848,609.452393 
	C604.640625,625.163696 602.159729,622.299072 616.944702,622.662659 
	C620.775269,622.756897 624.609253,622.741821 628.441528,622.733582 
	C631.756042,622.726440 633.381042,624.243835 633.155823,627.644104 
	C633.056824,629.137817 633.062439,630.644592 633.123474,632.141296 
	C633.256958,635.414734 631.680420,636.409241 628.515869,636.332825 
	C621.856079,636.171936 615.188110,636.370483 608.523438,636.381409 
	C604.856506,636.387451 603.137573,637.509521 603.690613,641.791443 
	C605.015625,652.051392 604.822571,651.902405 615.360046,653.073730 
	C621.689453,653.777344 628.002197,653.614075 634.322937,653.614258 
	C637.361572,653.614380 639.085388,654.159546 638.499207,657.822205 
	C637.950134,661.252808 638.979309,665.317810 637.478943,668.121704 
	C635.414124,671.980469 631.260498,668.384033 628.029541,668.572632 
	C616.067993,669.270874 604.053406,669.037598 592.060059,669.233276 
	C589.090942,669.281677 587.842468,668.012024 587.840210,665.068970 
	C587.822021,641.240417 587.778198,617.411682 587.671387,593.583374 
	C587.657288,590.448547 589.170288,589.612549 592.003357,589.645996 
	C599.167542,589.730652 606.333618,589.646484 613.998901,589.627075 
z"/>
<path fill="#000000" opacity="1.000000" stroke="none" 
	d="
M303.325684,634.766174 
	C303.478790,643.888489 307.307861,649.967102 313.950562,652.093628 
	C320.526581,654.198730 327.859100,651.332336 330.725342,645.030273 
	C332.276093,641.620605 334.275177,641.554565 337.064850,642.871216 
	C340.693207,644.583740 343.888153,646.932068 346.942169,649.379272 
	C341.296082,662.951477 325.609589,671.613647 311.607635,669.084778 
	C297.451538,666.528137 287.025574,653.940979 286.723694,638.868347 
	C286.583771,631.881287 286.627594,624.889038 286.683716,617.899963 
	C286.787415,604.986389 293.465057,596.177368 304.672668,590.841980 
	C315.693939,585.595154 326.588989,586.179993 336.725677,593.551819 
	C337.263885,593.943176 337.806122,594.330139 338.328522,594.741943 
	C346.906006,601.504395 347.172791,605.214111 339.800995,613.544250 
	C337.223785,616.456543 334.934387,616.825012 332.713531,613.203430 
	C331.314850,610.922546 329.610382,608.902954 327.535187,607.173218 
	C318.570496,599.700500 306.617828,603.928467 304.213898,615.395203 
	C302.899994,621.662476 303.437866,627.990723 303.325684,634.766174 
z"/>
<path fill="#000000" opacity="1.000000" stroke="none" 
	d="
M754.156250,613.004822 
	C750.917847,608.835693 747.551575,605.326965 742.529419,604.289368 
	C735.086304,602.751587 727.523743,607.481873 725.268311,615.276306 
	C723.018982,623.049622 722.534180,630.987000 724.297974,638.979614 
	C726.142212,647.336853 731.276733,652.640991 738.253540,653.316162 
	C745.856873,654.051941 751.542908,650.250671 755.354553,641.548767 
	C760.476929,641.871277 764.417603,644.845581 768.213928,647.991455 
	C769.638184,649.171692 769.013184,650.757324 768.140259,652.074768 
	C758.320679,666.894287 745.588379,673.981201 727.621460,667.024414 
	C716.224304,662.611328 710.208313,652.658325 708.006958,641.010010 
	C706.502380,633.048889 706.282104,624.816284 707.633484,616.649292 
	C709.831604,603.364990 717.800537,594.706116 729.811829,589.881897 
	C741.823853,585.057434 752.739136,588.116150 762.172668,596.621460 
	C767.465271,601.393311 768.332092,605.860962 765.365295,610.720581 
	C763.095581,614.438416 757.957397,615.642883 754.156250,613.004822 
z"/>
<path fill="#000000" opacity="1.000000" stroke="none" 
	d="
M668.440369,290.013519 
	C663.264771,266.381165 684.931458,256.326385 699.597961,261.827942 
	C710.603516,265.956238 714.072815,274.091553 713.795898,285.056580 
	C713.523804,295.832520 705.535828,305.136658 696.045593,307.221771 
	C686.300171,309.362976 675.958862,304.714050 670.997009,295.868408 
	C670.027832,294.140564 669.368958,292.238647 668.440369,290.013519 
z"/>
<path fill="#000000" opacity="1.000000" stroke="none" 
	d="
M699.951172,511.300842 
	C686.488098,510.958313 673.514771,510.693756 660.548340,510.232361 
	C656.969482,510.105011 652.420410,510.371674 651.131653,506.226257 
	C649.660645,501.494812 651.142578,496.586456 653.978271,492.510559 
	C655.395386,490.473724 658.154602,490.722565 660.491577,490.772400 
	C674.463562,491.070099 688.436523,491.339386 702.405518,491.745758 
	C707.757507,491.901428 713.020020,491.220154 718.319214,490.733490 
	C726.186951,490.010986 730.919067,493.415924 731.213135,499.700531 
	C731.511536,506.078796 725.786560,512.124817 718.866760,512.157227 
	C712.727112,512.185852 706.584717,511.612305 699.951172,511.300842 
z"/>
<path fill="#000000" opacity="1.000000" stroke="none" 
	d="
M676.003296,459.176941 
	C669.692627,459.005005 663.871277,459.199707 658.082153,458.337646 
	C655.330566,457.927887 653.923889,456.809357 654.012939,453.832703 
	C654.307068,443.995605 659.472290,439.005035 669.166809,438.910187 
	C685.118347,438.754181 701.067017,438.302277 717.018616,438.158752 
	C722.371948,438.110535 727.709900,438.330994 730.263977,444.644592 
	C733.187195,451.870575 728.664001,459.314331 720.894531,459.324951 
	C706.097229,459.345184 691.299744,459.234802 676.003296,459.176941 
z"/>
<path fill="#000000" opacity="1.000000" stroke="none" 
	d="
M521.919922,514.280518 
	C510.966187,514.238586 500.498169,514.293762 490.033508,514.131470 
	C479.393860,513.966431 474.657501,506.883362 478.065613,496.667755 
	C479.289642,492.998779 482.107056,491.999908 485.437988,491.953949 
	C497.231293,491.791199 509.026093,491.737854 520.820374,491.648651 
	C522.481628,491.636078 524.143127,491.653778 525.804504,491.659149 
	C534.137573,491.686096 537.199646,494.213928 537.287354,501.137634 
	C537.394043,509.562744 533.194519,514.208008 525.397583,514.284363 
	C524.400879,514.294128 523.403992,514.283325 521.919922,514.280518 
z"/>
<path fill="#000000" opacity="1.000000" stroke="none" 
	d="
M667.892578,396.346130 
	C681.103760,396.148956 693.899109,396.090393 706.693115,395.924042 
	C712.353088,395.850433 715.574219,398.938446 717.575012,403.803375 
	C719.447937,408.357330 716.575317,411.377258 714.062073,414.482971 
	C712.465515,416.455872 710.215149,417.064392 707.814819,417.027832 
	C693.025574,416.802612 678.237061,416.530182 663.448303,416.273956 
	C661.286560,416.236511 658.769836,415.618805 659.274719,413.183502 
	C660.560120,406.983459 661.429504,400.382874 667.892578,396.346130 
z"/>
<path fill="#000000" opacity="1.000000" stroke="none" 
	d="
M695.006226,356.030396 
	C702.327209,355.918060 709.141541,355.805725 715.947449,356.626678 
	C720.621582,357.190460 725.921387,362.728790 725.956482,367.427582 
	C725.991028,372.049835 720.940186,377.119843 715.815186,377.110718 
	C702.997986,377.087921 690.168518,377.420563 677.371460,376.351990 
	C672.354614,375.933014 671.374084,374.476227 672.662354,369.498016 
	C675.835388,357.236908 677.291931,356.107147 690.011414,356.045654 
	C691.510315,356.038422 693.009277,356.038513 695.006226,356.030396 
z"/>
<path fill="#000000" opacity="1.000000" stroke="none" 
	d="
M351.000854,552.917114 
	C367.887390,553.333252 384.302460,552.143616 400.643524,553.201843 
	C401.095886,556.039062 399.433838,557.077637 398.050720,558.173218 
	C395.910065,559.869019 393.369507,560.950500 390.678650,560.943481 
	C359.902039,560.863892 329.105743,562.427246 298.357635,559.944214 
	C296.375305,559.784180 294.412323,559.265198 293.004486,557.243774 
	C294.312958,554.349731 297.012604,554.278320 299.624878,554.035706 
	C316.557007,552.463013 333.526215,552.556030 351.000854,552.917114 
z"/>
<path fill="#000000" opacity="1.000000" stroke="none" 
	d="
M627.004944,552.687012 
	C647.983459,552.699463 668.463318,552.672241 688.942627,552.760742 
	C692.497742,552.776062 697.865540,552.120544 697.959595,556.587158 
	C698.040710,560.441467 692.626404,560.741028 689.144226,561.096008 
	C670.385559,563.008545 651.594177,562.502686 632.797546,561.589844 
	C625.485107,561.234741 618.153748,561.284546 610.833618,561.063721 
	C608.573853,560.995605 606.104736,561.243835 604.531494,558.823364 
	C606.157654,554.341309 608.608337,551.703735 614.037354,552.530396 
	C618.107178,553.150024 622.343750,552.674438 627.004944,552.687012 
z"/>
<path fill="#000000" opacity="1.000000" stroke="none" 
	d="
M497.001770,552.648193 
	C517.279114,552.879761 537.056458,553.099854 557.860413,553.331299 
	C555.469788,557.004089 553.038879,557.119385 550.825439,556.789124 
	C533.428101,554.193237 516.370972,558.060913 499.162933,559.212341 
	C480.753204,560.444092 462.311066,561.480835 443.841095,561.077332 
	C439.307678,560.978394 435.278625,559.669373 434.628876,552.636719 
	C455.470856,552.636719 475.986298,552.636719 497.001770,552.648193 
z"/>
<path fill="#000000" opacity="1.000000" stroke="none" 
	d="
M786.854736,378.297180 
	C777.693604,369.014832 781.783325,358.359802 789.793762,354.155243 
	C795.829834,350.987000 803.219482,353.198578 807.410156,359.091125 
	C811.502258,364.845123 810.644775,372.118378 805.222229,377.650421 
	C800.456421,382.512451 793.132690,382.883331 786.854736,378.297180 
M794.996765,369.301666 
	C797.251038,370.132080 798.495911,369.243652 798.554382,366.949310 
	C798.590759,365.518646 797.694214,364.225464 796.173767,364.563934 
	C793.859619,365.079102 793.897522,366.917786 794.996765,369.301666 
z"/>
<path fill="#000000" opacity="1.000000" stroke="none" 
	d="
M266.074463,626.638306 
	C270.507996,626.643738 274.464813,626.643738 278.672119,626.643738 
	C279.837585,631.488464 279.148712,636.090271 279.035095,640.650696 
	C278.990723,642.431274 277.732880,643.426758 275.980591,643.062012 
	C266.690918,641.128052 257.462097,643.488953 248.196930,643.454468 
	C243.661697,643.437561 242.522888,641.842712 242.627029,637.647705 
	C242.962845,624.121460 240.817551,626.026917 254.674088,626.033691 
	C258.315399,626.035461 261.956512,626.422607 266.074463,626.638306 
z"/>
<path fill="#000000" opacity="1.000000" stroke="none" 
	d="
M741.728577,358.899811 
	C749.724365,349.954742 760.329590,351.454651 765.126343,361.867920 
	C767.601013,367.240326 765.135254,374.299469 759.386536,378.300049 
	C754.588989,381.638672 747.616211,380.795197 743.515808,376.380310 
	C738.382751,370.853546 737.832703,366.142242 741.728577,358.899811 
z"/>
<path fill="#000000" opacity="1.000000" stroke="none" 
	d="
M745.952271,420.209961 
	C738.447327,419.386017 733.473389,413.880219 733.507141,406.908630 
	C733.544312,399.231659 738.143433,393.398315 744.700012,392.712067 
	C751.408508,392.009888 757.524719,396.457855 759.045349,403.144531 
	C760.742798,410.608551 757.397583,416.818756 750.240417,419.349182 
	C749.004944,419.786011 747.663452,419.923218 745.952271,420.209961 
z"/>
<path fill="#000000" opacity="1.000000" stroke="none" 
	d="
M218.247635,362.809021 
	C224.205978,362.737915 229.718826,362.371857 235.193436,362.681458 
	C241.722427,363.050659 244.951401,368.475800 242.245895,373.850281 
	C240.826614,376.669647 238.735519,378.008240 235.399734,377.648865 
	C229.932571,377.059906 224.481476,377.064301 218.985718,378.032532 
	C212.358627,379.200073 209.113800,377.022156 208.716644,371.865631 
	C208.267838,366.038300 211.077347,363.233795 218.247635,362.809021 
z"/>
<path fill="#000000" opacity="1.000000" stroke="none" 
	d="
M747.009399,445.349548 
	C751.855347,438.359985 762.542053,436.427887 769.086060,441.028748 
	C772.526550,443.447632 773.015015,450.780609 770.234680,455.149353 
	C766.744690,460.633209 752.787842,463.266174 748.078247,455.557648 
	C746.147705,452.397888 745.210754,449.246155 747.009399,445.349548 
z"/>
<path fill="#000000" opacity="1.000000" stroke="none" 
	d="
M489.457581,243.017365 
	C482.222137,237.900940 481.381287,232.851669 486.512024,227.637909 
	C489.631256,224.468185 492.998352,224.582977 496.397278,227.005493 
	C500.300446,229.787384 500.993622,232.953873 498.532196,236.844467 
	C496.498718,240.058685 494.643616,243.682190 489.457581,243.017365 
z"/>
<path fill="#000000" opacity="1.000000" stroke="none" 
	d="
M517.465576,224.898544 
	C522.492859,225.020279 525.480591,227.690384 526.136108,232.202255 
	C526.588867,235.319138 522.882568,241.476822 519.965393,242.209549 
	C516.596375,243.055725 514.794556,240.587463 512.977112,238.484589 
	C510.943604,236.131683 509.584991,233.513992 511.400482,230.358109 
	C512.754395,228.004532 514.586853,226.150421 517.465576,224.898544 
z"/>
<path fill="#000000" opacity="1.000000" stroke="none" 
	d="
M540.316833,227.678680 
	C543.168823,229.812744 544.204102,232.408630 543.050232,235.358765 
	C542.136780,237.694153 539.838440,238.737320 537.430481,238.979156 
	C535.194641,239.203690 533.701843,237.750137 532.606262,235.976746 
	C530.964294,233.318954 531.854492,230.779037 533.361206,228.480637 
	C535.117065,225.802200 537.565735,226.345398 540.316833,227.678680 
z"/>
<path fill="#000000" opacity="1.000000" stroke="none" 
	d="
M430.861145,238.557678 
	C428.544342,239.820129 426.823669,239.371704 428.264069,237.006363 
	C429.434723,235.084030 429.553314,232.578430 431.907379,230.611771 
	C434.563385,233.701920 432.899200,236.025497 430.861145,238.557678 
z"/>
</svg>