<?xml version="1.0" standalone="no"?>
<!DOCTYPE svg PUBLIC "-//W3C//DTD SVG 20010904//EN"
 "http://www.w3.org/TR/2001/REC-SVG-20010904/DTD/svg10.dtd">
<svg version="1.0" xmlns="http://www.w3.org/2000/svg"
 width="1024.000000pt" height="1024.000000pt" viewBox="0 0 1024.000000 1024.000000"
 preserveAspectRatio="xMidYMid meet">
<metadata>
Created by potrace 1.16, written by Peter Selinger 2001-2019
</metadata>
<g transform="translate(0.000000,1024.000000) scale(0.100000,-0.100000)"
fill="#000000" stroke="none">
<path d="M4900 10186 c-140 -97 -235 -162 -310 -212 -41 -28 -122 -82 -180
-121 -58 -39 -148 -96 -200 -128 -98 -60 -271 -173 -304 -200 -11 -8 -17 -18
-13 -21 12 -12 63 14 177 88 63 41 126 81 140 88 70 37 830 545 830 556 0 2
-15 4 -32 3 -23 0 -57 -17 -108 -53z"/>
<path d="M5653 10100 c-78 -18 -118 -73 -111 -151 5 -46 4 -49 -31 -72 -111
-73 -242 -157 -284 -183 -26 -16 -73 -45 -104 -66 -30 -20 -75 -42 -99 -48
-37 -11 -44 -17 -44 -37 0 -13 4 -21 10 -18 6 3 7 -1 4 -9 -8 -21 21 -31 51
-18 14 6 26 23 30 41 4 17 13 31 20 31 14 0 83 43 348 217 l128 85 40 -16
c116 -47 219 11 219 122 0 62 -32 106 -88 122 -41 11 -44 11 -89 0z m67 -55
c55 -28 67 -89 25 -130 -32 -33 -75 -32 -114 1 -34 29 -38 51 -16 94 26 50 57
60 105 35z"/>
<path d="M6710 9990 c-52 -33 -122 -77 -155 -98 -33 -21 -85 -55 -115 -74 -30
-19 -93 -60 -140 -90 -247 -161 -435 -281 -520 -332 -52 -32 -102 -64 -110
-71 -8 -8 -42 -29 -75 -48 -33 -19 -97 -57 -142 -85 -45 -27 -89 -52 -99 -54
-23 -4 -29 -24 -9 -32 18 -7 101 37 245 129 36 23 135 86 220 140 85 54 259
166 385 250 127 83 277 182 335 220 58 38 141 95 185 128 131 98 130 101 -5
17z"/>
<path d="M8048 9802 c-94 -63 -231 -151 -288 -186 -25 -15 -88 -55 -140 -89
-52 -33 -144 -90 -205 -127 -115 -70 -264 -163 -375 -234 -36 -23 -86 -54
-112 -69 -46 -26 -64 -44 -56 -52 2 -3 49 23 104 56 54 34 119 71 144 84 44
22 146 88 450 290 83 55 165 109 183 120 98 59 389 255 379 255 -5 0 -43 -22
-84 -48z"/>
<path d="M8445 9685 c-34 -33 -34 -92 0 -129 30 -33 64 -33 99 -1 21 19 26 33
26 69 0 79 -72 115 -125 61z"/>
<path d="M6691 9592 c-52 -31 -104 -64 -117 -72 -12 -8 -46 -30 -76 -47 -64
-39 -145 -90 -315 -200 -71 -45 -148 -93 -173 -105 -25 -13 -72 -42 -105 -66
-33 -24 -105 -72 -160 -107 -55 -36 -95 -65 -88 -65 17 0 153 66 183 88 14 11
45 31 70 46 25 15 68 41 95 58 28 17 75 44 105 60 77 41 603 386 671 440 59
47 9 30 -90 -30z"/>
<path d="M7030 9591 c-21 -15 -37 -17 -92 -12 -61 6 -67 5 -62 -11 3 -12 -8
-24 -43 -44 -26 -15 -94 -58 -151 -96 -57 -37 -106 -68 -110 -68 -3 0 -14 -8
-25 -17 -10 -10 -45 -34 -78 -53 -145 -87 -199 -122 -264 -175 -38 -32 -81
-62 -95 -68 -47 -21 -130 -78 -130 -88 0 -11 93 38 187 98 29 18 55 33 58 33
4 0 13 6 20 13 8 6 64 44 125 82 182 114 390 250 468 305 62 44 78 51 105 46
33 -7 84 20 106 56 14 22 12 22 -19 -1z"/>
<path d="M3595 9420 c-98 -11 -153 -27 -165 -50 -16 -30 -34 -24 -53 15 -20
43 -32 44 -45 5 -9 -25 -8 -31 8 -40 10 -5 25 -10 33 -10 8 0 21 -7 28 -16 7
-9 37 -31 66 -50 29 -18 87 -65 129 -104 91 -85 170 -145 203 -155 l24 -7 -7
65 c-7 70 -42 217 -56 230 -4 5 -1 22 7 37 11 24 12 34 2 52 -22 41 -33 43
-174 28z"/>
<path d="M3830 9413 c0 -56 65 -360 80 -376 4 -5 17 10 29 33 12 23 35 59 51
79 38 47 130 216 137 253 l6 28 -152 0 c-137 0 -151 -2 -151 -17z"/>
<path d="M4200 9400 c0 -6 -15 -33 -34 -61 -19 -27 -38 -59 -42 -71 -3 -11
-25 -51 -49 -87 -23 -36 -54 -90 -68 -118 -25 -52 -25 -53 -5 -53 12 0 50 30
92 73 139 141 268 234 343 246 19 3 34 11 33 16 0 12 -62 14 -110 4 -39 -9
-64 5 -57 32 3 12 -3 19 -25 23 -46 9 -78 7 -78 -4z"/>
<path d="M1982 9323 c-7 -2 -26 -25 -43 -49 -17 -24 -34 -42 -40 -39 -15 10
-10 -79 6 -101 26 -38 78 -56 127 -45 50 11 82 44 99 100 9 32 8 44 -6 75 -25
53 -91 80 -143 59z"/>
<path d="M3084 9305 c-130 -38 -268 -93 -281 -112 -19 -25 -9 -26 36 -3 46 23
57 14 14 -12 -41 -24 -113 -88 -113 -100 0 -7 4 -7 13 0 6 5 28 13 47 17 31 6
108 39 192 82 14 7 37 13 50 13 13 0 45 18 73 41 27 22 61 43 77 46 40 8 43
20 9 38 -17 8 -31 15 -33 14 -2 0 -40 -11 -84 -24z"/>
<path d="M4468 9295 c-41 -15 -169 -99 -223 -146 -19 -17 -49 -49 -67 -71
l-32 -41 42 27 c100 63 367 156 447 156 39 0 39 0 20 19 -28 26 -112 71 -133
70 -9 0 -34 -7 -54 -14z"/>
<path d="M3251 9256 c-29 -19 -82 -45 -116 -57 -61 -21 -64 -23 -58 -51 4 -19
1 -28 -8 -29 -14 -2 20 -7 173 -28 47 -6 97 -21 128 -37 53 -28 248 -67 307
-62 l32 3 -62 47 c-79 61 -145 113 -177 141 -35 30 -149 107 -158 107 -4 0
-32 -15 -61 -34z"/>
<path d="M4742 9268 c2 -6 14 -12 25 -13 25 -2 81 -47 112 -91 18 -26 31 -32
89 -42 97 -17 192 -18 192 -3 0 7 -48 33 -185 98 -17 7 -42 14 -55 15 -26 0
-42 5 -103 32 -44 19 -80 21 -75 4z"/>
<path d="M2644 9139 c-66 -33 -133 -72 -148 -86 -15 -14 -51 -41 -79 -60 -31
-21 -43 -33 -29 -30 l23 5 -22 -36 c-12 -21 -26 -41 -30 -46 -4 -5 -5 -14 -2
-21 2 -8 -13 -29 -34 -49 -37 -35 -37 -36 -15 -42 35 -10 26 -26 -11 -19 -33
6 -33 6 -46 -47 -7 -29 -33 -94 -57 -143 l-44 -91 7 -94 c7 -98 22 -133 48
-114 113 79 245 179 245 185 0 4 10 9 22 11 31 4 49 46 61 139 12 87 7 109
-25 109 l-22 0 21 15 c21 15 65 98 60 113 -3 10 74 107 96 122 28 17 28 9 3
-45 -36 -79 -46 -113 -32 -119 7 -3 8 -7 1 -13 -22 -18 -55 -100 -55 -136 0
-97 36 -103 182 -32 137 67 476 181 718 240 91 23 102 31 64 46 -26 10 -243 6
-339 -6 -52 -7 -206 -34 -305 -54 -153 -32 -231 -44 -237 -38 -13 14 79 42
247 77 52 10 144 31 205 45 60 14 157 29 214 35 96 9 146 20 92 20 -13 0 -37
7 -54 15 -72 33 -127 46 -220 52 -63 4 -104 11 -113 20 -11 12 -21 11 -64 -8
-47 -20 -51 -21 -90 -5 -31 12 -46 14 -61 6 -32 -18 -12 -30 38 -23 52 7 52
-3 -1 -31 -29 -16 -43 -17 -83 -9 -52 10 -118 -3 -132 -26 -7 -10 -9 -11 -13
-1 -3 10 -15 11 -53 2 -28 -6 -70 -13 -95 -16 -41 -5 -35 0 78 58 83 42 140
80 173 112 44 44 62 74 42 74 -5 0 -62 -28 -129 -61z"/>
<path d="M4550 9168 c-133 -37 -470 -181 -457 -195 3 -3 34 2 69 11 129 32
509 80 443 56 -17 -6 -15 -8 15 -15 l35 -9 -30 -6 c-16 -4 36 -7 118 -8 81 -1
147 2 147 7 0 10 -40 46 -68 60 -19 10 -21 15 -11 27 9 11 8 19 -5 39 -28 42
-58 50 -134 37 -42 -7 -68 -8 -70 -2 -4 11 -5 11 -52 -2z"/>
<path d="M7864 9100 c-68 -9 -313 -89 -389 -128 -151 -75 -264 -198 -309 -335
-32 -96 -79 -402 -66 -427 11 -21 58 -60 71 -60 5 0 9 18 9 39 0 72 68 310
118 411 37 76 61 110 122 171 63 63 86 79 140 98 36 13 103 40 150 61 47 21
136 61 198 88 62 27 113 54 114 58 1 14 -44 34 -72 33 -14 -1 -52 -5 -86 -9z"/>
<path d="M4940 9082 c0 -17 52 -77 78 -91 39 -21 275 -101 280 -96 3 3 -13 31
-34 62 -21 32 -41 62 -43 68 -11 25 -53 47 -116 59 l-30 7 25 -21 c31 -24 32
-24 -60 0 -83 22 -100 24 -100 12z"/>
<path d="M6803 9056 c5 -12 -8 -31 -46 -67 -64 -61 -205 -166 -273 -203 -27
-15 -84 -53 -127 -84 -42 -31 -114 -84 -161 -117 -47 -33 -86 -64 -86 -68 0
-4 12 1 28 11 15 10 68 45 117 77 50 32 133 89 186 127 53 37 99 68 103 68 4
0 24 13 44 28 20 16 65 49 99 75 34 26 64 47 68 47 23 0 78 37 90 60 13 25 12
27 -17 45 -28 16 -31 17 -25 1z"/>
<path d="M5300 9045 c0 -19 29 -77 43 -86 5 -4 19 -4 31 -2 20 5 20 5 2 -9
-18 -14 -18 -15 5 -32 53 -37 261 -158 265 -153 10 10 -16 54 -52 89 -57 54
-150 127 -182 140 -15 7 -46 25 -69 41 -34 22 -43 25 -43 12z"/>
<path d="M7956 9002 c-50 -24 -169 -80 -265 -123 -187 -86 -219 -107 -277
-184 -21 -27 -41 -52 -45 -55 -18 -14 -80 -157 -107 -251 -27 -92 -52 -209
-52 -246 0 -14 150 -93 175 -93 25 0 62 29 74 58 6 15 18 67 27 116 9 50 26
114 39 143 33 73 109 177 158 216 40 32 195 128 227 140 8 3 53 31 100 61 47
30 110 68 141 84 31 16 67 36 80 45 13 9 48 22 79 28 61 12 99 34 84 48 -14
14 -257 61 -305 59 -27 -1 -75 -17 -133 -46z"/>
<path d="M4350 8949 c-139 -16 -181 -23 -186 -30 -3 -5 26 -9 65 -9 38 0 96
-6 128 -14 32 -8 92 -20 133 -27 51 -8 69 -14 55 -19 -19 -7 -19 -7 0 -18 30
-16 15 -22 -30 -12 -52 12 -57 5 -8 -10 21 -6 85 -33 143 -60 154 -70 262
-110 324 -120 30 -5 65 -14 78 -21 28 -14 68 -50 68 -60 0 -8 -72 -6 -100 3
-8 3 -12 3 -7 1 4 -3 7 -10 7 -17 0 -6 14 -28 31 -49 36 -44 26 -49 -19 -8
-17 16 -41 32 -52 36 -11 3 -23 17 -26 30 -3 13 -16 27 -27 30 -12 3 -53 15
-92 26 -38 12 -86 26 -105 31 -19 6 -80 32 -135 58 -55 26 -127 56 -160 65
-94 27 -175 57 -181 66 -3 5 -23 9 -44 9 -64 0 -41 -21 103 -95 140 -72 156
-82 227 -149 48 -45 202 -175 285 -241 59 -46 285 -274 285 -286 0 -18 8 -13
111 69 23 17 45 32 50 32 5 0 9 18 9 40 0 44 5 48 32 23 34 -31 31 -4 -5 36
-19 21 -38 52 -42 69 -7 35 8 72 31 72 23 0 29 29 8 45 -18 13 -17 14 11 15
17 0 36 -5 42 -11 15 -15 28 66 18 109 -8 39 -30 58 -85 72 -25 6 -82 25 -128
41 -45 17 -102 32 -126 33 -50 4 -66 11 -66 32 0 8 -4 13 -9 9 -5 -3 -12 -1
-15 4 -3 5 -30 15 -58 21 -69 16 -98 33 -43 25 l40 -6 -44 21 c-60 28 -45 36
31 17 134 -34 133 -34 96 30 -34 60 -49 73 -90 79 -21 4 -38 9 -38 13 0 8
-418 8 -490 0z"/>
<path d="M2263 8908 c-85 -55 -246 -190 -298 -251 -33 -38 -50 -66 -50 -85 -1
-15 -15 -48 -33 -72 -44 -62 -102 -180 -102 -207 0 -20 7 -16 53 30 64 62 189
159 196 151 7 -7 -76 -83 -181 -167 -65 -51 -80 -69 -92 -107 -21 -66 -36
-185 -33 -262 2 -64 3 -68 25 -68 17 0 55 32 130 108 59 60 126 125 148 144
32 28 43 45 47 74 2 22 10 65 16 96 7 32 11 90 9 130 -3 61 -6 73 -20 72 -15
-1 -15 1 -3 20 8 12 30 36 50 53 24 22 37 45 45 78 14 62 53 145 95 199 80
105 80 116 -2 64z"/>
<path d="M4967 8934 c-9 -9 52 -101 98 -148 45 -46 184 -107 255 -112 34 -2
40 0 40 17 0 10 -4 19 -9 19 -5 0 -13 9 -16 20 -5 15 -12 19 -31 14 -13 -3
-24 -2 -24 4 0 5 14 12 30 16 23 4 30 11 30 29 0 13 -8 31 -18 40 -17 15 -85
44 -123 52 -9 2 -47 12 -85 23 -85 25 -139 34 -147 26z"/>
<path d="M3842 8915 c-50 -16 -71 -31 -83 -62 -13 -35 -2 -50 56 -78 53 -24
55 -25 112 -10 100 26 120 35 132 59 20 37 10 59 -39 84 -50 25 -112 28 -178
7z"/>
<path d="M8330 8866 c-20 -6 -73 -40 -118 -73 -45 -34 -126 -82 -179 -108
-239 -116 -358 -206 -409 -310 -17 -37 -30 -92 -44 -196 -11 -79 -27 -180 -35
-224 -9 -44 -24 -132 -34 -195 -11 -63 -28 -151 -40 -195 -11 -44 -27 -133
-35 -197 -9 -64 -24 -157 -35 -205 -11 -48 -22 -113 -26 -143 -3 -30 -19 -136
-35 -235 -16 -99 -43 -277 -59 -395 -50 -355 -89 -611 -106 -690 -9 -41 -34
-217 -56 -390 -22 -173 -42 -329 -45 -346 -4 -23 -1 -33 10 -37 13 -5 15 -38
15 -251 l-1 -245 -43 -38 c-24 -21 -81 -61 -127 -89 -46 -28 -159 -99 -253
-156 -157 -97 -321 -201 -488 -309 -252 -164 -317 -206 -437 -285 -74 -49
-172 -111 -218 -139 -194 -116 -563 -350 -642 -406 -126 -89 -176 -141 -274
-289 -142 -214 -183 -326 -193 -525 -10 -200 51 -379 166 -491 83 -82 138
-105 247 -105 134 0 242 47 365 160 188 172 281 474 220 714 -36 138 -100 230
-194 277 -73 36 -124 38 -204 8 -57 -21 -159 -73 -177 -89 -13 -11 -26 -11
-26 0 0 4 18 28 39 52 38 43 55 53 261 148 25 11 104 58 177 103 72 46 184
115 247 153 111 67 166 102 353 226 45 30 126 81 178 114 53 33 167 106 253
161 234 151 279 180 487 309 226 140 300 192 376 263 90 84 94 96 91 307 -3
182 3 279 18 270 4 -2 11 41 15 98 4 56 20 181 36 277 17 96 39 240 49 319 18
137 29 197 66 371 9 41 15 94 15 117 -2 40 25 261 51 418 8 51 13 64 18 50 5
-14 8 -6 7 25 0 25 1 61 2 80 l4 35 7 -30 c7 -27 7 -26 5 9 -4 46 20 288 36
366 9 43 13 51 20 35 5 -13 8 3 8 47 1 114 53 463 81 553 11 33 26 110 35 170
8 61 26 162 40 225 14 63 29 163 33 222 9 108 24 148 57 148 7 0 33 16 59 36
49 37 210 116 356 174 133 53 200 134 200 242 0 43 -31 85 -76 104 -40 17 -49
17 -94 0z m-3205 -6277 c157 -43 216 -336 109 -547 -76 -151 -197 -239 -344
-249 -67 -5 -85 -3 -124 17 -122 59 -181 213 -156 405 22 174 119 293 294 360
68 27 156 32 221 14z"/>
<path d="M4932 2510 c-144 -52 -220 -132 -258 -272 -37 -141 6 -284 107 -358
51 -37 90 -39 178 -8 122 43 216 162 256 323 26 106 7 214 -48 273 -57 62
-140 76 -235 42z m39 -199 c24 -24 29 -38 29 -76 0 -40 -5 -52 -34 -81 -43
-43 -82 -45 -124 -6 -39 36 -49 86 -28 136 26 62 107 77 157 27z"/>
<path d="M5390 8836 c0 -2 9 -25 19 -49 11 -25 23 -66 26 -91 8 -48 25 -73 25
-36 0 16 4 20 16 16 9 -3 18 -6 20 -6 2 0 4 -4 4 -10 0 -5 -7 -10 -15 -10 -8
0 -15 -4 -15 -9 0 -13 59 -61 87 -72 13 -5 51 -27 84 -50 67 -45 147 -84 156
-75 15 15 -59 188 -91 215 -9 7 -42 26 -74 41 -32 15 -97 53 -145 84 -85 54
-97 61 -97 52z"/>
<path d="M3525 8808 c-38 -10 -142 -37 -230 -59 -88 -22 -198 -55 -245 -74
-47 -19 -145 -54 -217 -79 -73 -25 -141 -49 -150 -55 -34 -18 -64 -58 -70 -94
-7 -43 27 -118 80 -181 l34 -39 79 65 c124 101 233 181 309 226 39 23 81 51
95 62 14 11 52 34 85 52 33 17 98 55 145 83 47 28 104 59 128 69 40 18 51 30
35 39 -5 2 -39 -5 -78 -15z"/>
<path d="M8557 8712 c-20 -77 -68 -155 -124 -201 -21 -17 -80 -52 -133 -78
-114 -57 -317 -174 -346 -200 -16 -14 -25 -42 -38 -128 -9 -60 -25 -159 -37
-220 -11 -60 -25 -141 -30 -180 -6 -38 -16 -108 -24 -155 -25 -151 -27 -176
-16 -160 9 12 11 10 12 -10 1 -24 1 -24 14 5 8 20 26 36 49 45 20 7 36 17 36
22 0 4 4 8 10 8 5 0 45 35 89 78 93 91 150 142 160 142 3 0 40 27 80 60 41 33
77 60 80 60 3 0 20 12 36 28 51 47 138 109 185 132 82 41 194 130 164 130 -4
0 -40 -21 -81 -46 -40 -25 -77 -43 -83 -39 -5 3 -7 0 -4 -8 6 -17 -5 -26 -88
-71 -37 -20 -79 -47 -94 -61 -15 -14 -31 -25 -36 -25 -5 0 -24 -11 -41 -24
-18 -13 -59 -38 -92 -56 -33 -18 -67 -39 -76 -46 -20 -18 -29 -18 -29 1 0 8 7
15 15 15 21 0 19 20 -2 21 -11 0 -13 3 -5 6 22 9 12 25 -13 21 -14 -3 -25 -3
-25 -1 0 2 11 8 25 13 14 5 25 14 25 20 0 15 -11 12 -45 -11 -16 -11 -43 -27
-60 -35 l-30 -15 25 20 c14 11 33 23 43 27 9 3 17 10 17 15 0 5 6 9 13 9 7 0
20 9 30 20 9 11 22 20 29 20 9 0 8 -4 -2 -11 -13 -9 -13 -10 0 -6 8 2 15 9 15
14 0 14 37 46 85 76 19 11 65 43 101 69 37 26 70 48 73 48 6 0 425 305 477
347 76 61 99 87 90 96 -18 18 -95 -27 -329 -190 -45 -32 -113 -79 -151 -106
-67 -46 -102 -54 -97 -20 1 8 16 23 32 32 16 9 31 19 32 24 2 4 10 7 18 7 19
0 56 38 49 50 -3 5 3 14 14 19 15 8 23 7 34 -4 8 -8 17 -11 21 -8 3 3 -2 12
-12 19 -14 11 -15 16 -4 31 6 10 16 28 22 41 5 12 15 22 21 22 7 0 9 10 5 28
-4 18 -4 22 3 13 10 -16 33 -6 29 13 -3 12 41 54 100 96 l34 23 -56 55 c-31
30 -56 61 -56 69 0 7 -9 13 -20 13 -10 0 -35 14 -53 30 -19 17 -36 30 -39 30
-2 0 -11 -31 -21 -68z"/>
<path d="M3629 8726 c-25 -13 -60 -27 -77 -31 -17 -3 -36 -13 -43 -21 -6 -8
-17 -14 -23 -14 -6 0 -22 -6 -36 -14 -14 -7 -61 -32 -105 -56 -174 -92 -214
-117 -325 -196 -129 -92 -208 -156 -240 -197 -38 -48 -18 -82 107 -180 39 -31
75 -61 78 -67 10 -17 25 -11 25 9 0 11 8 22 19 26 10 3 39 36 64 74 66 100
202 257 360 418 77 78 143 146 146 150 3 4 32 30 64 56 81 69 75 89 -14 43z"/>
<path d="M4105 8698 c16 -18 36 -40 45 -48 8 -9 44 -49 80 -90 36 -41 78 -88
93 -105 64 -68 157 -197 216 -300 35 -60 78 -135 96 -165 18 -30 56 -101 84
-157 49 -98 52 -102 83 -101 46 1 89 25 193 108 117 94 127 107 110 140 -17
32 -303 311 -375 364 -30 22 -57 43 -60 47 -13 15 -136 91 -221 137 -129 69
-258 148 -290 178 -14 14 -37 24 -54 24 l-29 0 29 -32z"/>
<path d="M6925 8666 c-61 -36 -162 -98 -225 -139 -63 -41 -157 -98 -209 -128
-95 -55 -181 -122 -170 -134 6 -6 30 8 132 74 193 126 499 316 570 354 37 21
48 37 24 37 -7 0 -62 -29 -122 -64z"/>
<path d="M9440 8609 c-96 -66 -193 -134 -215 -150 -22 -16 -80 -57 -130 -90
-49 -34 -109 -76 -132 -95 -23 -19 -45 -34 -50 -34 -22 0 -173 -122 -173 -140
0 -19 20 -9 137 72 65 45 150 104 188 130 39 27 167 113 285 193 258 173 313
213 305 225 -14 22 -48 4 -215 -111z"/>
<path d="M3978 8695 c-3 -3 8 -49 24 -103 15 -53 44 -167 63 -252 20 -85 40
-168 45 -185 13 -39 67 -356 80 -465 15 -128 30 -182 57 -211 22 -24 28 -26
71 -18 68 13 383 120 377 129 -2 4 -1 31 4 60 8 50 6 57 -34 134 -91 174 -229
398 -318 516 -83 110 -342 400 -357 400 -4 0 -9 -2 -12 -5z"/>
<path d="M3766 8683 c-4 -5 -12 -9 -17 -9 -5 -1 -13 -2 -17 -3 -28 -4 -320
-285 -433 -416 -62 -73 -190 -246 -203 -275 -6 -14 -31 -54 -57 -90 -25 -36
-68 -102 -94 -147 -38 -67 -46 -88 -40 -110 4 -16 7 -43 7 -61 -1 -28 2 -31
13 -22 11 9 24 8 57 -4 24 -9 119 -36 211 -60 l169 -43 29 29 c16 16 29 32 29
34 0 3 -27 39 -60 81 -33 41 -60 81 -60 87 1 6 10 0 21 -14 11 -14 37 -45 57
-69 20 -24 44 -54 52 -67 8 -13 17 -24 21 -24 3 0 11 37 18 83 7 45 22 120 33
166 16 62 18 86 10 89 -16 5 -15 22 1 22 9 0 20 29 31 80 9 44 29 111 43 148
14 37 37 110 52 162 16 52 35 109 44 125 8 17 36 87 61 155 24 69 48 133 51
143 7 17 -14 25 -29 10z"/>
<path d="M3859 8643 c-13 -41 -95 -261 -154 -413 -33 -86 -75 -238 -155 -560
-45 -184 -45 -170 -4 -213 l36 -39 222 4 c169 2 227 7 246 18 14 8 30 14 35
15 6 0 21 11 34 24 19 19 22 30 18 60 -23 146 -59 364 -67 406 -5 28 -19 100
-30 160 -23 119 -70 321 -100 425 -10 36 -24 84 -30 108 -13 52 -34 54 -51 5z"/>
<path d="M5440 8498 c0 -82 0 -83 31 -101 40 -23 31 -34 -10 -12 l-31 16 0
-32 c0 -35 46 -87 123 -137 23 -15 79 -55 125 -89 46 -35 89 -63 97 -63 32 0
42 255 11 281 -17 15 -335 219 -341 219 -3 0 -5 -37 -5 -82z"/>
<path d="M5850 8528 c7 -61 65 -141 156 -218 42 -36 94 -80 115 -99 48 -41 49
-31 9 82 -21 56 -41 94 -63 114 -36 35 -207 163 -217 163 -3 0 -3 -19 0 -42z"/>
<path d="M1753 8445 c-80 -85 -194 -219 -232 -273 -27 -39 -61 -127 -61 -159
0 -19 -37 -104 -130 -298 -38 -79 -57 -144 -70 -234 -17 -118 -24 -136 -30
-71 -5 58 0 109 25 230 9 41 16 87 15 101 0 18 15 43 44 76 43 47 61 90 41 94
-15 3 -227 -390 -274 -509 -12 -29 -30 -76 -42 -104 -11 -29 -27 -66 -34 -83
-29 -64 -97 -298 -110 -382 -9 -48 -19 -106 -25 -128 -5 -22 -13 -82 -16 -134
-7 -91 -6 -94 17 -112 l24 -19 -23 -6 c-14 -4 -21 -12 -18 -21 3 -7 -2 -32
-10 -53 -9 -22 -14 -53 -12 -70 2 -16 1 -27 -2 -25 -11 7 0 -259 16 -412 8
-78 19 -202 24 -275 15 -246 100 -553 143 -520 25 19 107 1 107 -24 0 -9 -10
-14 -28 -14 -40 0 -43 -7 -25 -46 18 -37 14 -47 -19 -49 -28 -2 -49 32 -36 58
11 21 -1 22 -31 1 -20 -14 -23 -23 -18 -61 6 -53 28 -80 74 -89 30 -6 73 -44
73 -65 0 -18 110 -236 142 -281 33 -45 34 -46 55 -30 12 9 23 28 25 42 4 33
34 34 30 1 -2 -20 1 -22 22 -17 14 3 28 0 35 -8 9 -11 6 -15 -13 -20 -17 -4
-32 -21 -47 -54 -19 -39 -23 -43 -26 -24 -4 22 -18 27 -47 16 -11 -4 -16 -19
-16 -53 0 -25 4 -51 8 -57 14 -21 51 -34 95 -34 40 0 48 -4 73 -37 103 -138
479 -512 591 -591 46 -31 83 -60 83 -63 0 -3 -17 -13 -37 -23 -50 -24 -216
-125 -324 -197 -47 -31 -104 -66 -126 -77 -22 -11 -63 -39 -91 -61 -28 -23
-56 -41 -62 -41 -5 0 -10 16 -10 36 0 43 -36 97 -46 70 -3 -9 -4 -32 -2 -51 3
-27 0 -35 -12 -36 -11 0 -11 -2 3 -8 10 -4 19 -11 20 -16 1 -6 7 -9 14 -9 24
3 1 -23 -33 -35 -39 -14 -154 -79 -259 -145 -82 -52 -275 -170 -580 -356 -121
-74 -246 -153 -278 -176 -63 -47 -153 -124 -144 -124 3 0 61 35 129 78 68 43
168 104 223 136 55 32 136 81 180 109 44 27 157 97 250 154 94 57 213 131 265
164 52 34 109 68 125 76 34 17 138 94 143 106 2 4 9 7 16 7 14 0 204 118 426
264 85 57 166 109 180 116 14 7 28 17 31 22 3 5 22 0 42 -11 56 -32 167 -121
167 -135 0 -7 -46 -38 -102 -69 -57 -31 -164 -96 -238 -143 -74 -48 -225 -141
-335 -207 -110 -66 -231 -141 -270 -167 -77 -52 -347 -215 -367 -223 -7 -2
-11 -7 -7 -10 10 -12 295 144 469 258 36 23 90 57 120 74 30 18 109 66 175
106 589 359 584 356 608 341 12 -8 63 -28 112 -46 120 -42 209 -92 234 -133
16 -26 31 -36 71 -46 27 -7 50 -17 50 -22 0 -5 8 -9 17 -9 19 0 -261 -188
-529 -356 -95 -59 -174 -111 -176 -114 -1 -3 -7 -12 -13 -20 -9 -13 -11 -13
-16 -1 -12 29 -53 61 -78 61 -66 0 -105 -49 -105 -131 0 -33 -4 -41 -32 -55
-18 -9 -54 -32 -80 -50 l-46 -34 -30 30 c-44 44 -101 43 -148 -4 -28 -28 -34
-41 -34 -77 1 -50 15 -74 54 -89 79 -30 149 9 162 89 4 23 12 41 19 41 7 0 42
20 79 44 65 43 67 43 135 38 65 -4 70 -3 82 19 7 13 15 39 18 58 6 31 17 41
161 128 85 51 178 108 205 127 80 53 326 202 370 224 47 23 65 19 135 -33 26
-19 50 -35 54 -35 3 0 15 -9 25 -19 11 -11 36 -24 55 -30 77 -21 73 -31 -43
-104 -58 -37 -164 -105 -236 -152 -71 -46 -166 -106 -210 -132 -73 -43 -134
-82 -240 -153 -22 -15 -103 -66 -180 -112 -77 -47 -243 -150 -370 -229 -286
-180 -366 -229 -565 -350 -146 -88 -244 -159 -221 -159 20 0 143 61 198 97 32
22 101 65 153 97 104 62 290 178 470 291 63 40 171 108 240 150 69 43 258 162
420 263 646 405 687 429 749 447 17 5 22 4 19 -6 -7 -21 36 -54 97 -74 40 -14
54 -23 50 -34 -5 -11 -3 -12 10 -1 9 7 19 10 23 6 4 -4 -5 -17 -20 -29 -38
-32 -288 -195 -458 -301 -58 -36 -142 -91 -188 -123 -45 -32 -120 -82 -165
-111 -227 -145 -375 -239 -502 -318 -77 -49 -212 -135 -300 -192 -88 -58 -180
-118 -205 -133 -49 -32 -73 -48 -134 -94 -87 -65 -204 -143 -266 -177 -155
-87 -360 -232 -346 -245 3 -3 38 17 78 44 40 26 78 50 83 52 6 2 23 13 38 24
16 11 76 49 134 84 107 64 163 105 218 156 17 15 71 48 120 72 50 24 117 64
150 88 33 24 146 97 250 162 105 65 246 155 315 200 168 109 375 241 459 291
38 23 93 60 122 82 54 40 151 102 306 194 46 27 103 65 128 84 25 19 98 64
163 101 93 52 125 66 156 65 25 -1 43 -7 49 -17 5 -9 20 -20 33 -26 14 -5 22
-13 19 -19 -3 -5 -56 -44 -118 -86 -62 -42 -152 -104 -200 -138 -132 -92 -225
-154 -339 -227 -396 -254 -533 -343 -818 -527 -74 -48 -214 -137 -310 -196
-96 -60 -190 -123 -207 -140 -23 -21 -33 -25 -33 -15 0 32 -48 62 -105 67 -53
4 -56 3 -96 -37 -39 -38 -41 -44 -36 -84 7 -49 42 -83 96 -93 50 -10 116 25
132 69 9 26 32 47 108 95 125 80 320 204 446 284 55 34 163 103 240 154 324
210 490 318 665 429 102 65 239 155 305 200 143 98 178 117 202 109 28 -9 87
-38 93 -46 8 -10 89 -13 99 -3 4 6 23 57 40 115 35 116 47 143 144 311 47 81
82 129 115 156 51 43 150 98 160 89 3 -3 0 -6 -6 -6 -27 0 -140 -122 -207
-225 -153 -233 -199 -367 -199 -585 -1 -155 15 -230 72 -348 44 -92 125 -168
237 -223 104 -51 128 -67 201 -136 68 -64 123 -112 151 -130 27 -19 119 -63
130 -63 5 0 32 -11 60 -25 28 -13 64 -27 80 -31 15 -4 39 -14 53 -24 45 -30
124 -54 185 -56 75 -3 73 -3 55 -14 -11 -7 -4 -10 28 -10 23 0 42 -4 42 -10 0
-5 7 -10 15 -10 8 0 15 5 15 10 0 6 -7 10 -15 10 -8 0 -15 5 -15 11 0 6 -10
19 -22 30 l-23 18 23 1 c12 0 22 5 22 11 0 7 11 8 30 4 22 -5 30 -3 28 6 -2 6
20 23 47 38 47 24 104 69 147 116 71 76 148 197 148 232 0 7 6 13 13 13 12 0
30 46 58 148 10 33 16 41 30 37 24 -8 32 10 17 37 -16 31 -21 67 -10 81 5 7 8
32 7 57 -1 38 4 52 34 87 29 36 39 41 60 36 14 -3 28 -9 31 -13 7 -10 141 -80
153 -80 12 0 -40 42 -111 90 -28 19 -50 38 -49 42 2 7 313 218 321 218 3 0 42
-37 88 -82 46 -46 121 -110 168 -142 47 -33 96 -69 110 -81 14 -12 54 -39 90
-60 36 -21 101 -64 145 -96 44 -31 161 -106 260 -166 99 -61 241 -147 315
-193 74 -46 169 -103 210 -128 41 -25 100 -64 130 -87 58 -43 139 -89 147 -82
2 3 -10 13 -26 23 -16 11 -74 51 -128 90 -54 40 -141 98 -193 129 -52 32 -165
104 -250 160 -85 56 -201 129 -257 163 -55 33 -148 93 -205 134 -56 41 -123
87 -147 103 -25 15 -49 32 -55 37 -6 5 -51 34 -101 65 -92 58 -278 219 -272
237 2 5 61 47 133 93 71 45 168 107 215 137 97 63 161 93 153 73 -6 -16 52
-77 141 -148 74 -59 160 -119 169 -119 3 0 41 -25 83 -55 43 -30 139 -92 213
-139 74 -46 165 -103 202 -127 116 -75 247 -157 393 -246 77 -47 187 -115 245
-151 58 -36 123 -75 145 -86 22 -11 61 -42 88 -68 51 -51 58 -46 24 17 -17 30
-42 52 -102 87 -96 56 -199 120 -338 208 -56 36 -131 84 -166 105 -35 22 -139
90 -232 150 -93 61 -232 151 -309 200 -77 50 -166 107 -198 128 -31 20 -64 40
-72 45 -52 25 -141 90 -146 105 -3 9 -8 17 -12 17 -4 0 -20 11 -36 25 -16 14
-25 25 -20 25 5 0 31 -20 58 -45 46 -42 51 -44 68 -29 16 15 21 15 48 2 17 -8
31 -19 31 -24 -1 -5 21 -10 49 -12 27 -2 50 -7 50 -11 0 -5 18 -11 40 -15 22
-3 40 -10 40 -15 0 -6 8 -9 18 -9 9 1 44 -16 77 -37 113 -72 264 -170 340
-220 92 -60 303 -193 365 -231 186 -111 380 -236 453 -291 32 -24 62 -41 67
-38 17 10 11 -5 -11 -33 l-21 -27 7 25 c5 17 4 22 -3 15 -15 -15 -17 -33 -9
-101 7 -52 11 -63 33 -73 84 -38 204 32 204 119 0 79 -54 124 -150 125 -59 0
-71 4 -125 40 -33 22 -62 43 -65 46 -3 3 -45 30 -95 61 -49 30 -128 79 -175
108 -47 29 -130 81 -185 115 -154 96 -324 210 -358 241 -7 6 -21 16 -32 22
-32 17 -159 112 -149 112 5 0 18 -7 28 -15 20 -15 56 -20 56 -9 0 4 -8 13 -17
21 -16 13 -16 13 7 7 33 -10 36 -9 100 6 30 7 61 19 68 27 7 7 22 13 31 13 32
0 84 27 126 64 22 20 43 36 47 36 4 0 19 24 33 53 15 28 31 57 37 62 7 7 9 6
5 -1 -4 -7 3 -9 21 -6 24 5 24 6 7 13 -20 8 -20 8 0 9 18 1 17 2 -5 15 -14 8
-22 14 -19 15 10 0 226 -113 344 -180 55 -31 124 -70 153 -85 41 -22 52 -33
53 -54 1 -22 2 -21 9 9 5 19 6 38 4 41 -4 8 -10 11 -224 133 -202 116 -234
137 -218 148 9 6 6 7 -9 3 -14 -4 -29 2 -46 17 -22 21 -24 26 -11 43 8 10 14
15 14 9 0 -5 7 0 15 10 8 11 15 37 15 57 0 21 5 39 10 41 7 2 6 15 -2 36 -11
28 -10 34 2 42 12 8 10 10 -9 10 -21 0 -19 4 20 33 24 18 65 45 91 60 l47 27
68 -48 c60 -42 111 -76 331 -219 77 -50 73 -35 -4 17 -37 25 -97 66 -135 92
-139 94 -241 184 -224 196 6 4 63 42 127 85 64 43 122 86 129 95 13 16 12 16
-6 1 -11 -9 -40 -26 -65 -38 -25 -13 -84 -52 -133 -87 l-87 -64 -53 43 c-28
23 -73 58 -100 76 -42 31 -47 38 -43 65 14 91 16 125 7 130 -5 3 -7 14 -5 24
3 9 1 28 -5 42 -7 18 -9 0 -6 -70 4 -113 -21 -266 -61 -378 -78 -213 -298
-427 -491 -479 -87 -24 -224 -20 -295 7 -69 25 -151 97 -203 176 -47 71 -92
199 -100 289 -19 189 70 491 178 613 11 12 17 22 14 22 -13 0 -190 -102 -252
-145 -33 -22 -86 -56 -117 -74 -32 -18 -120 -74 -195 -124 -76 -51 -169 -112
-208 -136 -127 -81 -199 -127 -304 -197 -148 -98 -292 -188 -384 -239 -93 -53
-256 -158 -257 -165 0 -4 15 -12 34 -18 45 -16 133 -112 172 -187 53 -100 67
-182 61 -347 -4 -132 -7 -150 -40 -242 -77 -210 -205 -363 -373 -445 -150 -73
-265 -86 -390 -44 -101 34 -218 140 -272 248 -33 66 -73 205 -82 284 -23 206
47 461 174 636 28 39 60 88 71 109 32 63 111 137 240 225 215 147 268 182 299
198 17 8 63 36 101 61 73 48 87 57 225 142 193 120 273 171 462 295 109 72
255 166 324 210 70 44 185 119 258 166 72 47 208 133 301 192 94 59 185 121
203 138 l34 30 6 153 c10 229 20 219 -123 125 -66 -44 -154 -98 -195 -121 -85
-47 -154 -90 -255 -158 -38 -25 -108 -67 -155 -93 -47 -26 -130 -76 -185 -111
-55 -36 -136 -87 -180 -114 -109 -66 -384 -240 -600 -377 -255 -163 -385 -245
-470 -296 -38 -24 -109 -69 -156 -100 -110 -73 -190 -113 -257 -129 -86 -20
-195 2 -256 52 -37 30 -145 196 -200 306 -150 302 -377 763 -434 882 -38 80
-111 231 -162 335 -190 393 -228 509 -194 596 44 113 163 245 263 295 31 15
63 33 71 40 8 6 44 27 80 46 106 57 189 106 290 169 52 32 120 73 150 89 30
17 80 46 110 65 30 19 82 48 115 66 33 17 76 44 95 59 19 14 78 51 130 80 52
29 147 86 210 125 63 40 153 94 200 120 47 27 99 58 115 71 17 12 50 33 75 47
62 33 312 186 330 202 8 7 31 22 50 33 19 10 71 42 115 69 72 45 187 114 285
171 215 124 301 176 455 274 99 63 236 148 305 188 69 40 163 97 210 126 141
86 259 152 372 207 59 29 107 55 107 59 1 11 -45 33 -124 58 -38 13 -74 27
-80 32 -16 14 -54 9 -98 -13 -56 -28 -175 -101 -262 -159 -38 -26 -160 -100
-270 -165 -110 -65 -306 -183 -435 -263 -320 -198 -340 -210 -460 -278 -122
-68 -604 -358 -755 -455 -16 -11 -102 -62 -190 -114 -88 -51 -245 -145 -350
-208 -502 -301 -672 -397 -911 -517 -183 -91 -209 -107 -277 -173 -80 -77
-133 -149 -122 -167 7 -12 -34 -100 -48 -100 -5 0 -6 7 -3 16 3 9 9 27 12 40
3 13 11 24 17 24 6 0 8 2 5 5 -9 10 -38 -7 -38 -22 0 -8 -11 -31 -25 -51 -46
-68 -32 -144 70 -363 35 -75 82 -180 105 -235 22 -54 71 -160 108 -234 61
-124 192 -422 188 -427 -1 -2 -13 -4 -27 -6 -15 -3 -24 -11 -25 -23 -1 -10 -2
-26 -3 -34 -2 -19 -79 -55 -110 -51 -15 2 -21 -1 -17 -8 10 -16 1 -14 -36 9
-18 11 -41 20 -52 20 -10 0 -48 7 -85 15 -36 8 -111 22 -166 30 -104 17 -162
32 -254 68 -80 31 -48 32 81 2 170 -39 457 -88 466 -80 2 2 4 9 5 17 2 7 10
24 20 38 14 20 26 24 69 26 33 0 58 -4 67 -13 9 -9 17 -11 24 -4 11 11 -24 91
-48 111 -12 10 -12 6 -4 -24 10 -36 5 -61 -11 -51 -4 2 -11 40 -15 82 -7 79
-11 89 -148 372 -15 31 -49 44 -162 65 -129 24 -225 49 -225 58 0 4 -18 8 -40
8 -22 0 -82 13 -133 30 -52 16 -102 30 -111 30 -24 0 -73 27 -79 43 -6 16 -17
19 208 -46 66 -19 137 -38 158 -41 20 -4 37 -11 37 -15 0 -8 43 -20 90 -27 66
-9 110 -15 142 -18 20 -3 47 -7 59 -11 18 -6 20 -4 14 17 -4 12 -41 93 -82
178 -142 292 -171 375 -159 457 8 59 94 236 141 291 20 23 57 54 81 68 l45 27
-58 23 c-101 42 -145 53 -267 68 -80 10 -125 21 -137 32 -11 9 -19 15 -19 12
0 -3 -42 7 -92 23 -109 34 -116 34 -140 12 -10 -9 -21 -14 -24 -10 -3 3 7 14
23 24 49 31 58 43 42 54 -20 12 -29 11 -29 -4 0 -24 -39 -50 -83 -58 -34 -5
-38 -8 -21 -14 19 -6 21 -13 18 -53 -13 -182 -16 -323 -7 -334 15 -18 8 -66
-13 -89 -15 -16 -17 -43 -17 -208 0 -193 5 -221 39 -221 14 0 73 32 119 66 55
40 89 59 81 46 -4 -7 -38 -33 -75 -57 -94 -62 -102 -72 -92 -118 9 -36 -1 -52
-13 -21 -12 31 -28 2 -22 -41 6 -50 0 -55 -74 -55 -55 0 -63 8 -75 78 -4 28
-12 42 -22 42 -19 0 -93 41 -93 52 0 4 -7 8 -15 8 -8 0 -15 5 -15 10 0 6 -8
10 -17 10 -24 0 -123 62 -123 77 0 18 7 16 43 -9 18 -13 52 -34 77 -47 141
-75 154 -78 193 -47 l27 22 -70 129 c-38 72 -111 214 -161 316 -92 187 -108
209 -157 209 -9 0 -27 -10 -38 -23 -25 -26 -174 -111 -181 -103 -3 3 26 26 63
51 161 107 189 134 178 168 -4 12 -29 69 -55 125 -27 57 -49 106 -49 109 0 12
-94 219 -107 234 -16 19 -17 29 -2 29 10 0 142 -268 200 -405 16 -40 39 -81
49 -90 19 -17 23 -15 110 44 49 34 109 71 133 81 58 26 77 48 70 84 -6 29 -8
31 -163 120 -134 77 -244 146 -272 170 -30 26 -38 73 -14 82 18 7 63 -21 94
-58 13 -16 30 -28 38 -28 8 0 14 -4 14 -10 0 -5 4 -10 10 -10 5 0 40 -22 77
-49 86 -62 110 -70 129 -42 8 11 21 18 28 15 8 -3 39 23 75 63 59 65 62 67 76
49 8 -11 15 -16 15 -10 0 5 -7 18 -15 28 -18 24 -68 172 -63 187 2 6 25 -39
51 -99 27 -61 54 -115 61 -121 9 -8 21 24 51 142 46 183 65 247 76 247 8 0 39
-28 39 -36 0 -2 -7 -21 -15 -41 -8 -21 -24 -74 -35 -118 -12 -44 -37 -136 -57
-204 -38 -131 -37 -158 6 -180 16 -9 27 -5 61 24 23 19 83 60 133 91 70 43
222 141 266 171 5 3 -55 78 -136 167 -40 44 -70 82 -67 85 6 6 103 -93 164
-169 25 -30 49 -58 55 -62 5 -4 26 2 45 14 98 58 169 93 210 104 25 6 45 17
45 25 0 17 -39 30 -205 69 -74 17 -160 40 -192 50 -88 29 -157 34 -200 16 -36
-16 -73 -12 -62 5 3 5 -7 9 -23 10 -15 0 -41 2 -58 4 -37 5 -204 -88 -221
-123 -8 -15 -14 -20 -19 -12 -5 7 -21 3 -52 -16 -26 -15 -64 -36 -86 -48 -22
-11 -59 -38 -82 -58 -24 -21 -49 -38 -57 -38 -8 0 -23 -7 -34 -15 -28 -21 -40
-18 -18 6 10 11 59 46 109 76 129 80 205 134 205 147 0 37 -97 43 -145 10 -32
-23 -62 -18 -69 12 -9 34 1 64 22 64 9 0 28 -12 43 -26 21 -20 31 -23 45 -16
60 31 73 34 101 25 23 -8 27 -15 25 -38 l-3 -27 58 33 c140 79 143 80 143 103
0 28 -5 33 -170 145 -74 51 -159 110 -188 131 -37 27 -59 36 -75 33 -26 -7
-17 5 15 21 17 8 24 21 25 46 1 19 0 28 -4 20 -9 -24 -36 -52 -59 -60 -12 -5
-32 -30 -44 -57 -12 -26 -35 -73 -50 -103 -15 -30 -42 -90 -59 -132 -17 -43
-46 -111 -66 -150 -48 -100 -54 -152 -23 -198 27 -39 42 -74 29 -66 -4 3 -19
-6 -32 -20 -13 -14 -32 -30 -42 -36 -17 -9 -18 -6 -13 39 5 44 5 45 -5 18 -18
-48 -29 -55 -79 -55 -54 0 -60 8 -60 92 0 37 -8 60 -35 102 -19 30 -35 57 -35
60 0 6 -10 18 -65 81 -14 17 -38 53 -52 80 -14 28 -34 61 -44 74 -11 14 -19
40 -19 62 0 32 -4 39 -20 39 -29 0 -67 47 -74 91 -5 29 -1 51 14 81 11 23 20
47 20 53 0 6 7 21 16 33 14 20 17 21 43 7 26 -13 30 -13 48 8 11 12 26 32 35
44 13 20 14 17 16 -52 2 -44 -1 -76 -8 -80 -6 -4 -8 -15 -5 -25 3 -11 -5 -48
-19 -83 -15 -35 -26 -71 -26 -81 0 -26 71 -176 84 -176 7 0 32 -30 56 -67 24
-38 46 -70 49 -73 4 -3 20 -21 37 -41 31 -36 31 -36 63 -20 33 16 42 31 100
148 40 83 49 118 62 263 17 187 29 230 24 80 -3 -69 -8 -141 -11 -160 -4 -26
7 -11 39 55 24 50 58 107 76 127 31 36 31 37 9 40 -12 2 -28 14 -35 28 -15 30
-17 130 -3 130 6 0 10 4 10 10 0 5 -6 7 -13 4 -8 -3 -20 9 -30 28 -22 42 -38
67 -59 92 -10 11 -18 26 -18 33 0 17 -17 17 -23 1 -3 -7 -6 0 -6 15 -2 60 -31
133 -61 156 l-30 22 -11 -28 c-19 -50 -72 -153 -78 -153 -4 0 -40 -45 -80
-100 -71 -98 -86 -114 -75 -86 3 8 1 17 -4 20 -14 9 -2 48 13 42 6 -2 25 19
42 47 66 113 104 172 127 197 43 47 56 74 56 119 0 26 6 51 15 61 11 13 18 57
25 161 6 79 13 155 16 168 5 24 5 24 -18 8 -45 -32 -88 -56 -88 -50 0 3 26 32
58 63 43 42 71 82 107 155 27 54 60 111 73 127 14 16 21 32 18 36 -4 3 -41
-29 -83 -73z m-157 -2176 c-9 -67 -20 -127 -25 -133 -8 -11 -14 -56 -31 -276
-6 -69 -13 -137 -16 -151 -7 -36 20 -63 54 -54 22 5 24 4 13 -9 -8 -10 -10
-33 -5 -75 3 -34 4 -61 0 -61 -3 0 -13 17 -22 38 l-17 37 -7 -37 c-10 -54 -37
-80 -72 -73 -17 4 -28 2 -28 -4 0 -6 -18 -1 -40 10 -29 15 -38 25 -31 33 6 7
11 30 12 51 1 25 9 46 20 55 18 14 15 19 -50 85 -38 39 -77 87 -88 107 -11 21
-23 35 -27 31 -3 -3 -6 -1 -6 5 0 16 23 27 28 13 2 -7 13 -20 23 -30 11 -10
31 -33 44 -52 14 -18 25 -30 25 -26 0 4 15 -10 34 -31 24 -26 31 -39 23 -45
-7 -5 -2 -6 11 -2 13 4 22 2 22 -5 0 -6 12 -10 28 -8 l27 3 6 170 c4 94 12
202 18 240 25 159 32 194 53 274 18 70 23 81 31 63 7 -15 4 -62 -7 -143z
m-556 -95 c14 -1 38 -6 53 -13 39 -15 38 -16 91 25 25 21 49 35 51 32 3 -3
-19 -22 -50 -43 -30 -21 -55 -45 -55 -53 0 -8 -12 -45 -27 -83 -28 -72 -47
-88 -83 -69 -34 18 -49 61 -49 146 0 44 -5 93 -11 108 -19 51 -10 51 23 1 24
-37 39 -50 57 -51z m-104 -599 c3 -13 12 -29 20 -36 8 -6 11 -15 8 -20 -3 -5
0 -9 6 -9 6 0 23 -25 37 -56 16 -35 28 -52 33 -44 15 24 79 -26 80 -62 0 -10
-4 -18 -9 -18 -4 0 -6 -22 -3 -49 5 -57 -4 -105 -18 -96 -6 3 -10 0 -11 -7 0
-7 -4 -3 -9 10 -5 12 -16 22 -24 22 -17 0 -33 44 -42 120 -4 30 -22 87 -40
126 -38 84 -56 144 -43 144 5 0 11 -11 15 -25z m894 -455 c95 -132 105 -141
138 -134 26 6 26 6 8 -9 -19 -14 -19 -16 -3 -40 9 -15 34 -43 54 -64 66 -66
255 -289 275 -324 29 -50 -118 105 -214 226 -44 55 -101 121 -126 146 -44 42
-145 175 -188 244 -10 17 -35 51 -56 76 -21 25 -38 49 -38 55 1 15 75 -73 150
-176z m-228 -283 c15 -17 38 -96 38 -133 0 -20 -47 -36 -82 -29 -39 9 -43 38
-29 177 2 14 57 2 73 -15z m753 -217 c8 -58 17 -110 20 -117 6 -18 72 -45 93
-39 10 4 43 24 72 46 54 40 83 52 60 25 -6 -7 -36 -28 -66 -45 -42 -24 -56
-37 -61 -60 -4 -23 -9 -28 -18 -20 -10 8 -17 -1 -30 -41 -10 -28 -26 -60 -36
-70 -19 -19 -19 -19 0 -19 11 0 23 -4 26 -10 11 -18 -49 -11 -82 10 -43 26
-65 62 -61 101 3 30 0 33 -47 49 -27 10 -111 48 -185 86 -74 38 -157 78 -185
88 -27 11 -44 21 -37 24 18 6 134 -35 205 -72 34 -19 106 -53 161 -76 88 -39
99 -41 108 -27 5 10 22 24 38 32 26 13 27 18 20 47 -5 18 -13 74 -19 124 -22
186 -4 159 24 -36z m4220 -176 c-11 -9 -40 -27 -65 -41 -48 -28 -198 -123
-375 -238 -60 -39 -191 -123 -290 -185 -99 -63 -220 -143 -270 -177 -49 -34
-130 -86 -180 -115 -49 -29 -124 -74 -165 -100 -115 -73 -320 -197 -320 -193
0 8 103 76 151 101 29 14 87 50 129 78 41 29 98 65 125 81 28 15 124 78 215
138 91 61 230 151 310 200 80 50 179 114 220 142 41 29 98 65 125 81 28 15
102 61 165 102 152 99 289 175 225 126z m-3088 -291 c33 -54 98 -177 144 -273
147 -305 224 -449 265 -492 l39 -42 -33 20 c-66 38 -114 113 -262 414 -129
261 -201 390 -217 390 -10 0 -11 5 -4 18 6 10 7 28 4 40 -10 40 5 23 64 -75z
m-1637 39 c20 -20 44 -61 54 -90 16 -46 17 -57 5 -78 -10 -20 -18 -24 -38 -19
-32 8 -107 60 -115 80 -14 37 -6 99 16 122 29 31 37 29 78 -15z m748 -334 c8
-8 15 -8 27 2 19 15 34 5 17 -12 -7 -7 -12 -27 -12 -45 0 -51 -19 -83 -49 -83
-38 0 -5 -20 34 -20 26 -1 27 -2 12 -11 -26 -15 -68 -3 -110 32 -33 28 -37 35
-37 79 0 36 5 52 18 59 23 14 85 14 100 -1z m675 -75 c23 -16 50 -38 61 -51
10 -13 25 -21 32 -18 8 3 25 0 39 -6 23 -10 29 -22 28 -55 -1 -7 3 -11 7 -8
20 13 21 -39 1 -65 -20 -28 -20 -29 -1 -32 12 -2 17 -7 12 -15 -5 -7 -22 -10
-47 -6 -31 4 -47 14 -67 41 -16 19 -28 45 -28 58 0 15 -9 25 -27 32 l-28 10
27 1 c15 1 31 9 37 19 8 14 0 26 -47 69 -63 58 -63 67 1 26z m-772 -250 c12
-32 6 -88 -12 -109 -6 -8 -27 -14 -46 -14 -18 0 -44 -7 -57 -16 -13 -8 -26
-11 -29 -7 -6 11 22 117 31 121 5 1 24 13 43 27 44 31 57 31 70 -2z m474 -123
c15 -33 16 -42 5 -55 -11 -13 -15 -13 -22 -3 -6 9 -7 6 -3 -9 4 -16 0 -26 -19
-38 -24 -16 -28 -16 -63 2 -30 14 -41 27 -52 61 -19 60 -2 77 77 80 l59 2 18
-40z m553 -57 c19 -12 22 -20 17 -41 -9 -36 -23 -52 -46 -52 -24 0 -24 -18 -1
-37 15 -13 13 -14 -22 -9 -73 10 -94 57 -59 131 16 34 20 36 53 30 19 -4 46
-13 58 -22z m903 -318 c-124 -133 -225 -290 -265 -413 -37 -113 -66 -271 -66
-355 0 -124 35 -284 81 -372 8 -16 6 -16 -10 3 -22 25 -54 105 -79 197 -25 92
-22 305 7 419 12 49 31 110 41 134 11 25 20 50 20 57 0 11 21 54 78 158 29 55
83 110 170 177 42 33 79 60 81 60 2 0 -24 -29 -58 -65z m2131 -125 c4 -1 17
-4 28 -7 11 -3 20 -8 21 -12 0 -3 2 -14 4 -23 4 -22 -6 -30 -155 -125 -69 -43
-150 -98 -180 -121 -30 -23 -60 -42 -67 -42 -6 0 -35 -22 -64 -50 -29 -27 -56
-50 -60 -50 -15 0 -234 -134 -257 -157 -23 -24 -43 -29 -56 -15 -4 4 -11 7
-14 7 -8 1 -92 56 -92 61 0 2 8 0 18 -3 15 -6 15 -5 3 11 -19 22 -21 66 -4 66
8 0 16 7 19 15 4 8 17 15 30 15 17 0 24 6 24 20 0 26 34 60 60 60 11 0 20 6
20 14 0 8 15 17 37 21 20 4 48 15 61 26 14 11 40 19 60 19 23 0 44 8 58 21
l23 22 -22 18 -22 18 21 1 c15 0 21 6 20 18 0 9 4 16 10 15 6 -1 17 9 24 22
10 19 22 25 45 25 18 0 38 6 44 14 7 8 24 17 39 21 39 9 82 29 82 37 0 5 7 8
15 8 9 0 30 8 48 17 18 9 52 18 76 19 23 2 45 5 48 8 3 2 15 1 27 -3 11 -5 24
-10 28 -11z"/>
<path d="M2359 8335 l-136 -95 -13 -54 -13 -55 42 -69 c58 -97 108 -152 136
-152 16 0 54 34 136 123 63 67 123 130 133 140 10 9 14 17 8 17 -20 0 -92 169
-92 215 0 22 -5 25 -33 25 -25 0 -64 -22 -168 -95z"/>
<path d="M6160 8376 c0 -4 7 -20 15 -35 8 -16 17 -59 21 -95 4 -37 13 -74 22
-82 8 -8 12 -25 9 -39 -2 -14 2 -30 9 -36 8 -6 14 -27 14 -46 0 -21 20 -75 56
-145 39 -78 52 -114 45 -121 -8 -8 -11 -6 -11 5 0 9 -3 18 -8 20 -4 2 -26 35
-50 75 -63 106 -77 110 -62 17 5 -33 6 -91 2 -131 -5 -40 -7 -73 -5 -73 10 0
233 123 233 128 -1 45 -135 358 -187 437 -34 51 -103 132 -103 121z"/>
<path d="M5886 8146 c2 -209 -10 -176 117 -314 42 -47 76 -86 74 -88 -9 -10
-103 51 -142 91 -25 26 -52 45 -64 45 -30 0 -71 -43 -71 -75 0 -14 -4 -25 -8
-25 -13 0 -71 -103 -78 -137 -5 -25 -3 -34 10 -39 9 -3 13 -10 10 -15 -3 -5
-9 -7 -14 -4 -5 3 -14 -4 -20 -15 -6 -11 -17 -20 -25 -20 -7 0 -27 -24 -44
-52 l-30 -53 21 -33 c11 -18 18 -42 15 -53 -4 -17 -2 -19 16 -13 42 13 142 67
212 114 39 26 97 61 130 78 68 34 145 88 145 101 0 5 -8 11 -18 13 -13 4 -19
15 -20 42 -1 31 2 36 21 36 13 0 28 -5 35 -12 9 -9 12 -2 12 33 0 25 9 60 20
82 24 44 25 63 5 110 -19 46 -19 55 1 59 13 2 10 11 -15 42 -30 37 -31 38 -31
13 0 -28 -32 -57 -63 -57 -10 0 -29 11 -43 25 -34 34 -19 52 48 61 l49 7 -21
21 c-11 12 -20 26 -20 32 0 5 -18 29 -40 54 -21 24 -37 46 -35 49 9 8 -66 65
-88 66 -12 1 -29 5 -37 9 -13 5 -15 -18 -14 -178z"/>
<path d="M9311 8296 c-12 -13 -26 -39 -32 -58 -8 -32 -23 -44 -152 -119 -178
-104 -508 -318 -762 -494 -49 -34 -144 -93 -210 -130 -66 -37 -167 -102 -225
-143 -58 -41 -115 -79 -127 -85 -26 -12 -30 -21 -49 -117 -20 -107 -19 -114 9
-87 53 50 101 85 179 132 46 27 107 67 137 89 29 23 93 66 142 96 48 30 150
98 225 150 180 126 455 308 629 416 77 48 163 105 191 126 31 24 62 38 80 38
35 0 83 30 100 62 22 39 17 96 -11 123 -33 34 -93 34 -124 1z"/>
<path d="M5332 8128 c-76 -141 -78 -146 -60 -161 17 -14 33 -51 18 -42 -18 11
-10 -5 33 -66 23 -33 48 -71 55 -85 7 -13 38 -51 68 -84 43 -45 54 -64 49 -80
-8 -26 -3 -25 45 5 22 14 42 25 46 25 26 0 144 199 144 244 0 13 5 16 20 11
10 -3 30 0 42 7 22 12 21 13 -22 18 l-45 5 -1 60 0 60 -100 68 c-95 65 -204
127 -222 127 -5 0 -37 -51 -70 -112z"/>
<path d="M2029 8081 c-26 -25 -74 -70 -108 -100 -33 -30 -63 -62 -66 -72 -3
-9 -15 -19 -25 -22 -15 -4 -20 -14 -20 -39 0 -73 -12 -109 -39 -121 -14 -6
-27 -11 -28 -12 -6 -3 27 -95 46 -130 44 -80 105 -163 130 -178 32 -18 60 -9
90 30 13 15 20 20 17 11 -10 -34 11 -26 35 13 28 48 123 182 161 230 87 109
89 113 83 139 -9 35 -45 96 -110 180 -30 41 -55 77 -55 81 0 6 -61 42 -64 38
-1 -1 -22 -23 -47 -48z"/>
<path d="M2636 8077 c-122 -125 -158 -169 -180 -219 -27 -61 -40 -75 -76 -80
-29 -4 -136 -130 -238 -283 -67 -99 -67 -100 -71 -177 -3 -72 -1 -81 20 -102
30 -29 251 -182 302 -209 43 -22 89 -19 132 9 26 17 27 21 21 68 -4 28 -13
116 -21 194 -20 200 -18 196 -83 163 -167 -83 -205 -93 -61 -15 50 27 95 55
101 62 8 9 7 30 -2 72 -17 78 -7 89 11 13 13 -52 17 -58 39 -57 14 1 48 11 75
22 28 12 63 24 78 27 24 5 27 8 17 20 -7 8 -18 15 -25 15 -7 0 -35 17 -62 38
-26 21 -76 55 -110 76 -63 39 -76 61 -54 94 10 17 51 -8 179 -106 61 -47 87
-62 100 -56 9 4 39 12 66 18 42 9 51 16 60 41 11 31 23 51 82 141 19 28 34 55
34 60 0 6 -15 16 -34 22 -19 7 -47 29 -62 50 -47 62 -147 152 -167 152 -11 0
-43 -24 -71 -53z"/>
<path d="M7370 7947 c-52 -26 -126 -65 -165 -86 -38 -21 -101 -56 -140 -76
-38 -21 -88 -50 -110 -65 -22 -15 -87 -54 -145 -87 -58 -33 -177 -105 -265
-160 -88 -55 -200 -124 -250 -153 -49 -29 -108 -65 -130 -80 -22 -14 -67 -42
-100 -60 -91 -51 -453 -268 -515 -310 -30 -20 -129 -81 -220 -135 -91 -54
-219 -133 -285 -176 -188 -120 -366 -230 -384 -237 -9 -3 -52 -28 -96 -55 -90
-56 -211 -129 -425 -255 -80 -47 -167 -100 -195 -117 -27 -18 -115 -70 -195
-115 -237 -135 -262 -151 -330 -205 -68 -55 -113 -122 -125 -188 -10 -51 16
-129 101 -305 41 -84 74 -155 74 -159 0 -3 52 -111 115 -240 63 -130 115 -237
115 -238 0 -2 49 -106 110 -230 60 -125 110 -229 110 -231 0 -19 233 -466 287
-551 41 -64 65 -81 132 -92 96 -15 178 11 321 104 36 22 127 79 203 126 77 46
169 104 205 129 37 24 132 85 212 135 80 50 192 121 250 158 107 69 423 268
585 370 50 30 146 88 215 127 69 40 141 84 160 99 19 15 73 49 120 75 113 65
298 186 343 226 39 34 51 66 63 165 6 58 6 59 -12 44 -11 -9 -41 -26 -69 -39
-50 -24 -287 -158 -446 -253 -48 -29 -153 -92 -235 -141 -82 -49 -187 -111
-234 -139 -47 -28 -134 -83 -195 -122 -60 -40 -141 -90 -180 -112 -292 -168
-475 -283 -745 -468 -30 -20 -80 -50 -110 -66 -30 -17 -100 -59 -155 -94 -109
-70 -141 -81 -213 -70 -63 9 -102 52 -171 185 -29 58 -64 123 -77 145 -12 22
-38 76 -57 120 -19 44 -57 127 -85 185 -74 157 -165 354 -206 450 -21 47 -75
162 -120 255 -114 232 -179 384 -172 401 3 7 19 22 35 31 40 24 88 54 126 77
16 11 86 48 154 83 127 65 265 145 336 193 22 15 72 44 110 65 98 53 443 262
484 292 18 14 63 43 100 63 220 124 299 171 315 186 6 6 34 23 61 39 28 16 64
39 81 52 17 12 67 44 112 70 44 27 163 97 264 158 101 60 192 115 203 121 11
6 74 44 140 84 66 40 154 92 195 116 41 24 149 91 240 149 91 57 197 123 235
147 252 152 366 220 405 244 25 16 92 57 150 92 164 99 161 94 176 258 7 76
12 139 11 139 -1 0 -45 -21 -97 -48z"/>
<path d="M5135 7877 c-22 -18 -85 -64 -140 -101 -55 -38 -106 -76 -112 -84
-19 -23 -16 -101 6 -163 42 -117 119 -274 143 -288 12 -8 33 -23 45 -34 21
-19 21 -19 95 41 40 34 123 94 183 134 132 89 135 97 78 201 -65 116 -218 320
-244 325 -8 1 -33 -12 -54 -31z"/>
<path d="M10031 7845 c-23 -14 -50 -25 -60 -25 -24 0 -136 -65 -301 -174 -494
-327 -868 -566 -998 -638 -63 -35 -165 -96 -229 -135 -63 -40 -116 -73 -118
-73 -2 0 -76 -46 -166 -103 -90 -57 -184 -113 -209 -126 -25 -13 -103 -61
-175 -107 -135 -88 -153 -108 -154 -175 -1 -21 3 -26 22 -24 33 3 77 26 77 42
0 7 6 13 13 13 9 0 8 3 -2 9 -15 10 -24 3 119 91 47 29 111 73 142 97 53 40
118 86 279 194 31 21 76 48 100 60 24 13 60 35 79 49 48 37 203 131 270 165
57 29 573 344 695 425 39 25 99 64 135 85 113 67 463 302 505 339 47 41 38 46
-24 11z"/>
<path d="M748 7673 c-6 -16 -14 -44 -18 -63 l-7 -35 -15 33 -14 33 -12 -26
c-15 -34 -15 -40 4 -81 12 -25 26 -37 54 -45 78 -24 140 19 140 96 0 55 -21
90 -62 104 -46 16 -57 14 -70 -16z"/>
<path d="M9214 7679 c-42 -12 -56 -32 -58 -80 -1 -33 5 -46 27 -65 37 -32 62
-30 98 5 32 33 37 67 14 110 -11 23 -39 45 -48 40 -1 0 -16 -5 -33 -10z"/>
<path d="M9995 7584 c-117 -73 -241 -153 -450 -290 -93 -61 -238 -152 -322
-203 -84 -50 -171 -104 -195 -120 -24 -16 -102 -62 -173 -102 -72 -40 -159
-91 -195 -115 -56 -36 -215 -131 -330 -196 -19 -11 -48 -30 -65 -42 -33 -25
-353 -226 -359 -226 -1 0 -42 -22 -89 -50 -48 -27 -110 -60 -139 -73 -71 -33
-87 -53 -99 -127 -11 -67 -6 -89 10 -46 6 14 18 27 28 27 10 1 23 2 28 4 6 1
18 3 27 3 10 1 15 8 12 16 -3 7 3 16 13 20 10 3 44 23 75 44 31 20 103 66 160
101 57 35 135 86 173 112 144 100 414 273 605 389 58 35 142 89 188 119 116
78 158 105 232 147 36 21 100 61 142 88 122 81 423 274 515 330 171 105 323
213 323 229 0 27 -18 21 -115 -39z"/>
<path d="M7239 7470 c-70 -42 -148 -86 -174 -95 -26 -10 -90 -47 -143 -83 -52
-35 -116 -74 -141 -86 -96 -46 -86 1 -82 -419 1 -205 4 -374 6 -375 2 -2 16 5
32 16 15 10 65 41 111 68 46 27 91 56 100 64 73 64 132 89 213 90 68 0 81 34
99 250 7 74 15 142 20 151 20 38 99 483 88 494 -2 2 -60 -32 -129 -75z"/>
<path d="M2600 7514 c-30 -14 -58 -31 -63 -37 -8 -12 -5 -77 15 -284 7 -68 15
-123 19 -123 4 0 11 15 14 33 9 41 66 190 109 287 45 99 50 118 36 135 -18 22
-68 18 -130 -11z"/>
<path d="M4743 7529 c18 -11 23 -39 8 -54 -5 -6 -31 -71 -59 -145 -27 -74 -76
-182 -107 -240 -75 -139 -142 -278 -150 -312 -7 -26 -5 -28 23 -28 44 0 158
26 220 50 44 17 52 18 52 5 0 -8 -5 -15 -12 -15 -6 0 -9 -3 -5 -6 6 -6 112 53
242 134 33 21 61 45 63 55 3 17 -34 91 -61 119 -92 99 -112 128 -87 128 5 0
16 -13 25 -30 9 -16 21 -30 27 -30 6 0 9 3 6 6 -4 3 -2 19 3 36 7 25 1 48 -33
131 -22 55 -55 124 -72 153 -28 49 -34 54 -66 53 -29 0 -32 -1 -17 -10z"/>
<path d="M8489 7428 c-221 -147 -256 -169 -682 -435 -59 -37 -80 -56 -88 -80
-14 -43 -29 -154 -23 -165 3 -5 19 1 36 13 17 12 51 34 77 48 26 14 80 50 121
79 41 29 127 87 190 129 63 42 119 80 125 84 11 10 249 166 340 224 71 46 126
95 119 107 -3 4 0 8 5 8 18 0 13 77 -5 84 -38 14 -69 0 -215 -96z"/>
<path d="M2870 7499 c-19 -11 -45 -19 -56 -19 -16 0 -27 -13 -44 -52 -12 -29
-31 -72 -41 -96 -51 -112 -108 -287 -109 -333 0 -9 8 -27 18 -40 l19 -22 64
38 c59 36 101 66 246 175 l52 39 -13 38 c-8 21 -35 80 -60 132 -25 52 -46 101
-46 108 0 37 25 0 85 -124 36 -76 92 -190 124 -253 32 -63 77 -159 101 -212
25 -60 48 -98 57 -98 10 0 12 6 7 23 -32 97 -33 107 -19 107 8 0 19 -9 25 -19
6 -13 17 -17 30 -14 13 3 20 0 21 -8 2 -27 31 128 69 379 10 62 9 64 -17 91
-16 15 -32 34 -38 43 -6 10 -63 29 -150 52 -215 55 -270 70 -273 79 -5 9 -11
8 -52 -14z"/>
<path d="M4645 7500 c-27 -10 -117 -38 -200 -60 -82 -23 -157 -46 -166 -50
-34 -19 -37 -69 -12 -210 12 -74 30 -180 38 -235 22 -144 21 -142 52 -147 16
-3 36 -9 46 -13 13 -6 17 -2 17 18 0 25 10 45 122 252 36 66 76 149 90 185 14
36 39 101 56 145 45 116 48 135 26 134 -11 0 -41 -9 -69 -19z"/>
<path d="M5435 7354 c-49 -35 -125 -83 -169 -106 -94 -51 -149 -97 -164 -135
-14 -39 -22 -103 -13 -103 5 0 60 31 122 68 63 38 172 101 242 141 152 87 163
96 142 117 -8 9 -15 21 -15 28 0 12 -42 57 -51 55 -2 -1 -44 -30 -94 -65z"/>
<path d="M3550 7365 c-9 -18 -28 -30 -57 -38 -30 -8 -39 -14 -32 -23 6 -7 -1
-74 -20 -195 -16 -101 -32 -213 -36 -249 -6 -61 -4 -67 19 -89 l25 -24 38 29
c72 53 203 166 203 174 0 4 30 36 67 71 37 35 88 85 113 110 47 49 130 118
190 158 31 21 -123 -130 -251 -247 -25 -23 -54 -60 -64 -82 -10 -22 -23 -40
-29 -40 -6 0 -42 -25 -81 -56 -38 -31 -94 -74 -122 -96 -29 -21 -53 -45 -53
-52 0 -20 69 -26 284 -26 196 1 324 11 335 28 3 5 16 12 29 16 12 4 22 13 22
21 0 18 20 24 49 13 29 -10 61 17 62 54 0 22 1 22 9 3 5 -11 9 -15 9 -9 2 19
-40 237 -65 342 -13 57 -24 115 -24 128 0 19 -7 26 -29 30 -19 4 -28 11 -24
19 2 8 -6 20 -19 28 -19 12 -48 13 -173 5 -170 -11 -344 -5 -355 11 -4 7 -12
2 -20 -14z"/>
<path d="M8498 7170 c-51 -38 -98 -70 -105 -70 -7 0 -59 -31 -115 -68 -142
-94 -261 -169 -514 -325 -74 -45 -82 -53 -92 -93 -11 -42 -16 -153 -5 -126 2
6 9 12 14 12 6 0 45 26 87 58 42 32 109 79 147 105 39 25 79 54 90 64 11 11
66 52 123 91 57 40 113 82 125 93 12 12 65 49 117 84 52 34 112 76 134 94 21
17 51 31 65 32 l26 0 -22 16 c-13 8 -23 23 -23 33 0 21 31 50 52 50 30 0 39
-63 11 -79 -10 -6 -13 -11 -6 -11 14 0 43 38 43 57 0 13 -39 53 -51 53 -4 0
-49 -31 -101 -70z"/>
<path d="M2984 7149 c-30 -32 -199 -154 -278 -201 -44 -26 -60 -58 -37 -72 16
-10 254 -77 361 -102 97 -22 190 -31 190 -19 0 36 -183 425 -200 425 -3 0 -19
-14 -36 -31z"/>
<path d="M6606 7082 c-3 -4 -6 -185 -8 -401 l-3 -393 -30 -21 c-16 -12 -79
-49 -140 -83 -60 -33 -148 -85 -195 -116 -101 -65 -121 -73 -132 -56 -4 7 -8
176 -8 376 0 388 1 379 -48 353 -15 -8 -16 -28 -10 -217 8 -252 2 -578 -11
-582 -5 -2 -46 -25 -91 -53 -45 -27 -83 -49 -85 -49 -3 0 -49 -27 -104 -60
-94 -55 -195 -110 -205 -110 -12 0 -16 77 -17 371 -1 335 -3 369 -23 369 -39
-1 -40 -7 -36 -327 3 -169 4 -344 5 -388 l0 -80 -70 -43 c-38 -23 -99 -58
-135 -76 -36 -19 -103 -59 -149 -89 -80 -54 -135 -76 -149 -62 -9 9 -20 261
-21 490 -1 200 -7 229 -37 204 -16 -13 -16 -41 -10 -379 l7 -366 -27 -27 c-14
-15 -75 -55 -135 -89 -60 -35 -146 -84 -191 -111 -106 -60 -165 -84 -179 -70
-7 7 -13 137 -16 359 -3 192 -7 351 -9 353 -2 2 -14 -4 -25 -15 -22 -19 -22
-19 -15 -391 7 -422 14 -384 -82 -430 -31 -14 -70 -37 -85 -49 -15 -13 -58
-38 -95 -55 -37 -18 -80 -43 -97 -57 -27 -23 -30 -23 -34 -7 -4 22 36 57 124
111 130 79 203 129 211 144 11 18 2 675 -8 686 -4 4 -54 -23 -111 -59 -57 -36
-137 -82 -177 -102 -41 -21 -120 -64 -176 -96 -56 -32 -113 -63 -128 -69 -14
-5 -26 -13 -26 -18 0 -17 58 -150 123 -284 36 -73 88 -181 115 -240 l50 -107
66 29 c36 17 89 45 118 64 70 44 194 106 213 106 9 0 20 -12 25 -26 6 -15 10
-181 10 -402 0 -325 10 -563 26 -651 5 -22 6 -21 26 15 20 37 20 44 9 124 -6
47 -11 168 -10 270 0 102 -2 284 -6 406 -11 318 -6 333 147 410 37 19 92 50
121 68 29 19 80 49 113 66 32 18 73 41 91 51 17 11 34 16 37 11 11 -18 26
-490 26 -808 l0 -320 -97 -49 c-183 -91 -296 -163 -390 -247 -24 -21 -47 -38
-52 -38 -15 0 -46 50 -66 105 -16 42 -19 93 -23 335 -3 157 -4 358 -3 448 2
182 2 182 -65 133 -21 -16 -68 -44 -104 -63 -36 -18 -74 -39 -85 -45 -11 -7
-37 -20 -57 -29 -21 -9 -38 -23 -38 -30 0 -8 20 -54 44 -102 24 -48 60 -126
80 -175 56 -137 179 -388 234 -479 27 -46 57 -99 65 -119 8 -20 29 -46 46 -59
39 -27 69 -23 133 17 25 15 92 56 149 90 238 141 264 162 276 221 10 42 9 452
-1 817 -5 182 -6 357 -2 389 9 66 30 94 102 131 22 11 95 54 164 95 155 93
207 117 221 103 7 -7 14 -174 20 -458 9 -391 8 -450 -5 -470 -11 -16 -12 -25
-4 -33 14 -14 23 -166 14 -217 -9 -45 -30 -41 -34 6 -5 76 -14 119 -23 119 -6
0 -31 -14 -57 -32 -25 -18 -107 -65 -182 -106 -74 -40 -140 -79 -147 -85 -7
-8 -13 -59 -15 -135 -1 -67 -2 -122 -1 -122 7 0 154 88 220 131 44 30 118 77
162 104 143 87 129 63 133 234 3 145 4 149 28 170 19 15 21 20 9 21 -22 0 -27
23 -39 186 -11 149 -14 705 -4 741 7 25 58 60 249 170 165 96 232 129 241 120
9 -8 26 -463 20 -512 -16 -120 -1 -743 18 -762 3 -4 12 -1 19 6 10 10 29 275
26 371 -7 196 -13 805 -8 868 7 103 4 100 204 223 160 98 255 149 278 149 25
0 31 -249 18 -709 -11 -400 -8 -561 11 -561 26 0 31 69 35 450 1 217 4 498 6
624 l3 230 49 42 c26 24 76 57 109 75 72 39 305 189 292 189 -11 0 -192 -97
-241 -129 -73 -49 -181 -111 -193 -111 -9 0 -12 97 -14 382 -3 347 -5 383 -20
386 -9 2 -19 -1 -22 -6z"/>
<path d="M6520 7033 c-24 -17 -91 -55 -255 -143 -44 -24 -90 -52 -102 -63
l-23 -20 0 -363 0 -363 53 31 c28 18 109 69 178 114 69 45 135 84 145 86 17 3
20 17 26 118 9 144 15 620 8 620 -3 0 -17 -8 -30 -17z"/>
<path d="M9345 6938 c-35 -19 -65 -51 -65 -68 0 -26 39 -70 61 -70 23 0 75 47
83 76 4 14 -2 29 -18 47 -28 30 -32 31 -61 15z"/>
<path d="M4670 6762 c-14 -9 -31 -23 -38 -29 -7 -7 -19 -13 -25 -13 -24 -1
-154 -66 -182 -92 -42 -39 -81 -54 -100 -38 -13 11 -14 10 -9 -4 10 -26 -6
-19 -59 25 l-49 42 -196 -13 c-109 -7 -278 -11 -377 -9 -162 4 -181 3 -197
-13 -18 -18 -48 -24 -48 -10 0 13 -74 1 -92 -15 -13 -12 -18 -12 -25 -1 -4 7
-18 21 -30 32 -21 18 -23 18 -50 -1 -15 -11 -79 -43 -140 -73 -62 -29 -113
-57 -113 -62 0 -13 76 -134 113 -181 19 -23 47 -66 62 -95 29 -53 55 -84 55
-64 0 6 -4 14 -10 17 -5 3 -10 15 -10 26 0 10 5 19 10 19 6 0 10 6 10 13 0 7
24 36 54 66 58 57 68 85 81 224 6 59 10 70 31 79 13 6 27 9 30 5 3 -3 -2 -110
-12 -237 -14 -191 -15 -243 -5 -291 6 -33 9 -64 6 -69 -3 -6 -3 -10 0 -10 10
0 291 147 370 194 39 22 83 48 97 56 77 43 275 160 361 214 133 82 192 118
338 204 68 39 138 83 154 97 34 28 32 32 -5 7z"/>
<path d="M5784 6598 c-98 -55 -188 -110 -200 -122 -19 -20 -20 -30 -16 -253 4
-225 5 -232 23 -222 25 13 24 4 -1 -21 -17 -17 -20 -33 -20 -126 l0 -106 33
21 c17 12 55 33 82 48 28 14 86 49 130 78 44 29 99 63 123 75 l43 23 -2 348
c0 192 -5 351 -9 354 -4 2 -88 -41 -186 -97z"/>
<path d="M8815 6605 c-46 -45 -21 -134 34 -120 62 15 89 75 55 123 -20 29 -59
28 -89 -3z"/>
<path d="M7131 6494 c-52 -24 -155 -83 -341 -197 l-85 -52 -7 -55 c-7 -53 -7
-830 0 -830 2 0 22 15 45 33 40 32 130 88 192 120 17 9 51 35 77 59 44 40 48
48 62 123 8 44 19 132 25 196 13 137 21 180 31 174 4 -2 19 71 34 163 33 207
42 292 30 291 -5 0 -33 -12 -63 -25z"/>
<path d="M2865 6446 c-22 -12 -122 -77 -222 -145 -153 -102 -183 -126 -183
-146 0 -18 10 -29 38 -43 68 -34 382 -100 382 -81 0 5 7 9 16 9 10 0 14 6 10
15 -11 29 38 48 109 42 64 -6 97 5 50 17 -27 7 -34 26 -10 26 8 0 15 5 15 10
0 6 6 10 14 10 12 0 11 9 -6 48 -27 60 -124 215 -152 241 l-21 20 -40 -23z"/>
<path d="M8535 6398 c19 -64 19 -64 -37 -106 -29 -22 -65 -42 -80 -44 -24 -5
-28 -2 -28 18 0 31 -33 64 -63 64 -24 0 -56 -28 -76 -68 -11 -20 -8 -30 14
-68 24 -40 30 -45 53 -39 15 3 39 19 54 35 16 17 29 29 31 28 4 -4 116 72 146
99 l24 22 100 -54 c55 -29 108 -60 116 -67 64 -54 235 -151 259 -146 10 2 -15
21 -66 47 -46 24 -89 49 -95 55 -7 7 -43 32 -82 57 -38 25 -102 67 -141 92
-39 26 -78 49 -86 52 -9 4 -18 15 -21 26 -3 10 -11 19 -17 19 -8 0 -10 -8 -5
-22z"/>
<path d="M5292 6291 c-45 -27 -134 -82 -197 -123 -92 -59 -113 -77 -110 -93 2
-11 7 -164 10 -340 4 -175 8 -322 11 -326 2 -5 39 17 80 47 42 30 80 54 84 54
5 0 15 6 22 14 8 7 55 37 105 65 50 28 95 56 100 63 15 19 4 688 -11 688 -6 0
-48 -22 -94 -49z"/>
<path d="M8125 6188 c-44 -22 -111 -60 -148 -85 -38 -24 -119 -68 -180 -97
-62 -29 -128 -60 -148 -70 -20 -9 -46 -18 -58 -19 -26 -2 -28 -9 -41 -117 -5
-47 -16 -110 -25 -140 -8 -30 -15 -64 -15 -77 0 -22 1 -22 53 10 29 18 115 79
191 137 77 58 156 116 176 130 49 33 84 58 130 95 20 17 56 44 79 60 105 75
131 97 131 110 0 27 -21 26 -73 -5 -116 -71 -206 -129 -321 -205 -154 -103
-185 -120 -221 -128 l-30 -6 26 12 c16 7 24 18 21 27 -3 8 -1 12 3 8 4 -4 17
7 29 24 11 17 55 52 96 76 165 99 420 277 420 294 0 13 -11 9 -95 -34z"/>
<path d="M9125 6106 c-28 -30 -50 -58 -48 -63 1 -4 4 -33 8 -63 3 -33 14 -65
26 -80 14 -17 19 -19 15 -7 -5 15 1 14 38 -8 77 -45 162 -25 206 47 56 92 -16
208 -128 208 -44 0 -70 -20 -98 -72 -14 -27 -24 -36 -24 -20 0 4 15 31 34 60
19 28 32 52 28 52 -4 0 -30 -25 -57 -54z"/>
<path d="M6410 6074 c-63 -36 -122 -71 -130 -77 -8 -7 -35 -22 -60 -35 -91
-46 -83 2 -81 -464 1 -227 5 -416 9 -420 8 -7 69 29 185 108 42 29 73 46 70
38 -3 -8 -23 -24 -44 -36 -21 -12 -39 -25 -39 -30 0 -4 -6 -8 -12 -8 -7 0 -33
-19 -58 -41 -43 -40 -37 -38 38 8 15 9 43 31 63 48 19 16 45 36 57 44 11 8 20
19 19 25 -1 6 9 10 23 9 14 -1 19 1 11 4 -18 7 35 54 54 47 7 -3 15 5 18 18 4
13 9 205 12 426 5 327 4 402 -7 402 -7 0 -65 -30 -128 -66z"/>
<path d="M2175 6022 c-122 -64 -225 -142 -225 -169 0 -7 -6 -22 -12 -33 -10
-16 -10 -24 1 -42 30 -48 77 -135 96 -178 11 -25 39 -78 63 -119 23 -40 70
-127 103 -192 59 -119 85 -149 74 -86 -3 17 -7 103 -9 190 -2 86 -8 163 -13
170 -13 15 -26 118 -16 116 25 -4 31 7 36 69 10 104 27 245 32 263 5 13 -14
28 -55 45 -3 2 -37 -14 -75 -34z"/>
<path d="M8509 6014 c-41 -26 -90 -57 -109 -69 -19 -12 -88 -56 -153 -96 -64
-41 -148 -93 -185 -117 -37 -23 -82 -50 -101 -58 -18 -8 -78 -45 -133 -82 -54
-37 -125 -83 -157 -102 -149 -90 -182 -114 -187 -137 -4 -14 -1 -30 5 -36 8
-8 11 -8 11 1 0 7 4 12 9 12 14 0 1 -42 -20 -65 -17 -19 -39 -67 -39 -84 0
-12 72 -6 99 8 12 7 20 19 17 26 -4 12 5 21 27 24 4 0 20 12 35 26 15 14 34
23 42 20 8 -4 11 -3 7 1 -4 4 11 17 32 30 22 12 46 27 53 34 7 6 63 43 123 82
61 38 126 81 145 95 19 13 134 90 255 171 121 80 253 172 293 204 40 32 76 58
80 58 4 1 23 15 42 31 l35 31 -50 -26 c-102 -55 -183 -101 -201 -117 -11 -9
-44 -32 -74 -51 -224 -142 -287 -182 -375 -233 -55 -33 -147 -89 -205 -125
-183 -115 -239 -144 -264 -132 -19 9 -18 10 9 9 19 -1 29 2 28 11 -2 6 4 12
12 12 8 0 15 4 15 9 0 5 10 11 22 14 12 4 19 9 15 13 -3 4 13 20 36 37 23 17
51 39 62 49 11 11 61 44 110 75 106 66 166 105 255 168 102 72 211 145 216
145 9 0 99 63 102 72 2 4 8 8 13 8 6 0 40 23 76 50 83 63 70 64 -28 4z"/>
<path d="M4764 5969 c-32 -18 -88 -50 -124 -73 -36 -23 -92 -57 -125 -75 -33
-17 -71 -41 -83 -51 l-24 -20 -1 -322 c-1 -178 1 -335 6 -350 l7 -27 53 31
c166 99 206 125 246 155 24 18 48 33 53 33 5 0 22 10 38 22 l30 22 0 343 c0
189 -4 343 -9 343 -4 0 -35 -14 -67 -31z"/>
<path d="M9430 5948 c0 -62 -63 -113 -170 -138 -57 -14 -87 -30 -57 -30 9 0
17 -4 17 -8 0 -16 97 -39 146 -35 77 6 93 11 129 48 30 30 33 38 28 71 -6 37
-42 87 -75 105 -15 8 -18 6 -18 -13z"/>
<path d="M5920 5778 c-162 -96 -218 -128 -224 -128 -10 0 -112 -68 -122 -81
-10 -14 -1 -599 11 -765 6 -75 9 -82 30 -86 29 -6 228 110 221 129 -3 7 -2 12
2 11 8 -3 44 25 80 62 13 14 30 24 37 22 18 -3 25 132 25 497 0 298 -4 362
-19 360 -3 0 -22 -10 -41 -21z"/>
<path d="M8495 5630 c-69 -33 -127 -78 -107 -86 6 -3 12 -12 12 -19 0 -17 72
-13 78 4 2 6 9 11 15 11 7 0 28 14 47 30 19 16 39 30 44 30 5 0 3 6 -3 13 -6
8 -9 16 -6 19 3 3 0 10 -7 16 -9 7 -30 2 -73 -18z"/>
<path d="M8915 5591 c-16 -9 -84 -50 -150 -92 -117 -74 -258 -159 -515 -310
-69 -40 -168 -102 -220 -137 -52 -36 -210 -134 -350 -218 -140 -84 -263 -158
-273 -166 -10 -7 -21 -34 -25 -63 -11 -66 -6 -82 19 -59 18 16 19 16 26 -4 8
-19 8 -19 26 4 10 13 13 24 7 24 -5 0 7 15 27 33 45 40 249 177 263 177 6 0
10 3 10 8 0 4 27 22 61 41 34 18 110 66 169 105 654 432 752 500 943 653 33
26 25 28 -18 4z"/>
<path d="M8273 5485 c-3 -9 2 -21 11 -28 15 -11 15 -13 -4 -25 -11 -7 -20 -8
-20 -3 0 5 -7 12 -16 15 -21 8 -201 -87 -267 -141 -28 -24 -58 -43 -64 -43 -7
0 -13 -3 -13 -8 0 -4 -21 -18 -47 -32 -50 -25 -134 -79 -143 -90 -3 -4 -22
-13 -42 -19 -21 -7 -38 -17 -38 -22 0 -5 -7 -9 -15 -9 -8 0 -15 -4 -15 -10 0
-5 -9 -10 -20 -10 -11 0 -20 -4 -20 -9 0 -16 -82 -43 -93 -32 -19 19 -25 12
-35 -51 -16 -90 -20 -168 -11 -168 5 0 9 4 9 8 0 5 17 18 38 30 20 12 55 37
77 57 22 20 67 55 100 77 33 23 84 60 114 82 29 23 61 46 69 51 36 23 215 144
317 213 61 41 132 85 159 99 27 14 58 34 70 45 l21 21 -26 -7 c-19 -4 -29 -1
-33 9 -7 20 -55 19 -63 0z"/>
<path d="M5250 5381 c-85 -49 -175 -101 -199 -116 l-44 -26 7 -397 c4 -218 9
-420 12 -449 l6 -52 68 34 c119 60 240 143 234 160 -4 9 -1 15 7 15 8 0 20 14
28 31 8 18 22 34 32 36 9 3 20 16 24 30 7 30 -6 768 -14 800 -6 22 -13 19
-161 -66z"/>
<path d="M6992 5459 c-27 -10 -281 -167 -298 -183 -10 -9 -37 -266 -30 -274 4
-3 102 52 167 94 26 17 64 36 86 43 21 7 49 20 61 29 24 18 47 93 57 183 3 30
8 69 11 87 5 35 -7 40 -54 21z"/>
<path d="M8659 5156 c-14 -13 -47 -36 -75 -51 -182 -101 -294 -169 -434 -260
-164 -108 -436 -282 -499 -320 -28 -16 -51 -33 -51 -37 0 -5 -5 -8 -11 -8 -5
0 -47 -25 -92 -56 -153 -103 -150 -100 -165 -157 -7 -28 -19 -62 -27 -74 l-15
-22 78 2 c42 1 95 -2 117 -6 l40 -7 -45 20 c-29 12 -38 19 -25 20 16 1 15 3
-8 13 l-29 12 21 24 c12 14 21 38 21 57 0 33 17 55 29 36 4 -7 13 -5 26 5 19
15 19 15 -5 8 -22 -7 -23 -6 -11 9 7 9 20 16 27 16 8 0 14 4 14 10 0 5 15 17
33 26 17 9 76 47 131 83 54 36 165 109 246 161 81 52 183 122 228 155 45 33
107 76 139 95 173 105 402 269 378 270 -6 0 -22 -11 -36 -24z"/>
<path d="M6467 5145 c-64 -33 -219 -139 -237 -160 -7 -9 -31 -24 -52 -32 l-38
-15 0 -130 0 -130 58 32 c31 18 119 75 195 127 l137 94 0 120 c0 65 -4 119 -9
119 -4 0 -29 -11 -54 -25z"/>
<path d="M4710 5054 c-69 -42 -139 -82 -156 -89 -17 -7 -50 -25 -74 -40 l-43
-27 6 -311 c4 -172 8 -391 9 -489 2 -97 6 -179 10 -183 4 -4 20 2 35 15 42 33
149 96 231 137 99 49 129 78 137 134 10 68 -8 922 -20 926 -5 1 -66 -31 -135
-73z"/>
<path d="M8884 5083 c-12 -2 -36 -19 -53 -37 -27 -28 -33 -41 -33 -79 0 -78
51 -135 108 -121 25 6 33 24 11 24 -7 0 -28 15 -46 34 -30 31 -33 39 -28 72
12 75 76 106 146 71 22 -11 28 -11 25 -2 -10 25 -85 47 -130 38z"/>
<path d="M8735 4854 c-28 -20 -66 -44 -86 -54 -21 -11 -43 -25 -50 -32 -12
-11 -105 -73 -223 -148 -37 -24 -163 -108 -254 -169 -46 -31 -94 -63 -107 -71
-48 -31 -181 -119 -214 -142 -48 -34 -142 -128 -127 -128 7 0 71 43 142 96 71
53 246 174 389 270 143 96 292 196 330 222 39 27 102 70 140 96 83 55 134 96
120 96 -6 0 -33 -16 -60 -36z"/>
<path d="M5891 4784 c-40 -24 -94 -59 -120 -78 -25 -18 -70 -45 -99 -60 -90
-46 -92 -49 -92 -181 0 -85 3 -115 13 -115 16 0 168 91 231 139 28 21 77 55
109 75 l58 36 -7 108 c-4 59 -9 110 -13 114 -3 4 -39 -13 -80 -38z"/>
<path d="M8611 4381 c-16 -16 -21 -34 -21 -70 0 -42 4 -53 27 -71 42 -33 96
-14 106 38 8 41 -3 82 -27 97 -41 25 -64 27 -85 6z"/>
<path d="M1156 4278 c-52 -36 -249 -158 -491 -304 -180 -108 -260 -159 -266
-167 -4 -6 -12 0 -18 12 -9 16 -21 21 -55 21 -54 0 -86 -30 -86 -82 0 -32 4
-38 34 -48 43 -14 76 -1 109 42 14 18 48 44 74 58 57 29 192 110 318 190 50
31 146 92 215 136 158 99 230 153 230 170 0 18 5 20 -64 -28z"/>
<path d="M8238 4167 c-10 -8 -23 -38 -29 -67 -13 -60 -6 -70 48 -70 46 0 75
40 71 99 -3 45 -4 46 -38 48 -19 2 -43 -3 -52 -10z"/>
<path d="M7310 4074 c-74 -20 -188 -93 -263 -168 -126 -127 -208 -349 -210
-566 -1 -164 35 -273 122 -372 58 -65 99 -87 192 -104 70 -12 90 -12 149 0
111 24 207 82 325 200 67 67 90 98 128 176 62 126 78 192 84 333 10 218 -49
366 -184 458 -77 54 -231 73 -343 43z m242 -197 c86 -51 128 -138 135 -282 10
-208 -76 -381 -235 -474 -93 -54 -162 -75 -227 -68 -185 19 -270 194 -220 453
36 186 148 322 316 385 74 27 171 21 231 -14z"/>
<path d="M7317 3819 c-169 -67 -267 -226 -266 -429 0 -116 37 -195 113 -244
57 -37 113 -35 202 8 93 45 159 111 213 215 38 73 44 94 48 165 6 95 -14 181
-54 235 -52 68 -158 89 -256 50z m50 -235 c23 -23 25 -31 21 -81 -4 -49 -10
-61 -41 -90 -46 -42 -92 -45 -127 -8 -26 28 -40 96 -29 139 14 50 37 66 96 66
45 0 58 -4 80 -26z"/>
<path d="M1780 3746 c-19 -7 -84 -43 -145 -81 -60 -38 -144 -89 -185 -113 -41
-25 -115 -70 -165 -100 -49 -30 -127 -77 -171 -104 -45 -27 -89 -57 -99 -68
-17 -19 -17 -20 2 -20 11 0 73 35 139 78 65 43 162 104 214 134 52 30 146 87
208 127 63 39 140 85 172 101 80 40 99 70 30 46z"/>
<path d="M829 3345 c-59 -32 -84 -131 -44 -175 45 -50 158 -48 182 2 33 67 22
133 -27 166 -38 25 -73 28 -111 7z"/>
<path d="M8495 2724 c-47 -17 -52 -24 -60 -85 -14 -98 56 -181 138 -165 60 12
117 74 117 126 0 37 -31 89 -65 110 -45 28 -83 32 -130 14z"/>
<path d="M8721 2537 c-28 -72 -117 -126 -188 -112 -55 10 -49 6 136 -91 63
-34 114 -43 126 -24 3 6 17 10 30 10 17 0 26 8 34 30 16 48 3 86 -47 132 -92
88 -81 81 -91 55z"/>
<path d="M993 2540 c-13 -5 -23 -16 -23 -25 0 -9 -11 -26 -23 -38 -30 -28 -38
-59 -26 -102 12 -43 42 -72 89 -86 31 -9 43 -8 77 10 77 39 108 106 80 174
-25 59 -111 92 -174 67z"/>
<path d="M839 2481 c-48 -31 -218 -136 -339 -209 -174 -105 -224 -141 -260
-186 -8 -11 17 1 55 26 39 25 131 82 205 128 225 138 333 208 370 239 45 39
27 40 -31 2z"/>
<path d="M3852 2423 c-1 -14 -16 -32 -41 -47 -21 -14 -65 -46 -97 -72 -31 -26
-94 -69 -138 -97 -129 -80 -157 -98 -277 -178 -63 -42 -161 -105 -219 -141
-58 -36 -178 -111 -268 -169 -256 -163 -370 -235 -467 -297 -49 -31 -178 -115
-285 -186 -244 -161 -312 -205 -439 -285 -56 -35 -100 -66 -98 -68 4 -4 114
62 237 142 36 23 112 72 170 110 58 37 134 86 170 110 134 87 215 139 342 216
71 43 176 109 232 146 176 117 291 188 642 403 59 36 112 70 119 77 7 7 55 37
106 68 52 32 102 64 112 73 16 14 17 13 17 -9 1 -21 3 -20 18 11 15 30 126
120 164 132 5 2 8 21 5 43 -2 22 -4 30 -5 18z"/>
<path d="M6324 2058 c-28 -13 -44 -49 -44 -98 0 -45 18 -60 72 -60 50 0 78 30
78 84 0 68 -49 102 -106 74z"/>
<path d="M8672 1658 c-38 -56 -109 -90 -165 -81 -21 3 -37 3 -37 0 0 -10 60
-36 98 -43 20 -4 43 -13 51 -21 10 -10 16 -11 21 -3 4 7 18 8 34 4 34 -8 91
33 99 73 5 22 0 33 -22 53 -15 14 -32 33 -38 44 -9 17 -13 14 -41 -26z"/>
<path d="M3616 1390 c-81 -25 -130 -87 -130 -165 0 -65 23 -107 81 -146 67
-46 133 -51 190 -13 103 68 112 204 19 281 -21 17 -54 35 -75 42 -43 12 -45
13 -85 1z"/>
<path d="M3855 1092 c-11 -19 -42 -50 -69 -69 -42 -29 -56 -33 -110 -33 -34 1
-72 7 -86 15 -33 19 -46 19 -30 0 17 -21 196 -138 240 -158 52 -23 128 -47
151 -47 11 0 38 14 60 32 36 29 39 35 39 79 0 45 -4 52 -62 114 -33 36 -73 74
-87 85 l-27 18 -19 -36z"/>
</g>
</svg>
